<?xml version="1.0" encoding="utf-8"?>
<!-- Generator: Adobe Illustrator 25.2.3, SVG Export Plug-In . SVG Version: 6.00 Build 0)  -->
<svg version="1.1" id="Layer_1" xmlns="http://www.w3.org/2000/svg" xmlns:xlink="http://www.w3.org/1999/xlink" x="0px" y="0px"
	 viewBox="0 0 1595.5 234.8" style="enable-background:new 0 0 1595.5 234.8;" xml:space="preserve">
<style type="text/css">
	.st0{fill:#010101;stroke:#010101;stroke-width:3;stroke-miterlimit:10;}
	.st1{fill:#010101;}
	.st2{opacity:0.4;}
	.st3{fill:none;}
</style>
<circle class="st0" cx="694.8" cy="209.7" r="12.6"/>
<path class="st0" d="M0.5,11.6H142v11.2H13.5v84.3h120.9v11.2H13.5v92.6h130v11.2H0.5V11.6z"/>
<path class="st0" d="M173.3,11.6h13v199.3h119.4v11.2H173.3V11.6z"/>
<path class="st0" d="M332.5,11.6v126.2c0,4.1,0.2,8.9,0.6,14.5c0.9,11.9,4.2,23.5,9.6,34.1c2.9,5.7,6.9,10.8,11.7,15
	c5.3,4.7,11.5,8.3,18.1,10.6c7.2,2.7,15.9,4,26.1,4c13,0,23.8-1.8,32.6-5.5c8.3-3.3,15.6-8.7,21.2-15.6c5.6-7.3,9.6-15.7,11.7-24.6
	c2.5-10.6,3.7-21.5,3.5-32.4V11.6h13v126.2c0.1,11.8-1.3,23.6-4,35.1c-2.4,10.3-7,19.9-13.4,28.3c-6.3,8.1-14.7,14.4-25.2,19
	s-23.6,6.9-39.4,6.9c-12.4,0-23-1.6-31.8-4.7c-8.9-3.1-16.2-7.2-22-12.2c-5.6-4.8-10.3-10.7-13.7-17.2c-6.3-12-10-25.2-10.9-38.8
	c-0.4-6.2-0.6-11.6-0.6-16.4V11.6H332.5z"/>
<path class="st0" d="M588.5,211h0.6l72.8-199.4h13l-78.8,210.6h-15L502.7,11.6h13.6L588.5,211z"/>
<path class="st0" d="M761.9,11.6h13v210.6h-13V11.6z"/>
<path class="st0" d="M1010.5,116.9c0.1,14.7-2.2,29.3-6.8,43.2c-4.2,12.9-10.8,24.8-19.6,35.1c-8.6,10-19.4,18-31.4,23.4
	c-12.4,5.7-26.5,8.5-42.2,8.5s-29.8-2.8-42.3-8.5c-12.1-5.4-22.9-13.4-31.6-23.4c-8.8-10.3-15.4-22.2-19.6-35.1
	c-9.1-28.1-9.1-58.3,0-86.4c4.2-12.9,10.8-24.8,19.6-35.1c8.7-10,19.4-18,31.6-23.5c12.5-5.7,26.6-8.5,42.3-8.5s29.8,2.8,42.2,8.5
	c12,5.5,22.8,13.5,31.4,23.5c8.8,10.3,15.4,22.2,19.6,35.1C1008.3,87.6,1010.6,102.2,1010.5,116.9z M823.2,116.9
	c-0.1,13,1.9,26,5.9,38.3c3.6,11.5,9.4,22.1,17.1,31.4c7.5,9,16.9,16.3,27.4,21.4c10.8,5.3,23.1,8,36.9,8s26-2.7,36.7-8
	c10.5-5.1,19.8-12.4,27.3-21.4c7.7-9.3,13.5-19.9,17.1-31.4c7.9-25,7.9-51.7,0-76.7c-3.6-11.5-9.4-22.1-17.1-31.4
	c-7.5-9-16.8-16.2-27.3-21.4c-10.7-5.3-23-8-36.7-8s-26,2.7-36.9,8c-10.5,5.1-19.9,12.4-27.4,21.4c-7.7,9.3-13.5,19.9-17.1,31.4
	C825.2,90.9,823.2,103.9,823.2,116.9z"/>
<path class="st1" d="M1045.3,11.5h36.9v178.7h107v31.9h-143.9V11.5z"/>
<path class="st1" d="M1202.8,11.5h36.9v210.6h-36.9V11.5z"/>
<path class="st1" d="M1249.1,11.5h38.3l52.8,166.6h0.6l54-166.6h37.4l-72,210.6h-41L1249.1,11.5z"/>
<path class="st1" d="M1441.4,11.5H1593v31.9h-114.8v55.1h106.2v30.1h-106.2v61.6H1595v31.9h-153.6V11.5z"/>
<g class="st2">
	<g>
		<path class="st1" d="M1521.3,202.7"/>
		<path class="st3" d="M1521.3,202.7"/>
	</g>
</g>
<g class="st2">
	<g>
		<path class="st1" d="M1447.7,179.6"/>
		<path class="st3" d="M1447.7,179.6"/>
	</g>
</g>
<path class="st1" d="M1467.7,202.7"/>
</svg>
