<svg width="16" height="14" viewBox="0 0 16 14" fill="none" xmlns="http://www.w3.org/2000/svg">
<path d="M1.10411 0.18042H0.125V10.5989C0.125 10.8115 0.228156 11.0153 0.411776 11.1656C0.595396 11.3159 0.844437 11.4003 1.10411 11.4003H7.89264V10.3381H1.10411V0.18042Z" fill="#222222"/>
<path d="M1.22949 0.0554199V10.2126H8.01758V11.5251H1.10449C0.818997 11.5251 0.541084 11.4326 0.333008 11.2625C0.124322 11.0916 0.000142574 10.8539 0 10.5994V0.0554199H1.22949ZM0.25 10.5994C0.250142 10.7696 0.332914 10.9395 0.491211 11.0691C0.650322 11.1992 0.870893 11.2751 1.10449 11.2751H7.76758V10.4626H0.979492V0.30542H0.25V10.5994Z" fill="#222222"/>
<path d="M11.5449 0.179688L7.97183 3.86406L5.95224 3.71929C5.95224 3.71929 5.56827 3.69106 5.50612 3.69106C5.44397 3.69106 5.38244 3.70375 5.32508 3.72839C5.26771 3.75303 5.21564 3.78915 5.17188 3.83465L1.85187 7.26288L2.51565 7.94733L5.618 4.74838C5.618 4.74838 7.10195 4.89695 7.88875 4.97682C7.96805 4.98487 8.04978 4.97547 8.13687 4.93113C8.22397 4.88679 8.33183 4.74838 8.33183 4.74838L12.2087 0.864135L11.5449 0.179688Z" fill="#222222"/>
<path d="M12.2982 0.777344L12.3841 0.865234L8.42413 4.83203C8.4206 4.83641 8.41568 4.8432 8.40948 4.85059C8.39689 4.86559 8.3787 4.88694 8.35773 4.90918C8.31927 4.94995 8.25801 5.01021 8.19366 5.04297C8.08239 5.09959 7.9759 5.11165 7.87628 5.10156C7.48296 5.06164 6.91496 5.00416 6.44562 4.95703C6.21117 4.93349 6.00126 4.91263 5.84991 4.89746C5.7744 4.88989 5.7133 4.88312 5.6712 4.87891C5.66897 4.87868 5.6665 4.87814 5.66437 4.87793L2.51593 8.12695L1.76202 7.34961L1.67804 7.2627L1.76202 7.17578L5.08136 3.74805L5.17218 3.6709C5.20464 3.64839 5.23929 3.62892 5.2757 3.61328C5.34856 3.58199 5.42699 3.56641 5.50616 3.56641C5.54276 3.56641 5.66023 3.57322 5.76105 3.58008C5.81287 3.5836 5.86272 3.5872 5.89972 3.58984C5.91825 3.59117 5.93398 3.59298 5.94464 3.59375C5.94997 3.59414 5.95449 3.59452 5.95734 3.59473H5.96124L7.92218 3.73438L11.5452 0L12.2982 0.777344ZM8.06183 3.95117L8.02081 3.99316L7.9632 3.98828L5.94366 3.84375H5.93878C5.93597 3.84354 5.93137 3.84316 5.92609 3.84277C5.91553 3.84201 5.9003 3.84114 5.88214 3.83984C5.84539 3.83721 5.79588 3.83358 5.74445 3.83008C5.63784 3.82283 5.53184 3.81641 5.50616 3.81641C5.4611 3.81641 5.41616 3.82482 5.37433 3.84277C5.33256 3.86072 5.29431 3.8874 5.26202 3.9209L2.0257 7.26172L2.51495 7.76758L5.52863 4.66113L5.57062 4.61816L5.63019 4.62402H5.63507C5.6379 4.62431 5.64242 4.62544 5.64777 4.62598C5.6588 4.62708 5.67491 4.62879 5.69562 4.63086C5.73768 4.63507 5.79876 4.64086 5.87433 4.64844C6.02575 4.66361 6.23633 4.68444 6.47101 4.70801C6.94032 4.75513 7.50825 4.8126 7.90167 4.85254C7.96045 4.85846 8.01769 4.85125 8.08038 4.81934C8.10301 4.80769 8.13901 4.77663 8.17609 4.7373C8.19295 4.71942 8.20774 4.70275 8.21808 4.69043C8.2232 4.68433 8.22715 4.67907 8.2298 4.67578L8.23273 4.67188L8.23761 4.66504L8.24347 4.66016L12.0325 0.862305L11.5452 0.358398L8.06183 3.95117Z" fill="#222222"/>
<path d="M13.301 9.08853C13.301 7.51799 12.0278 6.24478 10.4572 6.24478C8.88668 6.24479 7.61347 7.518 7.61346 9.08853C7.61346 10.6591 8.88667 11.9323 10.4572 11.9323C11.2328 11.9323 11.9344 11.6203 12.4474 11.1169C12.4535 11.1102 12.4586 11.1027 12.465 11.0963C12.4717 11.0897 12.4796 11.0841 12.4865 11.0778C12.9894 10.5648 13.301 9.86361 13.301 9.08853ZM14.4709 9.08853C14.4709 9.98565 14.1762 10.8137 13.6789 11.4821L15.1574 12.9606C15.3857 13.1889 15.3855 13.5593 15.1574 13.7878C14.929 14.0162 14.5577 14.0162 14.3293 13.7878L12.8508 12.3092C12.1824 12.8068 11.3545 13.1022 10.4572 13.1022C8.2405 13.1022 6.44354 11.3052 6.44354 9.08853C6.44355 6.87182 8.24051 5.07487 10.4572 5.07486C12.6739 5.07486 14.4709 6.87182 14.4709 9.08853Z" fill="#222222"/>
</svg>
