<svg width="16" height="16" viewBox="0 0 16 16" fill="none" xmlns="http://www.w3.org/2000/svg">
<g clip-path="url(#clip0_1039_81043)">
<path d="M8 16C12.4183 16 16 12.4183 16 8C16 3.58172 12.4183 0 8 0C3.58172 0 0 3.58172 0 8C0 12.4183 3.58172 16 8 16Z" fill="#222222"/>
<path d="M12.9998 5.85138L10.1309 8.00012L12.9998 10.1489V5.85138Z" fill="white"/>
<path d="M9.31335 5H4.81744C4.36598 5 4 5.38376 4 5.85714V10.1429C4 10.6162 4.36598 11 4.81744 11H9.31335C9.7648 11 10.1308 10.6162 10.1308 10.1429V5.85714C10.1308 5.38376 9.7648 5 9.31335 5Z" fill="white"/>
<path d="M12.9998 5.85138L10.1309 8.00012L12.9998 10.1489V5.85138Z" stroke="white" stroke-width="0.463161" stroke-linecap="round" stroke-linejoin="round"/>
<path d="M9.31335 5H4.81744C4.36598 5 4 5.38376 4 5.85714V10.1429C4 10.6162 4.36598 11 4.81744 11H9.31335C9.7648 11 10.1308 10.6162 10.1308 10.1429V5.85714C10.1308 5.38376 9.7648 5 9.31335 5Z" stroke="white" stroke-width="0.463161" stroke-linecap="round" stroke-linejoin="round"/>
<path d="M5.375 10.3333V6H8.61559V6.75537H6.39179V7.78791H8.44887V8.54328H6.39179V9.57795H8.62498V10.3333H5.375Z" fill="#222222"/>
</g>
<defs>
<clipPath id="clip0_1039_81043">
<rect width="16" height="16" fill="white"/>
</clipPath>
</defs>
</svg>
