<svg width="16" height="16" viewBox="0 0 16 16" fill="none" xmlns="http://www.w3.org/2000/svg">
<g clip-path="url(#clip0_1039_81035)">
<path d="M8 16C12.4183 16 16 12.4183 16 8C16 3.58172 12.4183 0 8 0C3.58172 0 0 3.58172 0 8C0 12.4183 3.58172 16 8 16Z" fill="#222222"/>
<path d="M7.69685 13V3H8.34252V13H7.69685ZM9.71654 6.10156C9.67454 5.73177 9.50131 5.44531 9.19685 5.24219C8.89239 5.03646 8.50919 4.93359 8.04724 4.93359C7.71654 4.93359 7.43045 4.98568 7.18898 5.08984C6.94751 5.19141 6.75984 5.33203 6.62598 5.51172C6.49475 5.6888 6.42913 5.89063 6.42913 6.11719C6.42913 6.30729 6.47375 6.47135 6.56299 6.60938C6.65486 6.7474 6.77428 6.86328 6.92126 6.95703C7.07087 7.04818 7.23097 7.125 7.40157 7.1875C7.57218 7.2474 7.73622 7.29688 7.8937 7.33594L8.6811 7.53906C8.93832 7.60156 9.2021 7.6862 9.47244 7.79297C9.74278 7.89974 9.99344 8.04036 10.2244 8.21484C10.4554 8.38932 10.6417 8.60547 10.7835 8.86328C10.9278 9.12109 11 9.42969 11 9.78906C11 10.2422 10.8819 10.6445 10.6457 10.9961C10.4121 11.3477 10.0722 11.625 9.62598 11.8281C9.18241 12.0312 8.64567 12.1328 8.01575 12.1328C7.41207 12.1328 6.88976 12.0378 6.44882 11.8477C6.00787 11.6576 5.66273 11.388 5.41339 11.0391C5.16404 10.6875 5.02625 10.2708 5 9.78906H6.22047C6.24409 10.0781 6.33858 10.319 6.50394 10.5117C6.67192 10.7018 6.88583 10.8437 7.14567 10.9375C7.40814 11.0286 7.69554 11.0742 8.00787 11.0742C8.35171 11.0742 8.65748 11.0208 8.9252 10.9141C9.19554 10.8047 9.40814 10.6536 9.56299 10.4609C9.71785 10.2656 9.79528 10.0378 9.79528 9.77734C9.79528 9.54036 9.72703 9.34635 9.59055 9.19531C9.45669 9.04427 9.27428 8.91927 9.04331 8.82031C8.81496 8.72135 8.55643 8.63411 8.26772 8.55859L7.31496 8.30078C6.66929 8.1263 6.15748 7.86979 5.77953 7.53125C5.4042 7.19271 5.21654 6.74479 5.21654 6.1875C5.21654 5.72656 5.34252 5.32422 5.59449 4.98047C5.84646 4.63672 6.18766 4.36979 6.61811 4.17969C7.04856 3.98698 7.53412 3.89063 8.0748 3.89063C8.62073 3.89063 9.10236 3.98568 9.51969 4.17578C9.93963 4.36589 10.2703 4.6276 10.5118 4.96094C10.7533 5.29167 10.8793 5.67188 10.8898 6.10156H9.71654Z" fill="white"/>
</g>
<defs>
<clipPath id="clip0_1039_81035">
<rect width="16" height="16" fill="white"/>
</clipPath>
</defs>
</svg>
