<svg width="74" height="75" viewBox="0 0 74 75" fill="none" xmlns="http://www.w3.org/2000/svg">
    <g clip-path="url(#clip0_2035_8730)">
        <path d="M71.5273 37.5C71.5273 56.5689 56.0689 72.0273 37 72.0273C17.9311 72.0273 2.47273 56.5689 2.47273 37.5C2.47273 18.4311 17.9311 2.97273 37 2.97273C56.0689 2.97273 71.5273 18.4311 71.5273 37.5Z" stroke="url(#paint0_linear_2035_8730)" stroke-width="4.94545"/>
        <path d="M47.9604 24.7844L20.0107 24.7844M46.9198 38.6514H20.0191M34.0001 17.7898V24.7595M34.0001 38.7591L34.0001 45.7288M40.9709 17.7963L40.9709 24.7837M26.9947 17.7963V24.7837M26.9947 38.7591V45.7465M40.8307 38.8111L40.8307 44.7357M49.395 36.2848L51.2965 34.3833C51.5686 34.0618 51.9051 33.8001 52.2846 33.6149C52.6641 33.4297 53.0783 33.3251 53.5009 33.3076C53.9234 33.2902 54.3449 33.3604 54.7386 33.5137C55.1323 33.667 55.4895 33.9 55.7875 34.198C56.0854 34.496 56.3176 34.8523 56.4692 35.2443C56.6208 35.6363 56.6885 36.0554 56.668 36.4748C56.6474 36.8942 56.5391 37.3048 56.35 37.6803C56.1608 38.0559 55.8949 38.3882 55.5692 38.656L53.7283 40.4969M49.395 36.2848L53.7283 40.4969M49.395 36.2848L36.8761 48.8037L35.2738 54.6787L41.1488 53.0765L53.7283 40.4969M47.9604 37.6899L39.8749 45.746H23.0573C21.3747 45.746 20.0107 44.382 20.0107 42.6994L20.0107 20.8428C20.0107 19.1603 21.3747 17.7963 23.0573 17.7963L44.9139 17.7963C46.5964 17.7963 47.9604 19.1603 47.9604 20.8428L47.9604 37.6899Z" stroke="#382188" stroke-width="2.46667" stroke-linecap="round" stroke-linejoin="round"/>
        <path d="M23.4372 36.0889V28.5443H28.1673V29.5242H24.5755V31.8229H27.9205V32.7992H24.5755V35.109H28.2115V36.0889H23.4372ZM30.3473 28.5443L32.4471 34.689H32.5318L34.6316 28.5443H35.8621L33.147 36.0889H31.8319L29.1169 28.5443H30.3473ZM38.0899 28.5443V36.0889H36.9516V28.5443H38.0899ZM39.7476 36.0889V28.5443H44.4778V29.5242H40.886V31.8229H44.2309V32.7992H40.886V35.109H44.522V36.0889H39.7476Z" fill="#382188"/>
        <g clip-path="url(#clip1_2035_8730)">
            <mask id="path-4-inside-1_2035_8730" fill="white">
                <path d="M29.1104 54.7906C29.2007 54.5196 29.5834 54.5196 29.6737 54.7906L30.2035 56.3814C30.3201 56.731 30.5165 57.0488 30.7772 57.3094C31.038 57.5699 31.3558 57.7662 31.7056 57.8826L33.2955 58.4123C33.5665 58.5027 33.5665 58.8854 33.2955 58.9757L31.7047 59.5054C31.355 59.622 31.0373 59.8185 30.7767 60.0792C30.5161 60.3399 30.3199 60.6578 30.2035 61.0075L29.6737 62.5975C29.6543 62.6568 29.6166 62.7085 29.566 62.7451C29.5154 62.7818 29.4545 62.8015 29.3921 62.8015C29.3296 62.8015 29.2687 62.7818 29.2181 62.7451C29.1676 62.7085 29.1298 62.6568 29.1104 62.5975L28.5806 61.0067C28.4641 60.6571 28.2678 60.3394 28.0072 60.0788C27.7467 59.8183 27.429 59.6219 27.0794 59.5054L25.4886 58.9757C25.4293 58.9562 25.3776 58.9185 25.3409 58.8679C25.3043 58.8174 25.2846 58.7565 25.2846 58.694C25.2846 58.6316 25.3043 58.5707 25.3409 58.5201C25.3776 58.4695 25.4293 58.4318 25.4886 58.4123L27.0794 57.8826C27.429 57.7661 27.7467 57.5698 28.0072 57.3092C28.2678 57.0486 28.4641 56.731 28.5806 56.3814L29.1104 54.7906ZM25.9378 50.603C25.9496 50.5674 25.9723 50.5364 26.0027 50.5145C26.033 50.4926 26.0695 50.4808 26.107 50.4808C26.1445 50.4808 26.181 50.4926 26.2114 50.5145C26.2417 50.5364 26.2644 50.5674 26.2762 50.603L26.594 51.5573C26.7361 51.9827 27.0695 52.3161 27.4949 52.4582L28.4492 52.776C28.4848 52.7878 28.5158 52.8105 28.5377 52.8408C28.5596 52.8712 28.5714 52.9077 28.5714 52.9452C28.5714 52.9827 28.5596 53.0192 28.5377 53.0495C28.5158 53.0799 28.4848 53.1026 28.4492 53.1144L27.4949 53.4322C27.285 53.5019 27.0942 53.6196 26.9378 53.776C26.7814 53.9324 26.6637 54.1232 26.594 54.3331L26.2762 55.2874C26.2644 55.323 26.2417 55.3539 26.2114 55.3759C26.181 55.3978 26.1445 55.4096 26.107 55.4096C26.0695 55.4096 26.033 55.3978 26.0027 55.3759C25.9723 55.3539 25.9496 55.323 25.9378 55.2874L25.62 54.3331C25.5503 54.1232 25.4326 53.9324 25.2762 53.776C25.1198 53.6196 24.929 53.5019 24.7191 53.4322L23.7648 53.1144C23.7292 53.1026 23.6983 53.0799 23.6763 53.0495C23.6544 53.0192 23.6426 52.9827 23.6426 52.9452C23.6426 52.9077 23.6544 52.8712 23.6763 52.8408C23.6983 52.8105 23.7292 52.7878 23.7648 52.776L24.7191 52.4582C24.929 52.3885 25.1198 52.2708 25.2762 52.1144C25.4326 51.958 25.5503 51.7672 25.62 51.5573L25.9378 50.603ZM31.7433 49.7415C31.7514 49.7181 31.7666 49.6978 31.7868 49.6834C31.807 49.6691 31.8311 49.6614 31.8558 49.6614C31.8806 49.6614 31.9047 49.6691 31.9249 49.6834C31.9451 49.6978 31.9602 49.7181 31.9684 49.7415L32.1802 50.3771C32.2747 50.6613 32.4972 50.8838 32.7814 50.9783L33.4171 51.1902C33.4404 51.1983 33.4607 51.2135 33.4751 51.2336C33.4894 51.2538 33.4971 51.2779 33.4971 51.3027C33.4971 51.3274 33.4894 51.3516 33.4751 51.3717C33.4607 51.3919 33.4404 51.4071 33.4171 51.4152L32.7814 51.6271C32.6415 51.6739 32.5144 51.7525 32.41 51.8569C32.3057 51.9612 32.2271 52.0883 32.1802 52.2282L31.9684 52.8639C31.9602 52.8873 31.9451 52.9076 31.9249 52.9219C31.9047 52.9363 31.8806 52.944 31.8558 52.944C31.8311 52.944 31.807 52.9363 31.7868 52.9219C31.7666 52.9076 31.7514 52.8873 31.7433 52.8639L31.5314 52.2282C31.4846 52.0883 31.406 51.9612 31.3016 51.8569C31.1973 51.7525 31.0702 51.6739 30.9303 51.6271L30.2954 51.4152C30.2721 51.4071 30.2518 51.3919 30.2374 51.3717C30.2231 51.3516 30.2154 51.3274 30.2154 51.3027C30.2154 51.2779 30.2231 51.2538 30.2374 51.2336C30.2518 51.2135 30.2721 51.1983 30.2954 51.1902L30.9311 50.9783C31.2153 50.8838 31.4378 50.6613 31.5323 50.3771L31.7433 49.7415Z"/>
            </mask>
            <path d="M29.1104 54.7906L28.1457 54.469L28.1456 54.4693L29.1104 54.7906ZM29.6737 54.7906L30.6385 54.4693L30.6384 54.469L29.6737 54.7906ZM30.2035 56.3814L29.2387 56.7026L29.2388 56.703L30.2035 56.3814ZM31.7056 57.8826L32.027 56.9179L32.0267 56.9178L31.7056 57.8826ZM33.2955 58.4123L33.6171 57.4477L33.6169 57.4476L33.2955 58.4123ZM33.2955 58.9757L33.6168 59.9405L33.6171 59.9404L33.2955 58.9757ZM31.7047 59.5054L31.3835 58.5407L31.3831 58.5408L31.7047 59.5054ZM30.2035 61.0075L31.1682 61.3289L31.1683 61.3286L30.2035 61.0075ZM29.6737 62.5975L28.709 62.2761L28.7076 62.2804L29.6737 62.5975ZM29.1104 62.5975L30.0765 62.2804L30.0751 62.2762L29.1104 62.5975ZM28.5806 61.0067L29.5454 60.6854L29.5453 60.6852L28.5806 61.0067ZM27.0794 59.5054L27.4009 58.5407L27.4006 58.5407L27.0794 59.5054ZM25.4886 58.9757L25.8099 58.0109L25.8057 58.0096L25.4886 58.9757ZM25.2846 58.694H26.3014H25.2846ZM25.4886 58.4123L25.8057 59.3785L25.8099 59.3771L25.4886 58.4123ZM27.0794 57.8826L27.4006 58.8474L27.4009 58.8473L27.0794 57.8826ZM28.5806 56.3814L29.5453 56.7029L29.5454 56.7026L28.5806 56.3814ZM25.9378 50.603L26.9026 50.9243L26.9031 50.9226L25.9378 50.603ZM26.2762 50.603L25.3109 50.9226L25.3114 50.9243L26.2762 50.603ZM26.594 51.5573L25.6293 51.8786L25.6295 51.8794L26.594 51.5573ZM27.4949 52.4582L27.1728 53.4227L27.1736 53.4229L27.4949 52.4582ZM28.4492 52.776L28.1279 53.7408L28.1296 53.7413L28.4492 52.776ZM28.4492 53.1144L28.1296 52.1491L28.1279 52.1496L28.4492 53.1144ZM27.4949 53.4322L27.8152 54.3973L27.8162 54.397L27.4949 53.4322ZM26.594 54.3331L27.5588 54.6544L27.5591 54.6534L26.594 54.3331ZM26.2762 55.2874L25.3114 54.9661L25.3109 54.9678L26.2762 55.2874ZM25.9378 55.2874L26.9031 54.9678L26.9026 54.9661L25.9378 55.2874ZM25.62 54.3331L24.6549 54.6534L24.6553 54.6544L25.62 54.3331ZM24.7191 53.4322L24.3978 54.397L24.3988 54.3973L24.7191 53.4322ZM23.7648 53.1144L24.0861 52.1496L24.0844 52.1491L23.7648 53.1144ZM23.6426 52.9452H22.6257H23.6426ZM23.7648 52.776L24.0844 53.7413L24.0861 53.7408L23.7648 52.776ZM24.7191 52.4582L24.3988 51.4931L24.3978 51.4934L24.7191 52.4582ZM25.62 51.5573L24.6553 51.236L24.6549 51.237L25.62 51.5573ZM31.7433 49.7415L30.7825 49.4083L30.7783 49.421L31.7433 49.7415ZM31.8558 49.6614V50.6782V49.6614ZM31.9684 49.7415L32.9331 49.4199L32.9291 49.4084L31.9684 49.7415ZM32.1802 50.3771L33.1452 50.0564L33.1449 50.0556L32.1802 50.3771ZM32.7814 50.9783L33.103 50.0136L33.1021 50.0133L32.7814 50.9783ZM33.4171 51.1902L33.7502 50.2293L33.7386 50.2255L33.4171 51.1902ZM33.4171 51.4152L33.7386 52.3799L33.7501 52.3759L33.4171 51.4152ZM32.7814 51.6271L32.4598 50.6624L32.4588 50.6628L32.7814 51.6271ZM32.1802 52.2282L31.2159 51.9056L31.2156 51.9067L32.1802 52.2282ZM31.9684 52.8639L32.9292 53.197L32.933 53.1854L31.9684 52.8639ZM31.7433 52.8639L30.7786 53.1855L30.7826 53.197L31.7433 52.8639ZM31.5314 52.2282L32.4961 51.9067L32.4957 51.9056L31.5314 52.2282ZM30.9303 51.6271L31.2529 50.6628L31.2522 50.6625L30.9303 51.6271ZM30.2954 51.4152L29.9623 52.376L29.9735 52.3797L30.2954 51.4152ZM30.2954 51.1902L29.9739 50.2254L29.9624 50.2294L30.2954 51.1902ZM30.9311 50.9783L30.6104 50.0133L30.6095 50.0136L30.9311 50.9783ZM31.5323 50.3771L32.4972 50.6978L32.4973 50.6975L31.5323 50.3771ZM30.075 55.1121C29.8564 55.7682 28.9278 55.7682 28.7091 55.1121L30.6384 54.469C30.2391 53.2709 28.5451 53.2709 28.1457 54.469L30.075 55.1121ZM28.709 55.1118L29.2387 56.7026L31.1682 56.0601L30.6385 54.4693L28.709 55.1118ZM29.2388 56.703C29.4054 57.2025 29.686 57.6564 30.0584 58.0286L31.4961 56.5901C31.347 56.4412 31.2347 56.2596 31.1681 56.0597L29.2388 56.703ZM30.0584 58.0286C30.4308 58.4008 30.8848 58.6812 31.3844 58.8474L32.0267 56.9178C31.8267 56.8513 31.6451 56.7391 31.4961 56.5901L30.0584 58.0286ZM31.3841 58.8473L32.9741 59.3771L33.6169 57.4476L32.027 56.9179L31.3841 58.8473ZM32.974 59.377C32.3179 59.1583 32.3179 58.2297 32.974 58.0111L33.6171 59.9404C34.8151 59.541 34.8151 57.847 33.6171 57.4477L32.974 59.377ZM32.9743 58.011L31.3835 58.5407L32.026 60.4702L33.6168 59.9405L32.9743 58.011ZM31.3831 58.5408C30.8836 58.7073 30.4297 58.9879 30.0575 59.3604L31.4959 60.798C31.6449 60.649 31.8265 60.5367 32.0264 60.4701L31.3831 58.5408ZM30.0575 59.3604C29.6853 59.7328 29.4049 60.1868 29.2386 60.6864L31.1683 61.3286C31.2348 61.1287 31.347 60.947 31.4959 60.798L30.0575 59.3604ZM29.2387 60.6861L28.709 62.2761L30.6385 62.9189L31.1682 61.3289L29.2387 60.6861ZM28.7076 62.2804C28.7549 62.1362 28.8466 62.0106 28.9695 61.9216L30.1624 63.5687C30.3865 63.4064 30.5536 63.1775 30.6399 62.9146L28.7076 62.2804ZM28.9695 61.9216C29.0924 61.8326 29.2403 61.7847 29.3921 61.7847V63.8184C29.6687 63.8184 29.9384 63.731 30.1624 63.5687L28.9695 61.9216ZM29.3921 61.7847C29.5438 61.7847 29.6917 61.8326 29.8146 61.9216L28.6217 63.5687C28.8458 63.731 29.1154 63.8184 29.3921 63.8184V61.7847ZM29.8146 61.9216C29.9375 62.0106 30.0292 62.1362 30.0765 62.2804L28.1442 62.9146C28.2305 63.1775 28.3976 63.4064 28.6217 63.5687L29.8146 61.9216ZM30.0751 62.2762L29.5454 60.6854L27.6159 61.328L28.1456 62.9187L30.0751 62.2762ZM29.5453 60.6852C29.3789 60.1858 29.0985 59.732 28.7263 59.3598L27.2882 60.7979C27.4372 60.9468 27.5494 61.1284 27.616 61.3282L29.5453 60.6852ZM28.7263 59.3598C28.354 58.9876 27.9003 58.7072 27.4009 58.5407L26.7579 60.4701C26.9577 60.5367 27.1393 60.6489 27.2882 60.7979L28.7263 59.3598ZM27.4006 58.5407L25.8099 58.011L25.1673 59.9405L26.7581 60.4702L27.4006 58.5407ZM25.8057 58.0096C25.9499 58.0569 26.0754 58.1486 26.1645 58.2715L24.5174 59.4644C24.6797 59.6885 24.9086 59.8556 25.1715 59.9419L25.8057 58.0096ZM26.1645 58.2715C26.2535 58.3944 26.3014 58.5423 26.3014 58.694H24.2677C24.2677 58.9707 24.3551 59.2403 24.5174 59.4644L26.1645 58.2715ZM26.3014 58.694C26.3014 58.8458 26.2535 58.9937 26.1645 59.1166L24.5174 57.9236C24.3551 58.1477 24.2677 58.4173 24.2677 58.694H26.3014ZM26.1645 59.1166C26.0754 59.2395 25.9499 59.3312 25.8057 59.3785L25.1715 57.4462C24.9086 57.5325 24.6797 57.6996 24.5174 57.9236L26.1645 59.1166ZM25.8099 59.3771L27.4006 58.8474L26.7581 56.9179L25.1673 57.4476L25.8099 59.3771ZM27.4009 58.8473C27.9003 58.6809 28.354 58.4004 28.7263 58.0282L27.2882 56.5902C27.1393 56.7391 26.9577 56.8513 26.7579 56.9179L27.4009 58.8473ZM28.7263 58.0282C29.0985 57.656 29.3789 57.2022 29.5453 56.7029L27.616 56.0599C27.5494 56.2597 27.4372 56.4413 27.2882 56.5902L28.7263 58.0282ZM29.5454 56.7026L30.0751 55.1118L28.1456 54.4693L27.6159 56.0601L29.5454 56.7026ZM26.9031 50.9226C26.8477 51.09 26.741 51.2356 26.598 51.3388L25.4073 49.6902C25.2036 49.8373 25.0515 50.0448 24.9725 50.2833L26.9031 50.9226ZM26.598 51.3388C26.4551 51.4421 26.2833 51.4976 26.107 51.4976V49.4639C25.8558 49.4639 25.6109 49.5431 25.4073 49.6902L26.598 51.3388ZM26.107 51.4976C25.9307 51.4976 25.7589 51.4421 25.616 51.3388L26.8067 49.6902C26.6031 49.5431 26.3582 49.4639 26.107 49.4639V51.4976ZM25.616 51.3388C25.4731 51.2356 25.3663 51.09 25.3109 50.9226L27.2415 50.2833C27.1625 50.0448 27.0104 49.8373 26.8067 49.6902L25.616 51.3388ZM25.3114 50.9243L25.6293 51.8786L27.5588 51.236L27.2409 50.2816L25.3114 50.9243ZM25.6295 51.8794C25.8729 52.608 26.4442 53.1793 27.1728 53.4227L27.8171 51.4937C27.6948 51.4529 27.5993 51.3574 27.5585 51.2351L25.6295 51.8794ZM27.1736 53.4229L28.1279 53.7408L28.7706 51.8113L27.8162 51.4934L27.1736 53.4229ZM28.1296 53.7413C27.9622 53.6859 27.8166 53.5791 27.7134 53.4362L29.362 52.2455C29.2149 52.0418 29.0074 51.8897 28.7689 51.8107L28.1296 53.7413ZM27.7134 53.4362C27.6102 53.2933 27.5546 53.1215 27.5546 52.9452H29.5883C29.5883 52.694 29.5091 52.4491 29.362 52.2455L27.7134 53.4362ZM27.5546 52.9452C27.5546 52.7689 27.6102 52.5971 27.7134 52.4542L29.362 53.6449C29.5091 53.4413 29.5883 53.1964 29.5883 52.9452H27.5546ZM27.7134 52.4542C27.8166 52.3112 27.9622 52.2045 28.1296 52.1491L28.7689 54.0797C29.0074 54.0007 29.2149 53.8486 29.362 53.6449L27.7134 52.4542ZM28.1279 52.1496L27.1736 52.4675L27.8162 54.397L28.7706 54.0791L28.1279 52.1496ZM27.1746 52.4671C26.8145 52.5867 26.4872 52.7886 26.2188 53.057L27.6569 54.495C27.7013 54.4506 27.7556 54.4171 27.8152 54.3973L27.1746 52.4671ZM26.2188 53.057C25.9505 53.3253 25.7485 53.6526 25.6289 54.0128L27.5591 54.6534C27.5789 54.5937 27.6124 54.5395 27.6569 54.495L26.2188 53.057ZM25.6293 54.0118L25.3114 54.9661L27.2409 55.6087L27.5588 54.6544L25.6293 54.0118ZM25.3109 54.9678C25.3663 54.8004 25.4731 54.6548 25.616 54.5516L26.8067 56.2002C27.0104 56.0531 27.1625 55.8456 27.2415 55.6071L25.3109 54.9678ZM25.616 54.5516C25.7589 54.4483 25.9307 54.3928 26.107 54.3928V56.4265C26.3582 56.4265 26.6031 56.3473 26.8067 56.2002L25.616 54.5516ZM26.107 54.3928C26.2833 54.3928 26.4551 54.4483 26.598 54.5516L25.4073 56.2002C25.6109 56.3473 25.8558 56.4265 26.107 56.4265V54.3928ZM26.598 54.5516C26.741 54.6548 26.8477 54.8004 26.9031 54.9678L24.9725 55.6071C25.0515 55.8456 25.2036 56.0531 25.4073 56.2002L26.598 54.5516ZM26.9026 54.9661L26.5848 54.0118L24.6553 54.6544L24.9731 55.6087L26.9026 54.9661ZM26.5851 54.0128C26.4655 53.6526 26.2636 53.3253 25.9952 53.057L24.5572 54.495C24.6016 54.5395 24.6351 54.5937 24.6549 54.6534L26.5851 54.0128ZM25.9952 53.057C25.7269 52.7886 25.3996 52.5867 25.0394 52.4671L24.3988 54.3973C24.4585 54.4171 24.5127 54.4506 24.5572 54.495L25.9952 53.057ZM25.0404 52.4675L24.0861 52.1496L23.4435 54.0791L24.3978 54.397L25.0404 52.4675ZM24.0844 52.1491C24.2518 52.2045 24.3974 52.3112 24.5006 52.4542L22.852 53.6449C22.9991 53.8486 23.2066 54.0007 23.4451 54.0797L24.0844 52.1491ZM24.5006 52.4542C24.6039 52.5971 24.6594 52.7689 24.6594 52.9452H22.6257C22.6257 53.1964 22.7049 53.4413 22.852 53.6449L24.5006 52.4542ZM24.6594 52.9452C24.6594 53.1215 24.6039 53.2933 24.5006 53.4362L22.852 52.2455C22.7049 52.4491 22.6257 52.694 22.6257 52.9452H24.6594ZM24.5006 53.4362C24.3974 53.5791 24.2518 53.6859 24.0844 53.7413L23.4451 51.8107C23.2066 51.8897 22.9991 52.0418 22.852 52.2455L24.5006 53.4362ZM24.0861 53.7408L25.0404 53.4229L24.3978 51.4934L23.4435 51.8113L24.0861 53.7408ZM25.0394 53.4233C25.3996 53.3037 25.7269 53.1017 25.9952 52.8334L24.5572 51.3954C24.5127 51.4398 24.4585 51.4733 24.3988 51.4931L25.0394 53.4233ZM25.9952 52.8334C26.2636 52.565 26.4655 52.2377 26.5851 51.8776L24.6549 51.237C24.6351 51.2966 24.6016 51.3509 24.5572 51.3954L25.9952 52.8334ZM26.5848 51.8786L26.9026 50.9243L24.9731 50.2816L24.6553 51.236L26.5848 51.8786ZM32.7041 50.0745C32.643 50.2508 32.5284 50.4037 32.3764 50.5119L31.1972 48.855C31.0048 48.9919 30.8599 49.1853 30.7826 49.4084L32.7041 50.0745ZM32.3764 50.5119C32.2244 50.6201 32.0424 50.6782 31.8558 50.6782V48.6445C31.6198 48.6445 31.3895 48.7181 31.1972 48.855L32.3764 50.5119ZM31.8558 50.6782C31.6693 50.6782 31.4873 50.6201 31.3353 50.5119L32.5145 48.855C32.3222 48.7181 32.0919 48.6445 31.8558 48.6445V50.6782ZM31.3353 50.5119C31.1833 50.4037 31.0687 50.2508 31.0076 50.0745L32.9291 49.4084C32.8518 49.1853 32.7068 48.9919 32.5145 48.855L31.3353 50.5119ZM31.0037 50.063L31.2156 50.6987L33.1449 50.0556L32.933 49.4199L31.0037 50.063ZM31.2153 50.6978C31.4109 51.2863 31.8722 51.7476 32.4607 51.9432L33.1021 50.0133C33.1223 50.02 33.1385 50.0362 33.1452 50.0564L31.2153 50.6978ZM32.4598 51.9429L33.0955 52.1548L33.7386 50.2255L33.103 50.0136L32.4598 51.9429ZM33.084 52.1509C32.9077 52.0898 32.7548 51.9753 32.6466 51.8232L34.3035 50.644C34.1666 50.4517 33.9732 50.3067 33.7501 50.2294L33.084 52.1509ZM32.6466 51.8232C32.5384 51.6712 32.4803 51.4893 32.4803 51.3027H34.514C34.514 51.0666 34.4404 50.8364 34.3035 50.644L32.6466 51.8232ZM32.4803 51.3027C32.4803 51.1161 32.5384 50.9341 32.6466 50.7821L34.3035 51.9613C34.4404 51.769 34.514 51.5388 34.514 51.3027H32.4803ZM32.6466 50.7821C32.7548 50.6301 32.9077 50.5156 33.084 50.4544L33.7501 52.3759C33.9732 52.2986 34.1666 52.1537 34.3035 51.9613L32.6466 50.7821ZM33.0955 50.4505L32.4598 50.6624L33.103 52.5917L33.7386 52.3799L33.0955 50.4505ZM32.4588 50.6628C32.1695 50.7595 31.9067 50.9222 31.691 51.1379L33.1291 52.5759C33.122 52.5829 33.1135 52.5882 33.104 52.5914L32.4588 50.6628ZM31.691 51.1379C31.4753 51.3535 31.3127 51.6163 31.2159 51.9056L33.1445 52.5509C33.1414 52.5603 33.1361 52.5689 33.1291 52.5759L31.691 51.1379ZM31.2156 51.9067L31.0037 52.5423L32.933 53.1854L33.1449 52.5498L31.2156 51.9067ZM31.0076 52.5308C31.0687 52.3545 31.1833 52.2016 31.3353 52.0934L32.5145 53.7504C32.7068 53.6135 32.8518 53.42 32.9291 53.197L31.0076 52.5308ZM31.3353 52.0934C31.4873 51.9853 31.6692 51.9271 31.8558 51.9271V53.9608C32.0919 53.9608 32.3222 53.8873 32.5145 53.7504L31.3353 52.0934ZM31.8558 51.9271C32.0424 51.9271 32.2244 51.9853 32.3764 52.0934L31.1972 53.7504C31.3895 53.8873 31.6198 53.9608 31.8558 53.9608V51.9271ZM32.3764 52.0934C32.5284 52.2016 32.643 52.3545 32.7041 52.5308L30.7826 53.197C30.8599 53.42 31.0048 53.6135 31.1972 53.7504L32.3764 52.0934ZM32.708 52.5423L32.4961 51.9067L30.5668 52.5498L30.7787 53.1854L32.708 52.5423ZM32.4957 51.9056C32.399 51.6163 32.2363 51.3535 32.0207 51.1379L30.5826 52.5759C30.5756 52.5689 30.5703 52.5603 30.5671 52.5509L32.4957 51.9056ZM32.0207 51.1379C31.805 50.9222 31.5422 50.7595 31.2529 50.6628L30.6076 52.5914C30.5982 52.5882 30.5896 52.5829 30.5826 52.5759L32.0207 51.1379ZM31.2522 50.6625L30.6174 50.4506L29.9735 52.3797L30.6083 52.5916L31.2522 50.6625ZM30.6285 50.4544C30.8048 50.5156 30.9577 50.6301 31.0659 50.7821L29.409 51.9613C29.5459 52.1537 29.7393 52.2986 29.9624 52.3759L30.6285 50.4544ZM31.0659 50.7821C31.1741 50.9341 31.2322 51.1161 31.2322 51.3027H29.1985C29.1985 51.5388 29.2721 51.769 29.409 51.9613L31.0659 50.7821ZM31.2322 51.3027C31.2322 51.4893 31.1741 51.6712 31.0659 51.8232L29.409 50.644C29.2721 50.8364 29.1985 51.0666 29.1985 51.3027H31.2322ZM31.0659 51.8232C30.9577 51.9753 30.8048 52.0898 30.6285 52.1509L29.9624 50.2294C29.7393 50.3067 29.5459 50.4517 29.409 50.644L31.0659 51.8232ZM30.617 52.1548L31.2527 51.9429L30.6095 50.0136L29.9739 50.2255L30.617 52.1548ZM31.2518 51.9432C31.8403 51.7476 32.3016 51.2863 32.4972 50.6978L30.5673 50.0564C30.574 50.0362 30.5902 50.02 30.6104 50.0133L31.2518 51.9432ZM32.4973 50.6975L32.7084 50.0619L30.7783 49.421L30.5672 50.0567L32.4973 50.6975Z" fill="url(#paint1_linear_2035_8730)" mask="url(#path-4-inside-1_2035_8730)"/>
        </g>
    </g>
    <defs>
        <linearGradient id="paint0_linear_2035_8730" x1="37" y1="0.5" x2="37" y2="74.5" gradientUnits="userSpaceOnUse">
            <stop stop-color="#9E52FF"/>
            <stop offset="1" stop-color="#6981FF"/>
        </linearGradient>
        <linearGradient id="paint1_linear_2035_8730" x1="28.5707" y1="49.6614" x2="28.5707" y2="62.8015" gradientUnits="userSpaceOnUse">
            <stop stop-color="#9E52FF"/>
            <stop offset="1" stop-color="#6981FF"/>
        </linearGradient>
        <clipPath id="clip0_2035_8730">
            <rect width="74" height="74" fill="white" transform="translate(0 0.5)"/>
        </clipPath>
        <clipPath id="clip1_2035_8730">
            <rect width="13.1402" height="13.1402" fill="white" transform="translate(22.8223 49.6602)"/>
        </clipPath>
    </defs>
</svg>
