<svg width="74" height="75" viewBox="0 0 74 75" fill="none" xmlns="http://www.w3.org/2000/svg">
<g clip-path="url(#clip0_1969_11288)">
<path d="M71.3804 37.5C71.3804 56.5691 55.9218 72.0277 36.8527 72.0277C17.7835 72.0277 2.32496 56.5691 2.32496 37.5C2.32496 18.4309 17.7835 2.97227 36.8527 2.97227C55.9218 2.97227 71.3804 18.4309 71.3804 37.5Z" stroke="url(#paint0_linear_1969_11288)" stroke-width="4.94552"/>
<path d="M47.8117 24.784L19.8616 24.784M46.771 38.6512H19.87M33.8512 17.7893V24.7591M33.8512 38.7589L33.8512 45.7287M40.8221 17.7958L40.8221 24.7833M26.8457 17.7958V24.7833M26.8457 38.7589V45.7464M40.6819 38.8109L40.6819 44.7356M49.2463 36.2846L51.1478 34.383C51.4199 34.0615 51.7564 33.7998 52.1359 33.6147C52.5155 33.4295 52.9297 33.3248 53.3522 33.3074C53.7747 33.2899 54.1963 33.3601 54.59 33.5134C54.9837 33.6667 55.3409 33.8997 55.6388 34.1977C55.9368 34.4957 56.169 34.852 56.3206 35.244C56.4722 35.636 56.5399 36.0551 56.5194 36.4745C56.4988 36.894 56.3905 37.3045 56.2013 37.6801C56.0122 38.0556 55.7463 38.3879 55.4206 38.6558L53.5797 40.4967M49.2463 36.2846L53.5797 40.4967M49.2463 36.2846L36.7272 48.8037L35.1249 54.6787L41 53.0765L53.5797 40.4967M47.8117 37.6896L39.7261 45.7458H22.9082C21.2256 45.7458 19.8616 44.3819 19.8616 42.6993L19.8616 20.8424C19.8616 19.1598 21.2256 17.7958 22.9082 17.7958L44.7651 17.7958C46.4477 17.7958 47.8117 19.1598 47.8117 20.8424L47.8117 37.6896Z" stroke="#382188" stroke-width="2.4667" stroke-linecap="round" stroke-linejoin="round"/>
<g clip-path="url(#clip1_1969_11288)">
<mask id="path-3-inside-1_1969_11288" fill="white">
<path d="M28.9623 54.7906C29.0526 54.5196 29.4353 54.5196 29.5257 54.7906L30.0554 56.3814C30.172 56.7311 30.3685 57.0489 30.6292 57.3095C30.8899 57.57 31.2078 57.7663 31.5575 57.8827L33.1475 58.4124C33.4185 58.5028 33.4185 58.8855 33.1475 58.9758L31.5567 59.5056C31.207 59.6222 30.8893 59.8186 30.6287 60.0793C30.3681 60.3401 30.1718 60.6579 30.0554 61.0077L29.5257 62.5977C29.5062 62.657 29.4685 62.7087 29.4179 62.7453C29.3673 62.782 29.3064 62.8017 29.244 62.8017C29.1815 62.8017 29.1207 62.782 29.0701 62.7453C29.0195 62.7087 28.9818 62.657 28.9623 62.5977L28.4326 61.0068C28.3161 60.6572 28.1197 60.3396 27.8592 60.079C27.5986 59.8184 27.2809 59.6221 26.9313 59.5056L25.3405 58.9758C25.2811 58.9564 25.2295 58.9186 25.1928 58.8681C25.1562 58.8175 25.1365 58.7566 25.1365 58.6941C25.1365 58.6317 25.1562 58.5708 25.1928 58.5202C25.2295 58.4696 25.2811 58.4319 25.3405 58.4124L26.9313 57.8827C27.2809 57.7662 27.5986 57.5699 27.8592 57.3093C28.1197 57.0487 28.3161 56.7311 28.4326 56.3814L28.9623 54.7906ZM25.7897 50.603C25.8015 50.5674 25.8242 50.5365 25.8546 50.5145C25.8849 50.4926 25.9214 50.4808 25.9589 50.4808C25.9964 50.4808 26.0329 50.4926 26.0632 50.5145C26.0936 50.5365 26.1163 50.5674 26.1281 50.603L26.4459 51.5573C26.588 51.9827 26.9214 52.3161 27.3468 52.4582L28.3012 52.7761C28.3367 52.7878 28.3677 52.8105 28.3896 52.8409C28.4116 52.8713 28.4234 52.9078 28.4234 52.9452C28.4234 52.9827 28.4116 53.0192 28.3896 53.0496C28.3677 53.08 28.3367 53.1026 28.3012 53.1144L27.3468 53.4323C27.1369 53.5019 26.9461 53.6197 26.7897 53.7761C26.6333 53.9325 26.5156 54.1233 26.4459 54.3332L26.1281 55.2875C26.1163 55.3231 26.0936 55.354 26.0632 55.376C26.0329 55.3979 25.9964 55.4097 25.9589 55.4097C25.9214 55.4097 25.8849 55.3979 25.8546 55.376C25.8242 55.354 25.8015 55.3231 25.7897 55.2875L25.4719 54.3332C25.4022 54.1233 25.2845 53.9325 25.1281 53.7761C24.9717 53.6197 24.7809 53.5019 24.5709 53.4323L23.6166 53.1144C23.5811 53.1026 23.5501 53.08 23.5282 53.0496C23.5062 53.0192 23.4944 52.9827 23.4944 52.9452C23.4944 52.9078 23.5062 52.8713 23.5282 52.8409C23.5501 52.8105 23.5811 52.7878 23.6166 52.7761L24.5709 52.4582C24.7809 52.3885 24.9717 52.2708 25.1281 52.1144C25.2845 51.958 25.4022 51.7672 25.4719 51.5573L25.7897 50.603ZM31.5953 49.7415C31.6034 49.7181 31.6186 49.6978 31.6388 49.6834C31.6589 49.6691 31.6831 49.6614 31.7078 49.6614C31.7326 49.6614 31.7567 49.6691 31.7769 49.6834C31.797 49.6978 31.8122 49.7181 31.8203 49.7415L32.0322 50.3771C32.1267 50.6613 32.3492 50.8838 32.6334 50.9783L33.269 51.1902C33.2924 51.1983 33.3127 51.2135 33.3271 51.2336C33.3414 51.2538 33.3491 51.2779 33.3491 51.3027C33.3491 51.3274 33.3414 51.3516 33.3271 51.3717C33.3127 51.3919 33.2924 51.4071 33.269 51.4152L32.6334 51.6271C32.4935 51.6739 32.3663 51.7526 32.262 51.8569C32.1577 51.9612 32.079 52.0884 32.0322 52.2283L31.8203 52.8639C31.8122 52.8873 31.797 52.9076 31.7769 52.9219C31.7567 52.9363 31.7326 52.944 31.7078 52.944C31.6831 52.944 31.6589 52.9363 31.6388 52.9219C31.6186 52.9076 31.6034 52.8873 31.5953 52.8639L31.3834 52.2283C31.3366 52.0884 31.2579 51.9612 31.1536 51.8569C31.0493 51.7526 30.9221 51.6739 30.7822 51.6271L30.1474 51.4152C30.124 51.4071 30.1037 51.3919 30.0894 51.3717C30.075 51.3516 30.0673 51.3274 30.0673 51.3027C30.0673 51.2779 30.075 51.2538 30.0894 51.2336C30.1037 51.2135 30.124 51.1983 30.1474 51.1902L30.7831 50.9783C31.0672 50.8838 31.2898 50.6613 31.3842 50.3771L31.5953 49.7415Z"/>
</mask>
<path d="M28.9623 54.7906L27.9976 54.4691L27.9975 54.4694L28.9623 54.7906ZM29.5257 54.7906L30.4905 54.4694L30.4904 54.4691L29.5257 54.7906ZM30.0554 56.3814L29.0906 56.7027L29.0908 56.7031L30.0554 56.3814ZM31.5575 57.8827L31.8789 56.918L31.8786 56.9179L31.5575 57.8827ZM33.1475 58.4124L33.4691 57.4478L33.4689 57.4477L33.1475 58.4124ZM33.1475 58.9758L33.4688 59.9406L33.4691 59.9405L33.1475 58.9758ZM31.5567 59.5056L31.2354 58.5408L31.2351 58.5409L31.5567 59.5056ZM30.0554 61.0077L31.0201 61.3291L31.0202 61.3288L30.0554 61.0077ZM29.5257 62.5977L28.5609 62.2762L28.5595 62.2806L29.5257 62.5977ZM28.9623 62.5977L29.9285 62.2806L29.9271 62.2764L28.9623 62.5977ZM28.4326 61.0068L29.3974 60.6856L29.3973 60.6853L28.4326 61.0068ZM26.9313 59.5056L27.2528 58.5409L27.2525 58.5408L26.9313 59.5056ZM25.3405 58.9758L25.6617 58.0111L25.6576 58.0097L25.3405 58.9758ZM25.1365 58.6941H26.1533H25.1365ZM25.3405 58.4124L25.6576 59.3786L25.6617 59.3772L25.3405 58.4124ZM26.9313 57.8827L27.2525 58.8475L27.2528 58.8474L26.9313 57.8827ZM28.4326 56.3814L29.3973 56.7029L29.3974 56.7027L28.4326 56.3814ZM25.7897 50.603L26.7545 50.9243L26.755 50.9226L25.7897 50.603ZM26.1281 50.603L25.1628 50.9226L25.1633 50.9243L26.1281 50.603ZM26.4459 51.5573L25.4811 51.8786L25.4814 51.8794L26.4459 51.5573ZM27.3468 52.4582L27.0247 53.4227L27.0255 53.423L27.3468 52.4582ZM28.3012 52.7761L27.9799 53.7408L27.9815 53.7414L28.3012 52.7761ZM28.3012 53.1144L27.9815 52.1491L27.9799 52.1497L28.3012 53.1144ZM27.3468 53.4323L27.6672 54.3974L27.6682 54.397L27.3468 53.4323ZM26.4459 54.3332L27.4107 54.6545L27.411 54.6535L26.4459 54.3332ZM26.1281 55.2875L25.1633 54.9662L25.1628 54.9679L26.1281 55.2875ZM25.7897 55.2875L26.755 54.9679L26.7545 54.9662L25.7897 55.2875ZM25.4719 54.3332L24.5068 54.6535L24.5071 54.6545L25.4719 54.3332ZM24.5709 53.4323L24.2496 54.397L24.2506 54.3974L24.5709 53.4323ZM23.6166 53.1144L23.9379 52.1497L23.9363 52.1491L23.6166 53.1144ZM23.4944 52.9452H22.4776H23.4944ZM23.6166 52.7761L23.9363 53.7414L23.9379 53.7408L23.6166 52.7761ZM24.5709 52.4582L24.2506 51.4931L24.2496 51.4935L24.5709 52.4582ZM25.4719 51.5573L24.5071 51.236L24.5068 51.237L25.4719 51.5573ZM31.5953 49.7415L30.6344 49.4083L30.6302 49.421L31.5953 49.7415ZM31.7078 49.6614V50.6782V49.6614ZM31.8203 49.7415L32.7851 49.4199L32.7811 49.4084L31.8203 49.7415ZM32.0322 50.3771L32.9972 50.0564L32.9969 50.0556L32.0322 50.3771ZM32.6334 50.9783L32.9549 50.0136L32.9541 50.0133L32.6334 50.9783ZM33.269 51.1902L33.6022 50.2293L33.5906 50.2255L33.269 51.1902ZM33.269 51.4152L33.5906 52.38L33.6021 52.376L33.269 51.4152ZM32.6334 51.6271L32.3118 50.6624L32.3107 50.6628L32.6334 51.6271ZM32.0322 52.2283L31.0679 51.9056L31.0675 51.9067L32.0322 52.2283ZM31.8203 52.8639L32.7811 53.197L32.785 53.1855L31.8203 52.8639ZM31.5953 52.8639L30.6305 53.1855L30.6345 53.197L31.5953 52.8639ZM31.3834 52.2283L32.3481 51.9067L32.3477 51.9056L31.3834 52.2283ZM30.7822 51.6271L31.1049 50.6628L31.1042 50.6625L30.7822 51.6271ZM30.1474 51.4152L29.8143 52.376L29.8255 52.3798L30.1474 51.4152ZM30.1474 51.1902L29.8258 50.2254L29.8143 50.2294L30.1474 51.1902ZM30.7831 50.9783L30.4623 50.0133L30.4615 50.0136L30.7831 50.9783ZM31.3842 50.3771L32.3492 50.6978L32.3493 50.6976L31.3842 50.3771ZM29.927 55.1122C29.7083 55.7682 28.7797 55.7682 28.561 55.1122L30.4904 54.4691C30.091 53.271 28.397 53.271 27.9976 54.4691L29.927 55.1122ZM28.5609 55.1119L29.0906 56.7027L31.0202 56.0602L30.4905 54.4694L28.5609 55.1119ZM29.0908 56.7031C29.2573 57.2026 29.5379 57.6565 29.9103 58.0287L31.348 56.5902C31.199 56.4413 31.0867 56.2597 31.0201 56.0598L29.0908 56.7031ZM29.9103 58.0287C30.2828 58.4009 30.7368 58.6813 31.2364 58.8476L31.8786 56.9179C31.6787 56.8514 31.497 56.7392 31.348 56.5902L29.9103 58.0287ZM31.2361 58.8475L32.8261 59.3772L33.4689 57.4477L31.8789 56.918L31.2361 58.8475ZM32.8259 59.3771C32.1699 59.1584 32.1699 58.2298 32.8259 58.0112L33.4691 59.9405C34.6671 59.5412 34.6671 57.8471 33.4691 57.4478L32.8259 59.3771ZM32.8262 58.0111L31.2354 58.5408L31.878 60.4703L33.4688 59.9406L32.8262 58.0111ZM31.2351 58.5409C30.7355 58.7075 30.2817 58.9881 29.9094 59.3605L31.3479 60.7982C31.4968 60.6491 31.6785 60.5369 31.8783 60.4702L31.2351 58.5409ZM29.9094 59.3605C29.5372 59.7329 29.2569 60.187 29.0906 60.6866L31.0202 61.3288C31.0868 61.1289 31.199 60.9472 31.3479 60.7982L29.9094 59.3605ZM29.0907 60.6863L28.561 62.2762L30.4904 62.9191L31.0201 61.3291L29.0907 60.6863ZM28.5595 62.2806C28.6069 62.1364 28.6985 62.0108 28.8214 61.9218L30.0144 63.5689C30.2385 63.4066 30.4056 63.1776 30.4918 62.9147L28.5595 62.2806ZM28.8214 61.9218C28.9443 61.8328 29.0922 61.7848 29.244 61.7848V63.8185C29.5207 63.8185 29.7903 63.7312 30.0144 63.5689L28.8214 61.9218ZM29.244 61.7848C29.3958 61.7848 29.5436 61.8328 29.6666 61.9218L28.4736 63.5689C28.6977 63.7312 28.9673 63.8185 29.244 63.8185V61.7848ZM29.6666 61.9218C29.7895 62.0108 29.8811 62.1364 29.9285 62.2806L27.9961 62.9147C28.0824 63.1776 28.2495 63.4066 28.4736 63.5689L29.6666 61.9218ZM29.9271 62.2764L29.3974 60.6856L27.4678 61.3281L27.9975 62.9189L29.9271 62.2764ZM29.3973 60.6853C29.2308 60.1859 28.9504 59.7322 28.5782 59.36L27.1401 60.798C27.2891 60.947 27.4013 61.1285 27.4679 61.3284L29.3973 60.6853ZM28.5782 59.36C28.206 58.9877 27.7522 58.7073 27.2528 58.5409L26.6098 60.4703C26.8096 60.5369 26.9912 60.6491 27.1401 60.798L28.5782 59.36ZM27.2525 58.5408L25.6617 58.0111L25.0192 59.9406L26.61 60.4703L27.2525 58.5408ZM25.6576 58.0097C25.8018 58.057 25.9273 58.1487 26.0164 58.2716L24.3693 59.4645C24.5316 59.6886 24.7605 59.8557 25.0234 59.942L25.6576 58.0097ZM26.0164 58.2716C26.1054 58.3945 26.1533 58.5424 26.1533 58.6941H24.1196C24.1196 58.9708 24.207 59.2405 24.3693 59.4645L26.0164 58.2716ZM26.1533 58.6941C26.1533 58.8459 26.1054 58.9938 26.0164 59.1167L24.3693 57.9238C24.207 58.1478 24.1196 58.4175 24.1196 58.6941H26.1533ZM26.0164 59.1167C25.9273 59.2396 25.8018 59.3313 25.6576 59.3786L25.0234 57.4463C24.7605 57.5326 24.5316 57.6997 24.3693 57.9238L26.0164 59.1167ZM25.6617 59.3772L27.2525 58.8475L26.61 56.9179L25.0192 57.4477L25.6617 59.3772ZM27.2528 58.8474C27.7522 58.681 28.206 58.4006 28.5782 58.0283L27.1401 56.5903C26.9912 56.7392 26.8096 56.8514 26.6098 56.918L27.2528 58.8474ZM28.5782 58.0283C28.9504 57.6561 29.2308 57.2023 29.3973 56.7029L27.4679 56.0599C27.4013 56.2598 27.2891 56.4413 27.1401 56.5903L28.5782 58.0283ZM29.3974 56.7027L29.9271 55.1119L27.9975 54.4694L27.4678 56.0602L29.3974 56.7027ZM26.755 50.9226C26.6996 51.09 26.5929 51.2356 26.4499 51.3388L25.2592 49.6902C25.0555 49.8373 24.9034 50.0448 24.8244 50.2833L26.755 50.9226ZM26.4499 51.3388C26.307 51.4421 26.1352 51.4976 25.9589 51.4976V49.4639C25.7077 49.4639 25.4628 49.5431 25.2592 49.6902L26.4499 51.3388ZM25.9589 51.4976C25.7826 51.4976 25.6108 51.4421 25.4679 51.3388L26.6586 49.6902C26.455 49.5431 26.2101 49.4639 25.9589 49.4639V51.4976ZM25.4679 51.3388C25.3249 51.2356 25.2182 51.09 25.1628 50.9226L27.0934 50.2833C27.0144 50.0448 26.8623 49.8373 26.6586 49.6902L25.4679 51.3388ZM25.1633 50.9243L25.4812 51.8786L27.4107 51.236L27.0928 50.2817L25.1633 50.9243ZM25.4814 51.8794C25.7248 52.608 26.2961 53.1794 27.0247 53.4227L27.669 51.4937C27.5467 51.4529 27.4512 51.3574 27.4104 51.2352L25.4814 51.8794ZM27.0255 53.423L27.9799 53.7408L28.6225 51.8113L27.6682 51.4935L27.0255 53.423ZM27.9815 53.7414C27.8142 53.6859 27.6685 53.5792 27.5653 53.4363L29.214 52.2455C29.0669 52.0418 28.8593 51.8897 28.6208 51.8107L27.9815 53.7414ZM27.5653 53.4363C27.4621 53.2934 27.4065 53.1215 27.4065 52.9452H29.4402C29.4402 52.694 29.361 52.4492 29.214 52.2455L27.5653 53.4363ZM27.4065 52.9452C27.4065 52.7689 27.4621 52.5971 27.5653 52.4542L29.214 53.645C29.361 53.4413 29.4402 53.1965 29.4402 52.9452H27.4065ZM27.5653 52.4542C27.6685 52.3113 27.8142 52.2045 27.9815 52.1491L28.6208 54.0797C28.8593 54.0008 29.0669 53.8486 29.214 53.645L27.5653 52.4542ZM27.9799 52.1497L27.0255 52.4675L27.6682 54.397L28.6225 54.0792L27.9799 52.1497ZM27.0265 52.4672C26.6664 52.5867 26.3391 52.7887 26.0707 53.057L27.5088 54.4951C27.5532 54.4506 27.6075 54.4172 27.6672 54.3974L27.0265 52.4672ZM26.0707 53.057C25.8023 53.3254 25.6004 53.6527 25.4808 54.0129L27.411 54.6535C27.4308 54.5938 27.4643 54.5396 27.5088 54.4951L26.0707 53.057ZM25.4812 54.0119L25.1633 54.9662L27.0928 55.6088L27.4107 54.6545L25.4812 54.0119ZM25.1628 54.9679C25.2182 54.8005 25.3249 54.6549 25.4679 54.5516L26.6586 56.2003C26.8623 56.0532 27.0144 55.8457 27.0934 55.6072L25.1628 54.9679ZM25.4679 54.5516C25.6108 54.4484 25.7826 54.3928 25.9589 54.3928V56.4266C26.2101 56.4266 26.455 56.3474 26.6586 56.2003L25.4679 54.5516ZM25.9589 54.3928C26.1352 54.3928 26.307 54.4484 26.4499 54.5516L25.2592 56.2003C25.4628 56.3474 25.7077 56.4266 25.9589 56.4266V54.3928ZM26.4499 54.5516C26.5929 54.6549 26.6996 54.8005 26.755 54.9679L24.8244 55.6072C24.9034 55.8457 25.0555 56.0532 25.2592 56.2003L26.4499 54.5516ZM26.7545 54.9662L26.4366 54.0119L24.5071 54.6545L24.825 55.6088L26.7545 54.9662ZM26.437 54.0129C26.3174 53.6527 26.1155 53.3254 25.8471 53.057L24.409 54.4951C24.4535 54.5396 24.487 54.5938 24.5068 54.6535L26.437 54.0129ZM25.8471 53.057C25.5787 52.7887 25.2514 52.5867 24.8912 52.4672L24.2506 54.3974C24.3103 54.4172 24.3646 54.4506 24.409 54.4951L25.8471 53.057ZM24.8923 52.4675L23.9379 52.1497L23.2953 54.0792L24.2496 54.397L24.8923 52.4675ZM23.9363 52.1491C24.1036 52.2045 24.2493 52.3113 24.3525 52.4542L22.7038 53.645C22.8509 53.8486 23.0585 54.0008 23.297 54.0797L23.9363 52.1491ZM24.3525 52.4542C24.4557 52.5971 24.5113 52.7689 24.5113 52.9452H22.4776C22.4776 53.1965 22.5567 53.4413 22.7038 53.645L24.3525 52.4542ZM24.5113 52.9452C24.5113 53.1215 24.4557 53.2934 24.3525 53.4363L22.7038 52.2455C22.5567 52.4492 22.4776 52.694 22.4776 52.9452H24.5113ZM24.3525 53.4363C24.2493 53.5792 24.1036 53.686 23.9363 53.7414L23.297 51.8107C23.0585 51.8897 22.8509 52.0418 22.7038 52.2455L24.3525 53.4363ZM23.9379 53.7408L24.8923 53.423L24.2496 51.4935L23.2953 51.8113L23.9379 53.7408ZM24.8912 53.4233C25.2514 53.3038 25.5787 53.1018 25.8471 52.8334L24.409 51.3954C24.3646 51.4398 24.3103 51.4733 24.2506 51.4931L24.8912 53.4233ZM25.8471 52.8334C26.1155 52.5651 26.3174 52.2378 26.437 51.8776L24.5068 51.237C24.487 51.2967 24.4535 51.3509 24.409 51.3954L25.8471 52.8334ZM26.4366 51.8786L26.7545 50.9243L24.825 50.2817L24.5071 51.236L26.4366 51.8786ZM32.5561 50.0745C32.4949 50.2508 32.3804 50.4037 32.2284 50.5119L31.0491 48.855C30.8568 48.9919 30.7119 49.1853 30.6345 49.4084L32.5561 50.0745ZM32.2284 50.5119C32.0764 50.6201 31.8944 50.6782 31.7078 50.6782V48.6445C31.4717 48.6445 31.2415 48.7181 31.0491 48.855L32.2284 50.5119ZM31.7078 50.6782C31.5212 50.6782 31.3393 50.6201 31.1872 50.5119L32.3665 48.855C32.1741 48.7181 31.9439 48.6445 31.7078 48.6445V50.6782ZM31.1872 50.5119C31.0352 50.4037 30.9207 50.2508 30.8596 50.0745L32.7811 49.4084C32.7037 49.1853 32.5588 48.9919 32.3665 48.855L31.1872 50.5119ZM30.8556 50.063L31.0675 50.6987L32.9969 50.0556L32.785 49.4199L30.8556 50.063ZM31.0673 50.6978C31.2628 51.2863 31.7242 51.7477 32.3127 51.9432L32.9541 50.0133C32.9743 50.02 32.9905 50.0362 32.9972 50.0564L31.0673 50.6978ZM32.3118 51.943L32.9475 52.1549L33.5906 50.2255L32.9549 50.0136L32.3118 51.943ZM32.936 52.1509C32.7597 52.0898 32.6068 51.9753 32.4986 51.8233L34.1555 50.644C34.0186 50.4517 33.8252 50.3068 33.6021 50.2294L32.936 52.1509ZM32.4986 51.8233C32.3904 51.6712 32.3323 51.4893 32.3323 51.3027H34.366C34.366 51.0666 34.2924 50.8364 34.1555 50.644L32.4986 51.8233ZM32.3323 51.3027C32.3323 51.1161 32.3904 50.9341 32.4986 50.7821L34.1555 51.9614C34.2924 51.769 34.366 51.5388 34.366 51.3027H32.3323ZM32.4986 50.7821C32.6068 50.6301 32.7597 50.5156 32.936 50.4544L33.6021 52.376C33.8252 52.2986 34.0186 52.1537 34.1555 51.9614L32.4986 50.7821ZM32.9475 50.4505L32.3118 50.6624L32.9549 52.5918L33.5906 52.3799L32.9475 50.4505ZM32.3107 50.6628C32.0215 50.7596 31.7587 50.9222 31.543 51.1379L32.981 52.5759C32.974 52.583 32.9655 52.5883 32.956 52.5914L32.3107 50.6628ZM31.543 51.1379C31.3273 51.3535 31.1647 51.6164 31.0679 51.9056L32.9965 52.5509C32.9934 52.5603 32.9881 52.5689 32.981 52.5759L31.543 51.1379ZM31.0675 51.9067L30.8556 52.5424L32.785 53.1855L32.9969 52.5498L31.0675 51.9067ZM30.8596 52.5308C30.9207 52.3545 31.0352 52.2017 31.1872 52.0935L32.3665 53.7504C32.5588 53.6135 32.7037 53.4201 32.7811 53.197L30.8596 52.5308ZM31.1872 52.0935C31.3393 51.9853 31.5212 51.9271 31.7078 51.9271V53.9609C31.9439 53.9609 32.1741 53.8873 32.3665 53.7504L31.1872 52.0935ZM31.7078 51.9271C31.8944 51.9271 32.0764 51.9853 32.2284 52.0935L31.0491 53.7504C31.2415 53.8873 31.4717 53.9609 31.7078 53.9609V51.9271ZM32.2284 52.0935C32.3804 52.2017 32.4949 52.3545 32.5561 52.5308L30.6345 53.197C30.7119 53.4201 30.8568 53.6135 31.0491 53.7504L32.2284 52.0935ZM32.56 52.5424L32.3481 51.9067L30.4187 52.5498L30.6306 53.1855L32.56 52.5424ZM32.3477 51.9056C32.2509 51.6164 32.0883 51.3535 31.8726 51.1379L30.4346 52.5759C30.4275 52.5689 30.4222 52.5603 30.4191 52.5509L32.3477 51.9056ZM31.8726 51.1379C31.657 50.9222 31.3941 50.7596 31.1049 50.6628L30.4596 52.5914C30.4502 52.5883 30.4416 52.583 30.4346 52.5759L31.8726 51.1379ZM31.1042 50.6625L30.4693 50.4507L29.8255 52.3798L30.4603 52.5917L31.1042 50.6625ZM30.4805 50.4544C30.6568 50.5156 30.8096 50.6301 30.9178 50.7821L29.2609 51.9614C29.3978 52.1537 29.5912 52.2986 29.8143 52.376L30.4805 50.4544ZM30.9178 50.7821C31.026 50.9341 31.0842 51.1161 31.0842 51.3027H29.0505C29.0505 51.5388 29.124 51.769 29.2609 51.9614L30.9178 50.7821ZM31.0842 51.3027C31.0842 51.4893 31.026 51.6712 30.9178 51.8233L29.2609 50.644C29.124 50.8364 29.0505 51.0666 29.0505 51.3027H31.0842ZM30.9178 51.8233C30.8096 51.9753 30.6568 52.0898 30.4805 52.1509L29.8143 50.2294C29.5912 50.3068 29.3978 50.4517 29.2609 50.644L30.9178 51.8233ZM30.4689 52.1549L31.1046 51.943L30.4615 50.0136L29.8258 50.2255L30.4689 52.1549ZM31.1038 51.9432C31.6923 51.7477 32.1536 51.2863 32.3492 50.6978L30.4193 50.0564C30.426 50.0362 30.4422 50.02 30.4623 50.0133L31.1038 51.9432ZM32.3493 50.6976L32.5603 50.0619L30.6302 49.421L30.4192 50.0567L32.3493 50.6976Z" fill="url(#paint1_linear_1969_11288)" mask="url(#path-3-inside-1_1969_11288)"/>
</g>
</g>
<defs>
<linearGradient id="paint0_linear_1969_11288" x1="36.8527" y1="0.499512" x2="36.8527" y2="74.5005" gradientUnits="userSpaceOnUse">
<stop stop-color="#9E52FF"/>
<stop offset="1" stop-color="#6981FF"/>
</linearGradient>
<linearGradient id="paint1_linear_1969_11288" x1="28.4226" y1="49.6614" x2="28.4226" y2="62.8017" gradientUnits="userSpaceOnUse">
<stop stop-color="#9E52FF"/>
<stop offset="1" stop-color="#6981FF"/>
</linearGradient>
<clipPath id="clip0_1969_11288">
<rect width="74.001" height="74.001" fill="white" transform="translate(-0.148438 0.499512)"/>
</clipPath>
<clipPath id="clip1_1969_11288">
<rect width="13.1404" height="13.1404" fill="white" transform="translate(22.6743 49.6604)"/>
</clipPath>
</defs>
</svg>
