<svg width="39" height="38" viewBox="0 0 39 38" fill="none" xmlns="http://www.w3.org/2000/svg">
<path d="M27.9214 28.7618C27.7624 29.4627 27.6807 29.8895 27.3409 30.3606C27.1146 30.6747 26.7437 30.8551 26.3658 30.8096C26.0375 30.7703 25.7196 30.6257 25.3999 30.4993C21.7033 29.0375 18.7201 26.4637 15.7061 23.9372C14.9877 23.3351 13.4718 21.9409 12.6108 21.2085C14.7069 19.686 15.5745 18.7444 15.5745 18.7444C18.9521 21.7571 22.89 25.2841 26.9997 27.0482C27.6546 27.3294 28.2674 27.2382 27.9214 28.7619M23.7442 17.4386C22.7933 16.6665 21.1302 15.3848 20.1913 14.6407C17.8055 12.7498 15.2609 11.1718 12.3419 10.2726C10.7609 9.78561 10.5532 8.15285 11.7485 6.71059C11.9658 6.4484 12.3055 6.2764 12.6336 6.34695C18.0702 7.51639 22.1845 10.939 26.766 15.2587C25.2159 16.1001 23.7441 17.4385 23.7441 17.4385" fill="currentColor"/>
<path d="M20.4689 21.4926C23.8636 17.9626 30.4547 13.6972 33.7785 13.5404C33.9695 13.5314 34.1594 13.575 34.3285 13.6667C34.4975 13.7583 34.6397 13.8948 34.7402 14.0619C35.0676 14.6075 35.1734 15.2608 35.2712 15.9032C35.3656 16.5239 35.0506 17.0537 34.4776 17.2186C30.5066 18.3614 26.65 21.1399 23.5197 23.7928C22.4668 23.2819 20.4689 21.4927 20.4689 21.4927M18.6161 14.8083C14.7164 18.1537 10.4851 22.1449 5.91067 23.5739C5.52457 23.6947 5.09827 23.5951 4.8204 23.2942C4.44675 22.8894 4.30362 22.4726 4.15224 22.0672C3.62288 20.6505 3.77291 20.2361 5.14315 19.6944C8.35947 18.4224 11.0356 16.3084 13.6248 14.0488C14.0168 13.7067 14.7946 13.0497 15.2235 12.6874C16.6419 13.078 18.6161 14.8083 18.6161 14.8083ZM11.5906 27.1519C12.7088 26.5631 14.4305 25.8682 15.5527 25.2204C16.4594 26.0416 18.5586 27.6778 18.5586 27.6778C17.0365 28.7233 14.6088 30.2798 12.9188 30.7288C12.5102 30.8373 12.0764 30.6739 11.8183 30.3309C11.3242 29.674 11.0384 28.9766 11.0139 28.1466C11.0016 27.7303 11.2299 27.3418 11.5906 27.1519ZM20.6578 8.82478C22.6564 7.58289 24.9051 6.65018 26.446 6.31149C26.8697 6.2184 27.3126 6.40851 27.5451 6.78418C27.9873 7.49854 28.1711 8.21619 28.126 9.00134C28.1038 9.38867 27.8947 9.74014 27.5633 9.92595C26.5967 10.4684 24.875 10.8913 23.8855 11.335C23.8855 11.335 22.1405 9.82273 20.6578 8.82478Z" fill="currentColor"/>
<path d="M32.5479 19.0853C35.247 20.1624 36.2426 20.5275 34.2735 23.3221C34.0426 23.6497 33.6759 23.6518 33.2927 23.5588C32.0646 23.2608 29.8853 21.9705 28.6789 21.2496C30.9026 19.6692 32.5479 19.0853 32.5479 19.0853ZM6.97693 17.8332C6.31037 17.6374 5.04221 17.4308 4.46145 17.0675C4.19887 16.9032 4.02233 16.6172 3.98473 16.3037C3.88931 15.5113 4.0873 14.7977 4.46342 14.0796C4.56437 13.8874 4.71878 13.7306 4.90691 13.629C5.09505 13.5274 5.30838 13.4858 5.51967 13.5094C6.81396 13.657 9.15304 14.662 10.4193 15.2569C8.58547 16.9918 6.97693 17.8332 6.97693 17.8332Z" fill="currentColor"/>
</svg>
