<svg width="28" height="28" viewBox="0 0 28 28" fill="none" xmlns="http://www.w3.org/2000/svg">
<path d="M24.9475 18.7897V8.5265L16.3948 3.71582M11.6054 3.71582L3.05273 8.5265V18.7897M5.10537 21.9972L14.0001 27.0002L19.4738 23.9212L22.8948 21.9966M14.0001 9.89493V5.10545M18.1054 16.737L22.8948 19.4739M9.89484 16.737L5.10537 19.4739M11.9475 11.0923L9.89484 12.2897V17.0791L11.9475 18.2765L14.0001 19.4739L16.0527 18.2765L18.1054 17.0791V12.2897L16.0527 11.0923L14.0001 9.89493L11.9475 11.0923Z" stroke="currentColor" stroke-linecap="round" stroke-linejoin="round"/>
<path d="M13.9999 5.10526C15.1335 5.10526 16.0525 4.18627 16.0525 3.05263C16.0525 1.91899 15.1335 1 13.9999 1C12.8663 1 11.9473 1.91899 11.9473 3.05263C11.9473 4.18627 12.8663 5.10526 13.9999 5.10526Z" stroke="currentColor" stroke-linecap="round" stroke-linejoin="round"/>
<path d="M3.05263 22.8948C4.18627 22.8948 5.10526 21.9758 5.10526 20.8422C5.10526 19.7085 4.18627 18.7896 3.05263 18.7896C1.91899 18.7896 1 19.7085 1 20.8422C1 21.9758 1.91899 22.8948 3.05263 22.8948Z" stroke="currentColor" stroke-linecap="round" stroke-linejoin="round"/>
<path d="M24.9472 22.8948C26.0808 22.8948 26.9998 21.9758 26.9998 20.8422C26.9998 19.7085 26.0808 18.7896 24.9472 18.7896C23.8135 18.7896 22.8945 19.7085 22.8945 20.8422C22.8945 21.9758 23.8135 22.8948 24.9472 22.8948Z" stroke="currentColor" stroke-linecap="round" stroke-linejoin="round"/>
</svg>
