<svg width="39" height="38" viewBox="0 0 39 38" fill="none" xmlns="http://www.w3.org/2000/svg">
<path d="M23.159 14.9504C23.0404 14.9504 22.9608 14.8287 23.0084 14.7201L26.808 6.0351C27.1883 5.16588 26.5515 4.19214 25.6027 4.19214H12.6823C12.0929 4.19214 11.5754 4.58416 11.4158 5.15157L6.96948 20.9607C6.85146 21.3803 7.16681 21.7966 7.60272 21.7966H13.3249C13.7416 21.7966 14.0533 22.179 13.9692 22.5871L11.8784 32.7425C11.7944 33.1505 12.1061 33.5329 12.5227 33.5329H13.8429C14.0271 33.5329 14.2029 33.4557 14.3275 33.32L29.1672 17.1558C29.9417 16.3122 29.3433 14.9504 28.1981 14.9504H23.159ZM13.5472 32.5455C13.4734 32.6249 13.3699 32.67 13.2616 32.67C13.0109 32.67 12.8253 32.4368 12.8817 32.1925L15.3471 21.5093C15.4422 21.0971 15.1291 20.7035 14.7061 20.7035H9.05982C8.61721 20.7035 8.3009 20.2752 8.43113 19.8522L12.6286 6.21654C12.7136 5.94056 12.9686 5.75226 13.2573 5.75226H24.5008C24.9733 5.75226 25.2917 6.23547 25.1053 6.66959L21.4498 15.1837C21.2635 15.6178 21.5819 16.1011 22.0543 16.1011H28.823L13.5472 32.5455Z" fill="currentColor" stroke="currentColor" stroke-width="1.04789"/>
</svg>
