<svg width="36" height="32" viewBox="0 0 36 32" fill="none" xmlns="http://www.w3.org/2000/svg">
<g clip-path="url(#clip0_827_18277)">
<path d="M35.6096 19.4426L30.4147 16.5105V9.94555C30.4144 9.74738 30.3606 9.55286 30.2589 9.38189C30.1572 9.21093 30.0112 9.06966 29.8359 8.97256L23.6619 5.48321C23.4894 5.38505 23.2936 5.33337 23.0944 5.33337C22.8952 5.33337 22.6995 5.38505 22.527 5.48321L16.3529 8.97256C16.1776 9.06966 16.0317 9.21093 15.93 9.38189C15.8283 9.55286 15.7745 9.74738 15.7741 9.94555V16.2756L10.1676 19.4406C9.99438 19.5391 9.85068 19.681 9.75103 19.8519C9.65138 20.0228 9.59931 20.2165 9.60011 20.4136V27.3923C9.6013 27.5875 9.65431 27.7789 9.75386 27.9477C9.85341 28.1164 9.99604 28.2565 10.1676 28.3541L16.3529 31.8435C16.5255 31.9416 16.7212 31.9933 16.9204 31.9933C17.1196 31.9933 17.3153 31.9416 17.4879 31.8435L23.1058 28.6784L28.7237 31.8435C28.8955 31.944 29.0913 31.998 29.2911 32C29.4871 31.9961 29.6787 31.9421 29.8473 31.8435L35.6189 28.3541C35.7905 28.2565 35.9331 28.1164 36.0326 27.9477C36.1322 27.7789 36.1852 27.5875 36.1864 27.3923L36.1885 20.4156C36.1881 20.2174 36.1343 20.0229 36.0326 19.8519C35.9309 19.6809 35.785 19.5397 35.6096 19.4426ZM23.0944 7.74234L28.1449 10.5942V16.5552L23.0831 19.4182L18.044 16.5105V10.5942L23.0944 7.74234ZM16.9091 29.5843L11.87 26.7436V21.0287L17.1814 18.0315L22.1751 20.9057V26.6206L16.9091 29.5843ZM34.2848 26.7436L29.2457 29.5843L23.991 26.6206V20.9504L29.0528 18.0762L34.2848 21.0287V26.7436Z" fill="white"/>
<path d="M5.93764 26.0741C5.63604 26.0741 5.34679 25.9576 5.13352 25.7502C4.92026 25.5427 4.80045 25.2614 4.80045 24.968V17.7454C4.79351 17.5449 4.84275 17.3464 4.94291 17.171C5.04307 16.9957 5.19037 16.8501 5.36904 16.7499L10.9981 13.6197V7.39252C10.9973 7.19762 11.0495 7.00598 11.1493 6.83699C11.2492 6.66801 11.3932 6.52769 11.5667 6.43024L17.4915 3.11201C17.6212 3.03888 17.7646 2.99144 17.9134 2.97244C18.0621 2.95343 18.2132 2.96323 18.358 3.00127C18.5028 3.03931 18.6384 3.10484 18.7571 3.19408C18.8758 3.28332 18.9751 3.39452 19.0494 3.52126C19.1241 3.64816 19.1722 3.78822 19.191 3.93332C19.2097 4.07843 19.1986 4.2257 19.1584 4.36663C19.1182 4.50755 19.0497 4.63932 18.9568 4.75432C18.8639 4.86931 18.7485 4.96525 18.6173 5.03658L13.2725 8.00086V14.2612C13.2721 14.4572 13.2183 14.6496 13.1164 14.8187C13.0145 14.9878 12.8682 15.1275 12.6925 15.2235L7.07482 18.3869V24.968C7.07482 25.2614 6.95501 25.5427 6.74175 25.7502C6.52848 25.9576 6.23924 26.0741 5.93764 26.0741Z" fill="white"/>
<path d="M1.12911 23.1111C0.829649 23.1111 0.542456 22.9945 0.330708 22.7868C0.118959 22.5792 0 22.2976 0 22.0039V14.785C0.00118937 14.5917 0.0539249 14.4022 0.152965 14.2351C0.252006 14.0681 0.393902 13.9294 0.564553 13.8328L6.21009 10.6883V4.42155C6.21128 4.22833 6.26401 4.03878 6.36305 3.87173C6.46209 3.70469 6.60399 3.56597 6.77464 3.46936L12.7024 0.147752C12.963 0.000928194 13.2723 -0.0383958 13.5624 0.0384313C13.8525 0.115258 14.0996 0.301943 14.2493 0.557417C14.3991 0.812891 14.4392 1.11623 14.3608 1.40069C14.2825 1.68516 14.0921 1.92746 13.8316 2.07428L8.41184 5.06373V11.3305C8.4115 11.5267 8.358 11.7193 8.25682 11.8885C8.15563 12.0578 8.01041 12.1976 7.836 12.2938L2.25821 15.4271V22.0039C2.25821 22.2976 2.13925 22.5792 1.92751 22.7868C1.71576 22.9945 1.42856 23.1111 1.12911 23.1111Z" fill="white"/>
</g>
<defs>
<clipPath id="clip0_827_18277">
<rect width="36" height="32" fill="white"/>
</clipPath>
</defs>
</svg>
