<svg width="38" height="38" viewBox="0 0 38 38" fill="none" xmlns="http://www.w3.org/2000/svg">
<path d="M32.8959 11.1521C32.5892 10.6147 32.1456 10.1681 31.6103 9.85762H31.6069H31.6592L21.1807 3.59841C20.6469 3.30015 20.0457 3.14355 19.4342 3.14355C18.8228 3.14355 18.2215 3.30015 17.6878 3.59841L7.20919 9.85588C6.1002 10.4724 5.41211 11.6442 5.41211 12.9174V24.367C5.41229 24.9908 5.57894 25.6032 5.89485 26.1411C6.21075 26.679 6.66448 27.1228 7.20919 27.4267L17.6878 34.14C18.2066 34.4281 18.7902 34.5793 19.3836 34.5793C19.977 34.5793 20.5606 34.4281 21.0794 34.14L31.558 27.4267C32.6687 26.8085 33.3568 25.6366 33.3568 24.3652V12.9174C33.3617 12.2986 33.2027 11.6896 32.8959 11.1521ZM32.8959 11.1521L26.3711 15.3694M19.3853 26.7212V34.5801M6.28707 11.0033L12.3996 15.3694" stroke="currentColor" stroke-width="1.88613" stroke-linecap="round" stroke-linejoin="round"/>
<path d="M19.3842 11.0029V18.8619M19.3842 18.8619L12.3984 22.3547M19.3842 18.8619L26.3699 22.3547" stroke="currentColor" stroke-width="1.88613" stroke-linecap="round" stroke-linejoin="round"/>
<path d="M19.3842 26.7208L26.3699 22.3547V15.369L19.3842 11.0029L12.3984 15.369V22.3547L19.3842 26.7208Z" stroke="currentColor" stroke-width="1.88613" stroke-linecap="round" stroke-linejoin="round"/>
</svg>
