<svg width="38" height="38" viewBox="0 0 38 38" fill="none" xmlns="http://www.w3.org/2000/svg">
<path d="M33.4233 25.0605V12.5347C33.4227 11.9856 33.2778 11.4462 33.003 10.9708C32.7282 10.4954 32.3331 10.1006 31.8576 9.82599L20.8975 3.56309C20.4215 3.28825 19.8815 3.14355 19.3318 3.14355C18.7821 3.14355 18.2421 3.28825 17.766 3.56309L6.80596 9.82599C6.33039 10.1006 5.93539 10.4954 5.66057 10.9708C5.38576 11.4462 5.2408 11.9856 5.24023 12.5347V25.0605C5.2408 25.6097 5.38576 26.149 5.66057 26.6244C5.93539 27.0998 6.33039 27.4946 6.80596 27.7692L17.766 34.0321C18.2421 34.307 18.7821 34.4517 19.3318 34.4517C19.8815 34.4517 20.4215 34.307 20.8975 34.0321L31.8576 27.7692C32.3331 27.4946 32.7282 27.0998 33.003 26.6244C33.2778 26.149 33.4227 25.6097 33.4233 25.0605Z" stroke="currentColor" stroke-width="1.88613" stroke-linecap="round" stroke-linejoin="round"/>
<path d="M12.2871 6.60059L19.3329 10.6715L26.3786 6.60059" stroke="currentColor" stroke-width="1.88613" stroke-linecap="round" stroke-linejoin="round"/>
<path d="M12.286 30.9946V22.8685L5.24023 18.7976" stroke="currentColor" stroke-width="1.88613" stroke-linecap="round" stroke-linejoin="round"/>
<path d="M33.4227 18.7979L26.377 22.8687V30.9949" stroke="currentColor" stroke-width="1.88613" stroke-linecap="round" stroke-linejoin="round"/>
<path d="M5.66211 10.9062L19.3309 18.8132L32.9997 10.9062" stroke="currentColor" stroke-width="1.88613" stroke-linecap="round" stroke-linejoin="round"/>
<path d="M19.332 34.5804V18.7979" stroke="currentColor" stroke-width="1.88613" stroke-linecap="round" stroke-linejoin="round"/>
</svg>
