<svg width="34" height="34" viewBox="0 0 34 34" fill="none" xmlns="http://www.w3.org/2000/svg">
<path fill-rule="evenodd" clip-rule="evenodd" d="M26.265 7.735C25.055 6.48814 23.6092 5.49434 22.0116 4.81142C20.414 4.1285 18.6966 3.77008 16.9592 3.75704C15.2218 3.74399 13.4992 4.07657 11.8916 4.73542C10.2839 5.39427 8.82331 6.36624 7.59476 7.59479C6.36622 8.82333 5.39424 10.2839 4.73539 11.8916C4.07654 13.4992 3.74396 15.2219 3.75701 16.9592C3.77006 18.6966 4.12847 20.4141 4.81139 22.0116C5.49432 23.6092 6.48812 25.055 7.73497 26.265C10.2046 28.6616 13.518 29.9905 16.9592 29.9646C20.4005 29.9388 23.6934 28.5603 26.1269 26.1269C28.5603 23.6935 29.9388 20.4005 29.9646 16.9592C29.9904 13.518 28.6616 10.2047 26.265 7.735ZM6.23331 6.2305C12.1791 0.283333 21.8209 0.283334 27.7666 6.23192C33.7138 12.1791 33.7138 21.8209 27.7666 27.7681C21.8195 33.7152 12.1791 33.7167 6.23331 27.7681C0.283307 21.8209 0.283307 12.1791 6.23189 6.23333L6.23331 6.2305ZM11.2412 9.73533C11.34 9.834 11.4183 9.95116 11.4717 10.0801C11.5252 10.2091 11.5527 10.3473 11.5527 10.4869C11.5527 10.6265 11.5252 10.7647 11.4717 10.8936C11.4183 11.0226 11.34 11.1397 11.2412 11.2384C10.4848 11.9948 9.88469 12.8928 9.47529 13.8812C9.06589 14.8695 8.85517 15.9288 8.85517 16.9986C8.85517 18.0684 9.06589 19.1276 9.47529 20.116C9.88469 21.1043 10.4848 22.0023 11.2412 22.7587C11.3456 22.856 11.4293 22.9733 11.4874 23.1037C11.5455 23.234 11.5767 23.3747 11.5792 23.5173C11.5817 23.66 11.5555 23.8017 11.5021 23.934C11.4486 24.0663 11.3691 24.1865 11.2682 24.2874C11.1673 24.3883 11.0471 24.4678 10.9148 24.5213C10.7825 24.5747 10.6408 24.6009 10.4981 24.5984C10.3555 24.5959 10.2148 24.5647 10.0845 24.5066C9.95413 24.4485 9.83683 24.3648 9.73956 24.2604C7.81342 22.3343 6.73133 19.7219 6.73133 16.9979C6.73133 14.2739 7.81342 11.6615 9.73956 9.73533C9.93878 9.53636 10.2088 9.4246 10.4904 9.4246C10.772 9.4246 11.042 9.53636 11.2412 9.73533ZM22.7616 9.73533C22.9608 9.53636 23.2308 9.4246 23.5124 9.4246C23.794 9.4246 24.064 9.53636 24.2632 9.73533C26.1894 11.6615 27.2714 14.2739 27.2714 16.9979C27.2714 19.7219 26.1894 22.3343 24.2632 24.2604C24.166 24.3648 24.0486 24.4485 23.9183 24.5066C23.788 24.5647 23.6473 24.5959 23.5046 24.5984C23.362 24.6009 23.2203 24.5747 23.088 24.5213C22.9557 24.4678 22.8355 24.3883 22.7346 24.2874C22.6337 24.1865 22.5542 24.0663 22.5007 23.934C22.4473 23.8017 22.421 23.66 22.4236 23.5173C22.4261 23.3747 22.4573 23.234 22.5154 23.1037C22.5734 22.9733 22.6572 22.856 22.7616 22.7587C23.518 22.0023 24.1181 21.1043 24.5275 20.116C24.9369 19.1276 25.1476 18.0684 25.1476 16.9986C25.1476 15.9288 24.9369 14.8695 24.5275 13.8812C24.1181 12.8928 23.518 11.9948 22.7616 11.2384C22.5626 11.0392 22.4508 10.7691 22.4508 10.4876C22.4508 10.206 22.5626 9.93455 22.7616 9.73533ZM17 13.8125C16.1546 13.8125 15.3438 14.1483 14.7461 14.7461C14.1483 15.3439 13.8125 16.1546 13.8125 17C13.8125 17.8454 14.1483 18.6561 14.7461 19.2539C15.3438 19.8517 16.1546 20.1875 17 20.1875C17.8454 20.1875 18.6561 19.8517 19.2539 19.2539C19.8516 18.6561 20.1875 17.8454 20.1875 17C20.1875 16.1546 19.8516 15.3439 19.2539 14.7461C18.6561 14.1483 17.8454 13.8125 17 13.8125ZM11.6875 17C11.6875 15.591 12.2472 14.2398 13.2435 13.2435C14.2398 12.2472 15.591 11.6875 17 11.6875C18.4089 11.6875 19.7602 12.2472 20.7565 13.2435C21.7528 14.2398 22.3125 15.591 22.3125 17C22.3125 18.409 21.7528 19.7602 20.7565 20.7565C19.7602 21.7528 18.4089 22.3125 17 22.3125C15.591 22.3125 14.2398 21.7528 13.2435 20.7565C12.2472 19.7602 11.6875 18.409 11.6875 17Z" fill="currentColor"/>
</svg>
