<svg width="76" height="65" viewBox="0 0 76 65" fill="none" xmlns="http://www.w3.org/2000/svg">
<path d="M45.6883 3.34018L35.3823 28.222C35.3823 28.222 64.5738 23.061 64.5738 37.9199C64.5738 45.4339 52.8313 53.2598 41.8927 55.2878C31.0991 57.4848 21.4257 57.1598 21.1094 50.2828C21.1094 46.6818 27.6198 43.0809 33.3264 47.3058C37.9258 50.5948 50.6172 51.5308 52.0537 41.2089C52.8445 33.8509 40.3112 28.534 19.2116 34.4749L28.7269 10.5291L45.6883 3.34018ZM17.4456 0.675199C22.3614 -0.884789 26.9609 0.363201 28.0811 3.34018C29.1881 6.47315 26.0252 10.0741 21.0962 11.6341C16.1673 13.1941 11.581 11.9461 10.4608 8.96914C9.51187 5.84916 12.688 2.09219 17.4456 0.675199ZM9.03743 22.281L1.57811 25.258L3.15959 21.501L25.2081 12.2711L15.851 35.7489C15.851 35.7489 -0.649147 41.3779 1.57811 57.0298C-2.70507 52.0118 2.38203 36.5159 9.03743 22.281ZM23.3235 64.9987C6.9815 64.8427 1.27499 57.9528 5.08373 49.1908C8.89246 40.1169 21.9001 36.5159 29.6758 36.0479C37.4514 35.5799 48.7194 35.4239 47.5992 42.3139C46.6503 47.3188 40.4562 46.8508 35.8567 44.5109C32.8387 42.7949 29.3463 42.1579 26.0252 42.7949C25.867 42.7949 16.6681 43.7309 16.3518 51.4008C15.561 67.6767 55.3748 58.1348 76 44.1989C66.6297 51.2318 47.4411 65.1547 23.3235 64.9987Z" fill="black"/>
</svg>
