<svg width="10" height="10" viewBox="0 0 10 10" fill="none" xmlns="http://www.w3.org/2000/svg">
<path d="M4.5835 7.08301H5.41683V4.58301H4.5835V7.08301ZM5.00016 3.74967C5.11822 3.74967 5.21725 3.70967 5.29725 3.62967C5.37725 3.54967 5.41711 3.45079 5.41683 3.33301C5.41683 3.21495 5.37683 3.11592 5.29683 3.03592C5.21683 2.95592 5.11794 2.91606 5.00016 2.91634C4.88211 2.91634 4.78308 2.95634 4.70308 3.03634C4.62308 3.11634 4.58322 3.21523 4.5835 3.33301C4.5835 3.45106 4.6235 3.55009 4.7035 3.63009C4.7835 3.71009 4.88238 3.74995 5.00016 3.74967ZM5.00016 9.16634C4.42377 9.16634 3.88211 9.0569 3.37516 8.83801C2.86822 8.61912 2.42725 8.32231 2.05225 7.94759C1.67725 7.57259 1.38044 7.13162 1.16183 6.62467C0.943218 6.11773 0.833774 5.57606 0.833496 4.99967C0.833496 4.42329 0.942941 3.88162 1.16183 3.37467C1.38072 2.86773 1.67752 2.42676 2.05225 2.05176C2.42725 1.67676 2.86822 1.37995 3.37516 1.16134C3.88211 0.94273 4.42377 0.833286 5.00016 0.833008C5.57655 0.833008 6.11822 0.942452 6.62516 1.16134C7.13211 1.38023 7.57308 1.67704 7.94808 2.05176C8.32308 2.42676 8.62002 2.86773 8.83891 3.37467C9.0578 3.88162 9.16711 4.42329 9.16683 4.99967C9.16683 5.57606 9.05739 6.11773 8.8385 6.62467C8.61961 7.13162 8.3228 7.57259 7.94808 7.94759C7.57308 8.32259 7.13211 8.61953 6.62516 8.83842C6.11822 9.05731 5.57655 9.16662 5.00016 9.16634ZM5.00016 8.33301C5.93072 8.33301 6.71891 8.01009 7.36475 7.36426C8.01058 6.71842 8.3335 5.93023 8.3335 4.99967C8.3335 4.06912 8.01058 3.28092 7.36475 2.63509C6.71891 1.98926 5.93072 1.66634 5.00016 1.66634C4.06961 1.66634 3.28141 1.98926 2.63558 2.63509C1.98975 3.28092 1.66683 4.06912 1.66683 4.99967C1.66683 5.93023 1.98975 6.71842 2.63558 7.36426C3.28141 8.01009 4.06961 8.33301 5.00016 8.33301Z" fill="currentColor"/>
</svg>
