<svg width="46" height="36" viewBox="0 0 46 36" fill="none" xmlns="http://www.w3.org/2000/svg">
<g clip-path="url(#clip0_347_3073)">
<path d="M35.1424 32.8752C34.9106 33.8969 34.7914 34.519 34.2962 35.2056C33.9663 35.6635 33.4256 35.9264 32.8749 35.8601C32.3964 35.8028 31.933 35.592 31.467 35.4078C26.0789 33.2771 21.7307 29.5256 17.3375 25.843C16.2905 24.9654 14.0808 22.9333 12.8259 21.8657C15.8811 19.6466 17.1458 18.2742 17.1458 18.2742C22.0688 22.6654 27.8086 27.8062 33.7989 30.3776C34.7534 30.7874 35.6466 30.6545 35.1424 32.8754M29.0537 16.3708C27.6677 15.2454 25.2436 13.3772 23.8751 12.2926C20.3976 9.53651 16.6886 7.23639 12.434 5.9258C10.1295 5.21595 9.82674 2.83608 11.569 0.733862C11.8858 0.351708 12.3808 0.101 12.8591 0.203831C20.7834 1.90838 26.7803 6.89706 33.4582 13.1934C31.1988 14.4198 29.0535 16.3706 29.0535 16.3706" fill="#9B51E0"/>
<path d="M24.28 22.2794C29.2281 17.1342 38.8351 10.9171 43.6798 10.6885C43.9582 10.6754 44.2349 10.7389 44.4813 10.8725C44.7278 11.0062 44.935 11.205 45.0815 11.4486C45.5588 12.2439 45.713 13.1962 45.8554 14.1325C45.9931 15.0371 45.534 15.8094 44.6988 16.0498C38.9107 17.7155 33.2894 21.7654 28.7267 25.6322C27.192 24.8875 24.28 22.2796 24.28 22.2796M21.5793 12.5365C15.8952 17.4128 9.72783 23.2302 3.06017 25.3132C2.49739 25.4891 1.87603 25.344 1.47101 24.9054C0.926381 24.3154 0.717764 23.708 0.497108 23.117C-0.27447 21.0521 -0.0557905 20.448 1.94144 19.6584C6.62948 17.8043 10.5301 14.7231 14.3041 11.4296C14.8755 10.9309 16.0092 9.97333 16.6343 9.44514C18.7018 10.0145 21.5793 12.5365 21.5793 12.5365M11.3391 30.5284C12.969 29.6701 15.4786 28.6573 17.1142 27.713C18.4358 28.9101 21.4956 31.2949 21.4956 31.2949C19.277 32.8187 15.7384 35.0875 13.275 35.7419C12.6796 35.9002 12.0472 35.662 11.671 35.1621C10.9508 34.2045 10.5343 33.188 10.4985 31.9782C10.4805 31.3714 10.8133 30.8051 11.3391 30.5284M24.5553 3.81511C27.4684 2.00496 30.7461 0.64545 32.992 0.151789C33.6096 0.0160967 34.2552 0.293204 34.5941 0.840774C35.2386 1.882 35.5065 2.92803 35.4408 4.07247C35.4084 4.63702 35.1037 5.14933 34.6207 5.42016C33.2117 6.21087 30.7022 6.8273 29.2599 7.474C29.2599 7.474 26.7164 5.2697 24.5553 3.81511" fill="#56CCF2"/>
<path d="M41.8845 18.7705C45.8188 20.3404 47.2699 20.8727 44.3998 24.946C44.0632 25.4235 43.5287 25.4266 42.9702 25.2911C41.1802 24.8567 38.0036 22.976 36.2452 21.9252C39.4864 19.6216 41.8845 18.7705 41.8845 18.7705M4.61285 16.9456C3.64128 16.6601 1.79284 16.359 0.94633 15.8294C0.563596 15.5899 0.306283 15.1731 0.251478 14.7161C0.1124 13.5612 0.400978 12.5211 0.949205 11.4743C1.09635 11.1942 1.32141 10.9656 1.59563 10.8175C1.86986 10.6695 2.1808 10.6088 2.48877 10.6432C4.37531 10.8584 7.7847 12.3232 9.63045 13.1903C6.95742 15.7192 4.61285 16.9456 4.61285 16.9456Z" fill="#9B51E0"/>
</g>
<defs>
<clipPath id="clip0_347_3073">
<rect width="46" height="36" fill="white"/>
</clipPath>
</defs>
</svg>
