<svg width="30" height="28" viewBox="0 0 30 28" fill="none" xmlns="http://www.w3.org/2000/svg">
<path fill-rule="evenodd" clip-rule="evenodd" d="M7.1847 11.075C8.64427 9.73844 10.6062 9.00098 12.6354 9.00098C14.6647 9.00098 16.6266 9.73844 18.0862 11.075C18.4935 11.448 18.5213 12.0805 18.1483 12.4878C17.7754 12.8951 17.1428 12.923 16.7355 12.55C15.6617 11.5667 14.1882 11.001 12.6354 11.001C11.0827 11.001 9.60922 11.5667 8.53541 12.55M8.53537 12.55L3.75858 16.9245C3.75854 16.9246 3.7585 16.9246 3.75846 16.9246C2.68766 17.9056 2.10474 19.2164 2.10474 20.5625C2.10474 21.9087 2.6877 23.2195 3.75858 24.2005C4.8324 25.1842 6.30616 25.7502 7.85926 25.7502C9.41236 25.7502 10.8861 25.1842 11.9599 24.2005L14.3476 22.0132C14.7549 21.6401 15.3874 21.6678 15.7605 22.0751C16.1336 22.4823 16.1059 23.1149 15.6986 23.4879L13.3109 25.6753C11.8513 27.0124 9.88898 27.7502 7.85926 27.7502C5.82954 27.7502 3.86722 27.0124 2.4076 25.6753C0.945042 24.3355 0.104736 22.4985 0.104736 20.5625C0.104736 18.6265 0.945042 16.7896 2.4076 15.4498L2.40772 15.4497L7.18466 11.075L7.1847 11.075" fill="currentColor"/>
<path fill-rule="evenodd" clip-rule="evenodd" d="M16.7354 2.32448C18.195 0.987345 20.1574 0.249512 22.1871 0.249512C24.2168 0.249512 26.1791 0.987344 27.6387 2.32448C29.1013 3.66431 29.9416 5.50123 29.9416 7.43723C29.9416 9.37322 29.1013 11.2101 27.6387 12.55L27.6386 12.5501L22.8617 16.9247L22.8616 16.9248C21.4021 18.2613 19.4402 18.9988 17.4109 18.9988C15.3816 18.9988 13.4197 18.2613 11.9602 16.9248C11.5529 16.5518 11.525 15.9192 11.898 15.5119C12.271 15.1046 12.9035 15.0768 13.3108 15.4498C14.3847 16.4331 15.8581 16.9988 17.4109 16.9988C18.9636 16.9988 20.4371 16.4331 21.5109 15.4498C21.5109 15.4498 21.5109 15.4498 21.511 15.4498L26.2878 11.0752C27.3586 10.0942 27.9416 8.7834 27.9416 7.43723C27.9416 6.09105 27.3586 4.78024 26.2878 3.79922C25.2139 2.81551 23.7402 2.24951 22.1871 2.24951C20.634 2.24951 19.1602 2.81551 18.0864 3.79922L15.6987 5.98655C15.2915 6.35962 14.6589 6.33191 14.2858 5.92468C13.9128 5.51744 13.9405 4.88488 14.3477 4.51182L16.7354 2.32448Z" fill="currentColor"/>
</svg>
