<svg width="54" height="47" viewBox="0 0 54 47" fill="none" stroke="none" xmlns="http://www.w3.org/2000/svg">
<g clip-path="url(#clip0_1567_44767)">
<path d="M52.8011 28.5559L45.1711 24.2493V14.6071C45.1706 14.3161 45.0916 14.0304 44.9422 13.7793C44.7928 13.5282 44.5784 13.3207 44.321 13.1781L35.2529 8.05308C34.9995 7.90891 34.712 7.83301 34.4194 7.83301C34.1268 7.83301 33.8393 7.90891 33.5859 8.05308L24.5179 13.1781C24.2604 13.3207 24.046 13.5282 23.8966 13.7793C23.7472 14.0304 23.6682 14.3161 23.6677 14.6071V23.9044L15.4331 28.553C15.1787 28.6977 14.9676 28.9061 14.8213 29.1571C14.6749 29.408 14.5985 29.6927 14.5996 29.9821V40.2321C14.6014 40.5187 14.6792 40.7999 14.8254 41.0478C14.9717 41.2956 15.1812 41.5014 15.4331 41.6447L24.5179 46.7697C24.7713 46.9139 25.0587 46.9898 25.3513 46.9898C25.6439 46.9898 25.9314 46.9139 26.1848 46.7697L34.4361 42.1211L42.6874 46.7697C42.9398 46.9173 43.2273 46.9967 43.5208 46.9997C43.8087 46.9938 44.0901 46.9146 44.3376 46.7697L52.8148 41.6447C53.0667 41.5014 53.2762 41.2956 53.4224 41.0478C53.5686 40.7999 53.6465 40.5187 53.6482 40.2321L53.6513 29.985C53.6508 29.6939 53.5718 29.4082 53.4224 29.1571C53.273 28.906 53.0586 28.6985 52.8011 28.5559ZM34.4194 11.3712L41.8372 15.5599V24.315L34.4027 28.5202L27.0016 24.2493V15.5599L34.4194 11.3712ZM25.3346 43.4516L17.9335 39.2793V30.8855L25.7347 26.4833L33.0692 30.7049V39.0987L25.3346 43.4516ZM50.8553 39.2793L43.4542 43.4516L35.7363 39.0987V30.7706L43.1708 26.549L50.8553 30.8855V39.2793Z" fill="#9B51E0"/>
<path d="M9.22197 38.296C8.77899 38.296 8.35416 38.1248 8.04093 37.8202C7.7277 37.5155 7.55173 37.1023 7.55173 36.6715V26.0632C7.54153 25.7687 7.61386 25.4771 7.76097 25.2196C7.90808 24.962 8.12442 24.7482 8.38685 24.6011L16.6546 20.0036V10.8574C16.6534 10.5711 16.73 10.2897 16.8767 10.0415C17.0233 9.79327 17.2348 9.58718 17.4897 9.44405L26.1916 4.57041C26.3823 4.46299 26.5929 4.39332 26.8113 4.36541C27.0297 4.33749 27.2517 4.35188 27.4644 4.40775C27.6771 4.46362 27.8763 4.55987 28.0506 4.69094C28.2249 4.82202 28.3708 4.98534 28.4799 5.17149C28.5896 5.35787 28.6603 5.56358 28.6878 5.77671C28.7153 5.98983 28.699 6.20614 28.64 6.41312C28.581 6.6201 28.4804 6.81364 28.3439 6.98254C28.2075 7.15144 28.038 7.29235 27.8452 7.39712L19.995 11.7509V20.9458C19.9945 21.2337 19.9154 21.5163 19.7657 21.7646C19.616 22.0129 19.4012 22.2181 19.1432 22.3592L10.8922 27.0054V36.6715C10.8922 37.1023 10.7162 37.5155 10.403 37.8202C10.0898 38.1248 9.66495 38.296 9.22197 38.296Z" fill="#9B51E0"/>
<path d="M2.15838 33.9444C1.71855 33.9444 1.29673 33.7731 0.985727 33.4681C0.674721 33.1632 0.5 32.7495 0.5 32.3182V21.7154C0.501747 21.4316 0.579202 21.1532 0.724668 20.9079C0.870133 20.6625 1.07854 20.4588 1.32919 20.3169L9.62106 15.6985V6.49415C9.62281 6.21036 9.70026 5.93195 9.84573 5.6866C9.9912 5.44126 10.1996 5.23751 10.4503 5.09562L19.1567 0.217011C19.5394 0.00136329 19.9937 -0.0563938 20.4198 0.0564459C20.8459 0.169286 21.2088 0.443479 21.4287 0.818706C21.6486 1.19393 21.7075 1.63946 21.5924 2.05727C21.4774 2.47508 21.1977 2.83096 20.8151 3.0466L12.8549 7.43735V16.6417C12.8544 16.9298 12.7758 17.2127 12.6272 17.4613C12.4786 17.7098 12.2653 17.9153 12.0091 18.0564L3.81675 22.6586V32.3182C3.81675 32.7495 3.64203 33.1632 3.33102 33.4681C3.02002 33.7731 2.5982 33.9444 2.15838 33.9444Z" fill="#9B51E0"/>
</g>
<defs>
<clipPath id="clip0_1567_44767">
<rect width="52.875" height="47" fill="white" transform="translate(0.5)"/>
</clipPath>
</defs>
</svg>
