<svg width="19" height="19" viewBox="0 0 19 19" fill="none" xmlns="http://www.w3.org/2000/svg">
<path d="M17.0001 13.1901V15.4401C17.0009 15.6489 16.9581 15.8557 16.8745 16.0471C16.7908 16.2385 16.668 16.4103 16.5141 16.5515C16.3602 16.6927 16.1785 16.8002 15.9806 16.8671C15.7828 16.934 15.5731 16.9589 15.3651 16.9401C13.0572 16.6893 10.8403 15.9007 8.89257 14.6376C7.08044 13.4861 5.54407 11.9497 4.39257 10.1376C3.12506 8.18098 2.33625 5.95332 2.09007 3.63507C2.07133 3.42767 2.09598 3.21864 2.16245 3.02129C2.22892 2.82394 2.33575 2.64259 2.47615 2.48879C2.61654 2.33499 2.78743 2.2121 2.97792 2.12796C3.1684 2.04382 3.37433 2.00027 3.58257 2.00007H5.83257C6.19655 1.99649 6.54942 2.12538 6.82539 2.36272C7.10137 2.60006 7.28163 2.92966 7.33257 3.29007C7.42754 4.01012 7.60366 4.71712 7.85757 5.39757C7.95848 5.66602 7.98032 5.95776 7.9205 6.23823C7.86069 6.51871 7.72172 6.77616 7.52007 6.98007L6.56757 7.93257C7.63524 9.81023 9.18991 11.3649 11.0676 12.4326L12.0201 11.4801C12.224 11.2784 12.4814 11.1395 12.7619 11.0796C13.0424 11.0198 13.3341 11.0417 13.6026 11.1426C14.283 11.3965 14.99 11.5726 15.7101 11.6676C16.0744 11.719 16.4071 11.9025 16.645 12.1832C16.8828 12.4639 17.0092 12.8223 17.0001 13.1901Z" stroke="#465465" stroke-linecap="round" stroke-linejoin="round"/>
</svg>
