<svg width="53" height="53" viewBox="0 0 53 53" fill="none" xmlns="http://www.w3.org/2000/svg">
<path d="M49.7778 14.1774C49.5154 13.1294 48.9812 12.1691 48.2289 11.3936C47.4767 10.6181 46.5332 10.0549 45.4936 9.76075C41.6953 8.83325 26.5019 8.83325 26.5019 8.83325C26.5019 8.83325 11.3086 8.83325 7.51025 9.84909C6.47067 10.1432 5.52711 10.7064 4.77489 11.4819C4.02266 12.2574 3.4884 13.2177 3.22608 14.2658C2.53093 18.1205 2.19089 22.0309 2.21025 25.9478C2.18547 29.8942 2.52553 33.8345 3.22608 37.7183C3.51528 38.7337 4.06151 39.6575 4.81198 40.4002C5.56246 41.143 6.49181 41.6796 7.51025 41.9583C11.3086 42.9741 26.5019 42.9741 26.5019 42.9741C26.5019 42.9741 41.6953 42.9741 45.4936 41.9583C46.5332 41.6641 47.4767 41.1009 48.2289 40.3254C48.9812 39.5499 49.5154 38.5896 49.7778 37.5416C50.4675 33.7158 50.8076 29.8352 50.7936 25.9478C50.8184 22.0014 50.4783 18.0612 49.7778 14.1774Z" stroke="white" stroke-width="2" stroke-linecap="round" stroke-linejoin="round"/>
<path d="M21.5312 33.1691L34.2292 25.9478L21.5312 18.7266V33.1691Z" stroke="white" stroke-width="2" stroke-linecap="round" stroke-linejoin="round"/>
</svg>
