<svg width="36" height="36" viewBox="0 0 36 36" fill="none" xmlns="http://www.w3.org/2000/svg">
<path d="M18 18C19.7902 18 21.5071 17.2888 22.773 16.023C24.0388 14.7571 24.75 13.0402 24.75 11.25C24.75 9.45979 24.0388 7.7429 22.773 6.47703C21.5071 5.21116 19.7902 4.5 18 4.5C16.2098 4.5 14.4929 5.21116 13.227 6.47703C11.9612 7.7429 11.25 9.45979 11.25 11.25C11.25 13.0402 11.9612 14.7571 13.227 16.023C14.4929 17.2888 16.2098 18 18 18ZM22.5 11.25C22.5 12.4435 22.0259 13.5881 21.182 14.432C20.3381 15.2759 19.1935 15.75 18 15.75C16.8065 15.75 15.6619 15.2759 14.818 14.432C13.9741 13.5881 13.5 12.4435 13.5 11.25C13.5 10.0565 13.9741 8.91193 14.818 8.06802C15.6619 7.22411 16.8065 6.75 18 6.75C19.1935 6.75 20.3381 7.22411 21.182 8.06802C22.0259 8.91193 22.5 10.0565 22.5 11.25ZM31.5 29.25C31.5 31.5 29.25 31.5 29.25 31.5H6.75C6.75 31.5 4.5 31.5 4.5 29.25C4.5 27 6.75 20.25 18 20.25C29.25 20.25 31.5 27 31.5 29.25ZM29.25 29.241C29.2477 28.6875 28.9035 27.0225 27.378 25.497C25.911 24.03 23.1502 22.5 18 22.5C12.8475 22.5 10.089 24.03 8.622 25.497C7.0965 27.0225 6.7545 28.6875 6.75 29.241H29.25Z" fill="white"/>
</svg>
