<svg width="41" height="28" viewBox="0 0 41 28" fill="none" xmlns="http://www.w3.org/2000/svg">
<path d="M7.625 15.375C7.625 15.7397 7.48013 16.0894 7.22227 16.3473C6.96441 16.6051 6.61467 16.75 6.25 16.75H2.125C1.76033 16.75 1.41059 16.6051 1.15273 16.3473C0.894866 16.0894 0.75 15.7397 0.75 15.375C0.75 15.0103 0.894866 14.6606 1.15273 14.4027C1.41059 14.1449 1.76033 14 2.125 14H3.5V3H2.125C1.76033 3 1.41059 2.85513 1.15273 2.59727C0.894866 2.33941 0.75 1.98967 0.75 1.625C0.75 1.26033 0.894866 0.910591 1.15273 0.652728C1.41059 0.394866 1.76033 0.25 2.125 0.25H4.875C5.10932 0.250258 5.33969 0.310395 5.54424 0.424702C5.74879 0.539009 5.92073 0.703693 6.04375 0.903125L11.75 10.0297L17.4562 0.903125C17.5793 0.703693 17.7512 0.539009 17.9558 0.424702C18.1603 0.310395 18.3907 0.250258 18.625 0.25H21.375C21.7397 0.25 22.0894 0.394866 22.3473 0.652728C22.6051 0.910591 22.75 1.26033 22.75 1.625C22.75 1.98967 22.6051 2.33941 22.3473 2.59727C22.0894 2.85513 21.7397 3 21.375 3H20V14H21.375C21.7397 14 22.0894 14.1449 22.3473 14.4027C22.6051 14.6606 22.75 15.0103 22.75 15.375C22.75 15.7397 22.6051 16.0894 22.3473 16.3473C22.0894 16.6051 21.7397 16.75 21.375 16.75H17.25C16.8853 16.75 16.5356 16.6051 16.2777 16.3473C16.0199 16.0894 15.875 15.7397 15.875 15.375C15.875 15.0103 16.0199 14.6606 16.2777 14.4027C16.5356 14.1449 16.8853 14 17.25 14V6.42031L12.9188 13.3469C12.7954 13.5459 12.6234 13.71 12.4188 13.8239C12.2143 13.9378 11.9841 13.9975 11.75 13.9975C11.5159 13.9975 11.2857 13.9378 11.0812 13.8239C10.8766 13.71 10.7046 13.5459 10.5812 13.3469L6.25 6.42031V14C6.61467 14 6.96441 14.1449 7.22227 14.4027C7.48013 14.6606 7.625 15.0103 7.625 15.375ZM26.875 11.25H39.25C39.6147 11.25 39.9644 11.1051 40.2223 10.8473C40.4801 10.5894 40.625 10.2397 40.625 9.875C40.625 9.51033 40.4801 9.16059 40.2223 8.90273C39.9644 8.64487 39.6147 8.5 39.25 8.5H26.875C26.5103 8.5 26.1606 8.64487 25.9027 8.90273C25.6449 9.16059 25.5 9.51033 25.5 9.875C25.5 10.2397 25.6449 10.5894 25.9027 10.8473C26.1606 11.1051 26.5103 11.25 26.875 11.25ZM39.25 14H26.875C26.5103 14 26.1606 14.1449 25.9027 14.4027C25.6449 14.6606 25.5 15.0103 25.5 15.375C25.5 15.7397 25.6449 16.0894 25.9027 16.3473C26.1606 16.6051 26.5103 16.75 26.875 16.75H39.25C39.6147 16.75 39.9644 16.6051 40.2223 16.3473C40.4801 16.0894 40.625 15.7397 40.625 15.375C40.625 15.0103 40.4801 14.6606 40.2223 14.4027C39.9644 14.1449 39.6147 14 39.25 14ZM39.25 19.5H10.375C10.0103 19.5 9.66059 19.6449 9.40273 19.9027C9.14487 20.1606 9 20.5103 9 20.875C9 21.2397 9.14487 21.5894 9.40273 21.8473C9.66059 22.1051 10.0103 22.25 10.375 22.25H39.25C39.6147 22.25 39.9644 22.1051 40.2223 21.8473C40.4801 21.5894 40.625 21.2397 40.625 20.875C40.625 20.5103 40.4801 20.1606 40.2223 19.9027C39.9644 19.6449 39.6147 19.5 39.25 19.5ZM39.25 25H10.375C10.0103 25 9.66059 25.1449 9.40273 25.4027C9.14487 25.6606 9 26.0103 9 26.375C9 26.7397 9.14487 27.0894 9.40273 27.3473C9.66059 27.6051 10.0103 27.75 10.375 27.75H39.25C39.6147 27.75 39.9644 27.6051 40.2223 27.3473C40.4801 27.0894 40.625 26.7397 40.625 26.375C40.625 26.0103 40.4801 25.6606 40.2223 25.4027C39.9644 25.1449 39.6147 25 39.25 25Z" fill="#56CCF2"/>
</svg>
