<svg width="46" height="47" viewBox="0 0 46 47" fill="none" xmlns="http://www.w3.org/2000/svg">
<path d="M23.0002 0.583008C10.3639 0.583008 0.0834961 10.8634 0.0834961 23.4997V32.994C0.0834961 35.3407 2.13912 37.2497 4.66683 37.2497H6.9585C7.56628 37.2497 8.14918 37.0082 8.57895 36.5785C9.00872 36.1487 9.25016 35.5658 9.25016 34.958V23.172C9.25016 22.5642 9.00872 21.9813 8.57895 21.5515C8.14918 21.1217 7.56628 20.8803 6.9585 20.8803H4.87766C6.15183 12.0115 13.7831 5.16634 23.0002 5.16634C32.2172 5.16634 39.8485 12.0115 41.1227 20.8803H39.0418C38.434 20.8803 37.8511 21.1217 37.4214 21.5515C36.9916 21.9813 36.7502 22.5642 36.7502 23.172V37.2497C36.7502 39.7774 34.6945 41.833 32.1668 41.833H27.5835V39.5413H18.4168V46.4163H32.1668C37.2222 46.4163 41.3335 42.3051 41.3335 37.2497C43.8612 37.2497 45.9168 35.3407 45.9168 32.994V23.4997C45.9168 10.8634 35.6364 0.583008 23.0002 0.583008Z" fill="#9B51E0"/>
</svg>
