<svg width="35" height="31" viewBox="0 0 35 31" fill="none" xmlns="http://www.w3.org/2000/svg">
<path d="M26.3401 0H14.6988C13.5299 0 12.5822 0.867516 12.5822 1.9375H24.2235V9.6875H32.6899V25.1875H25.2818V27.125H32.6899C33.8588 27.125 34.8065 26.2575 34.8065 25.1875V7.75048L26.3401 0ZM26.3401 7.75V2.73962L31.8125 7.75H26.3401ZM3.05751 3.875C1.88862 3.875 0.940918 4.74252 0.940918 5.8125V29.0625C0.940918 30.1325 1.88862 31 3.05751 31H21.0486C22.2175 31 23.1652 30.1325 23.1652 29.0625V11.6255L14.6988 3.875H3.05751ZM21.0486 29.0625H3.05751V5.8125H12.5822V13.5625H21.0486V29.0625ZM14.6988 11.625V6.61462L20.1713 11.625H14.6988Z" fill="#56CCF2"/>
</svg>
