<svg width="36" height="36" viewBox="0 0 36 36" fill="none" xmlns="http://www.w3.org/2000/svg">
<g clip-path="url(#clip0_1082_24404)">
<path d="M31.9994 15H30.9994V9C30.9994 8.73478 30.894 8.48043 30.7065 8.29289C30.519 8.10536 30.2646 8 29.9994 8H5.9994C5.76262 8.00386 5.53214 7.92356 5.34902 7.7734C5.16589 7.62324 5.042 7.41296 4.9994 7.18V6.82C5.042 6.58704 5.16589 6.37676 5.34902 6.2266C5.53214 6.07644 5.76262 5.99614 5.9994 6H29.5794C29.8446 6 30.099 5.89464 30.2865 5.70711C30.474 5.51957 30.5794 5.26522 30.5794 5C30.5794 4.73478 30.474 4.48043 30.2865 4.29289C30.099 4.10536 29.8446 4 29.5794 4H5.9994C5.20376 4 4.44069 4.31607 3.87808 4.87868C3.31548 5.44129 2.9994 6.20435 2.9994 7C2.99239 7.1199 2.99239 7.2401 2.9994 7.36V27.93C3.00333 28.4684 3.11327 29.0008 3.32295 29.4967C3.53263 29.9927 3.83794 30.4424 4.22145 30.8204C4.60496 31.1983 5.05915 31.497 5.5581 31.6994C6.05705 31.9018 6.59098 32.004 7.12941 32H29.9994C30.2646 32 30.519 31.8946 30.7065 31.7071C30.894 31.5196 30.9994 31.2652 30.9994 31V25H31.9994C32.2646 25 32.519 24.8946 32.7065 24.7071C32.894 24.5196 32.9994 24.2652 32.9994 24V16C32.9994 15.7348 32.894 15.4804 32.7065 15.2929C32.519 15.1054 32.2646 15 31.9994 15ZM28.9994 30H7.12941C6.57321 30.0054 6.03738 29.7909 5.6385 29.4033C5.23961 29.0156 5.00992 28.4861 4.9994 27.93V9.88C5.324 9.97407 5.66177 10.0146 5.9994 10H28.9994V15H21.9994C20.6733 15 19.4016 15.5268 18.4639 16.4645C17.5262 17.4021 16.9994 18.6739 16.9994 20C16.9994 21.3261 17.5262 22.5979 18.4639 23.5355C19.4016 24.4732 20.6733 25 21.9994 25H28.9994V30ZM30.9994 23H21.9994C21.2038 23 20.4407 22.6839 19.8781 22.1213C19.3155 21.5587 18.9994 20.7956 18.9994 20C18.9994 19.2044 19.3155 18.4413 19.8781 17.8787C20.4407 17.3161 21.2038 17 21.9994 17H30.9994V23Z" fill="currentColor"/>
<path d="M23.0098 21.5C23.8382 21.5 24.5098 20.8284 24.5098 20C24.5098 19.1716 23.8382 18.5 23.0098 18.5C22.1813 18.5 21.5098 19.1716 21.5098 20C21.5098 20.8284 22.1813 21.5 23.0098 21.5Z" fill="currentColor"/>
</g>
<defs>
<clipPath id="clip0_1082_24404">
<rect width="36" height="36" fill="white"/>
</clipPath>
</defs>
</svg>
