<svg width="51" height="50" viewBox="0 0 51 50" fill="none" xmlns="http://www.w3.org/2000/svg">
<path d="M44.8663 33.4742V15.316L29.7345 6.80469M21.2607 6.80469L6.12891 15.316V33.4742M9.76054 39.1492L25.4976 48.0007L35.182 42.5532L41.2347 39.148M25.4976 17.7371V9.2633M32.7609 29.8425L41.2347 34.6847M18.2343 29.8425L9.76054 34.6847M21.866 19.8556L18.2343 21.974V30.4478L21.866 32.5663L25.4976 34.6847L29.1292 32.5663L32.7609 30.4478V21.974L29.1292 19.8556L25.4976 17.7371L21.866 19.8556Z" stroke="#9B51E0" stroke-width="3.2" stroke-linecap="round" stroke-linejoin="round"/>
<path d="M25.5027 9.26326C27.5084 9.26326 29.1344 7.63732 29.1344 5.63163C29.1344 3.62594 27.5084 2 25.5027 2C23.497 2 21.8711 3.62594 21.8711 5.63163C21.8711 7.63732 23.497 9.26326 25.5027 9.26326Z" stroke="#9B51E0" stroke-width="3.2" stroke-linecap="round" stroke-linejoin="round"/>
<path d="M6.13163 40.7369C8.13732 40.7369 9.76326 39.111 9.76326 37.1053C9.76326 35.0996 8.13732 33.4736 6.13163 33.4736C4.12594 33.4736 2.5 35.0996 2.5 37.1053C2.5 39.111 4.12594 40.7369 6.13163 40.7369Z" stroke="#9B51E0" stroke-width="3.2" stroke-linecap="round" stroke-linejoin="round"/>
<path d="M44.868 40.7359C46.8737 40.7359 48.4996 39.11 48.4996 37.1043C48.4996 35.0986 46.8737 33.4727 44.868 33.4727C42.8623 33.4727 41.2363 35.0986 41.2363 37.1043C41.2363 39.11 42.8623 40.7359 44.868 40.7359Z" stroke="#9B51E0" stroke-width="3.2" stroke-linecap="round" stroke-linejoin="round"/>
</svg>
