<svg width="53" height="53" viewBox="0 0 53 53" fill="none" xmlns="http://www.w3.org/2000/svg">
<path d="M32.4654 13.9126C32.0608 14.3254 31.8341 14.8804 31.8341 15.4584C31.8341 16.0364 32.0608 16.5914 32.4654 17.0042L35.9987 20.5376C36.4115 20.9422 36.9665 21.1688 37.5446 21.1688C38.1226 21.1688 38.6776 20.9422 39.0904 20.5376L47.4158 12.2122C48.5263 14.666 48.8625 17.4 48.3797 20.0498C47.8969 22.6997 46.618 25.1394 44.7134 27.0439C42.8089 28.9485 40.3692 30.2274 37.7194 30.7102C35.0696 31.193 32.3355 30.8567 29.8817 29.7463L14.6221 45.0059C13.7436 45.8844 12.552 46.378 11.3096 46.378C10.0672 46.378 8.87561 45.8844 7.99708 45.0059C7.11855 44.1274 6.625 42.9358 6.625 41.6934C6.625 40.451 7.11855 39.2594 7.99708 38.3809L23.2567 23.1213C22.1462 20.6674 21.81 17.9334 22.2928 15.2836C22.7756 12.6338 24.0545 10.1941 25.959 8.28954C27.8636 6.38499 30.3033 5.10611 32.9531 4.62331C35.6029 4.14051 38.337 4.47672 40.7908 5.58715L32.4875 13.8905L32.4654 13.9126Z" stroke="white" stroke-width="3" stroke-linecap="round" stroke-linejoin="round"/>
</svg>
