<svg width="16" height="16" viewBox="0 0 16 16" fill="none" xmlns="http://www.w3.org/2000/svg">
<mask id="mask0_1039_81113" style="mask-type:luminance" maskUnits="userSpaceOnUse" x="0" y="2" width="16" height="12">
<path d="M16 2H0V14H16V2Z" fill="white"/>
</mask>
<g mask="url(#mask0_1039_81113)">
<path d="M12.2226 12.9583C12.1419 13.2989 12.1005 13.5062 11.9283 13.7351C11.8135 13.8877 11.6254 13.9754 11.4339 13.9533C11.2675 13.9342 11.1063 13.8639 10.9442 13.8025C9.07008 13.0923 7.55764 11.8418 6.02958 10.6142C5.6654 10.3217 4.89684 9.64434 4.46033 9.28845C5.52303 8.54876 5.9629 8.09128 5.9629 8.09128C7.67527 9.55504 9.67171 11.2686 11.7553 12.1258C12.0873 12.2624 12.3979 12.218 12.2226 12.9583ZM10.1048 7.45683C9.6227 7.08169 8.77951 6.45898 8.30351 6.09744C7.09395 5.17874 5.8039 4.41202 4.32402 3.97516C3.52246 3.73855 3.41715 2.94526 4.02315 2.24452C4.13334 2.11713 4.30553 2.03356 4.4719 2.06784C7.22815 2.63603 9.31401 4.29892 11.6368 6.39769C10.8509 6.80649 10.1048 7.45683 10.1048 7.45683Z" fill="#222222"/>
<path d="M8.4461 9.42643C10.1672 7.71135 13.5087 5.63899 15.1938 5.5628C15.2907 5.55842 15.3869 5.57959 15.4726 5.62413C15.5584 5.66868 15.6304 5.73498 15.6814 5.81616C15.8474 6.08126 15.901 6.39868 15.9506 6.7108C15.9984 7.01234 15.8388 7.26975 15.5483 7.34988C13.535 7.90514 11.5798 9.2551 9.99278 10.544C9.45897 10.2958 8.4461 9.42643 8.4461 9.42643ZM7.50672 6.1788C5.52966 7.80422 3.38448 9.74336 1.0653 10.4377C0.869547 10.4963 0.653422 10.448 0.512548 10.3018C0.323111 10.1051 0.250549 9.90261 0.173798 9.70563C-0.094576 9.01732 -0.0185135 8.81598 0.676173 8.55277C2.3068 7.93474 3.66354 6.90766 4.97623 5.80982C5.17497 5.6436 5.56928 5.3244 5.78672 5.14834C6.50585 5.33812 7.50672 6.1788 7.50672 6.1788ZM3.94492 12.1761C4.51185 11.89 5.38473 11.5524 5.95366 11.2376C6.41335 11.6366 7.47759 12.4316 7.47759 12.4316C6.70592 12.9395 5.47509 13.6958 4.6183 13.9139C4.41116 13.9667 4.19123 13.8873 4.06035 13.7207C3.80986 13.4015 3.66498 13.0626 3.65255 12.6593C3.6463 12.4571 3.76204 12.2683 3.94492 12.1761ZM8.54185 3.27166C9.5551 2.66828 10.6951 2.21511 11.4763 2.05056C11.6912 2.00532 11.9157 2.09769 12.0336 2.28022C12.2578 2.62729 12.351 2.97597 12.3281 3.35745C12.3168 3.54564 12.2108 3.7164 12.0428 3.80668C11.5528 4.07025 10.6799 4.27573 10.1782 4.4913C10.1782 4.4913 9.29353 3.75652 8.54185 3.27166Z" fill="#222222"/>
<path d="M14.5664 8.25676C15.9348 8.78008 16.4395 8.9575 15.4412 10.3153C15.3242 10.4744 15.1383 10.4755 14.9439 10.4303C14.3213 10.2855 13.2164 9.6586 12.6049 9.30833C13.7322 8.54045 14.5664 8.25676 14.5664 8.25676ZM1.6023 7.64845C1.26437 7.5533 0.62143 7.45294 0.326993 7.27638C0.193868 7.19657 0.104368 7.05762 0.0853053 6.9053C0.0369304 6.52032 0.137305 6.17362 0.327992 5.82469C0.379173 5.73133 0.457454 5.65512 0.552836 5.60576C0.648219 5.55642 0.756374 5.53619 0.863492 5.54765C1.51968 5.6194 2.70555 6.10765 3.34755 6.3967C2.4178 7.23965 1.6023 7.64845 1.6023 7.64845Z" fill="#222222"/>
</g>
</svg>
