<svg width="16" height="16" viewBox="0 0 16 16" fill="none" xmlns="http://www.w3.org/2000/svg">
<g clip-path="url(#clip0_1039_81087)">
<path d="M6.31376 6.21053C7.47647 6.21053 8.41903 5.26797 8.41903 4.10527C8.41903 2.94256 7.47647 2 6.31376 2C5.15106 2 4.2085 2.94256 4.2085 4.10527C4.2085 5.26797 5.15106 6.21053 6.31376 6.21053Z" fill="#222222"/>
<path d="M13.8968 6.21053C15.0595 6.21053 16.002 5.26797 16.002 4.10527C16.002 2.94256 15.0595 2 13.8968 2C12.7341 2 11.7915 2.94256 11.7915 4.10527C11.7915 5.26797 12.7341 6.21053 13.8968 6.21053Z" fill="#222222"/>
<path d="M2.10527 13.7895C3.26797 13.7895 4.21053 12.8469 4.21053 11.6842C4.21053 10.5215 3.26797 9.57895 2.10527 9.57895C0.94256 9.57895 0 10.5215 0 11.6842C0 12.8469 0.94256 13.7895 2.10527 13.7895Z" fill="#222222"/>
<path d="M9.68339 13.7895C10.8461 13.7895 11.7887 12.8469 11.7887 11.6842C11.7887 10.5215 10.8461 9.57895 9.68339 9.57895C8.52068 9.57895 7.57812 10.5215 7.57812 11.6842C7.57812 12.8469 8.52068 13.7895 9.68339 13.7895Z" fill="#222222"/>
<path d="M6.31454 4.10522L2.104 11.6842L13.8934 4.10522L9.68296 11.6842L6.31454 4.10522Z" stroke="#222222" stroke-width="0.842105"/>
</g>
<defs>
<clipPath id="clip0_1039_81087">
<rect width="16" height="12" fill="white" transform="translate(0 2)"/>
</clipPath>
</defs>
</svg>
