<svg width="16" height="16" viewBox="0 0 16 16" fill="none" xmlns="http://www.w3.org/2000/svg">
<g clip-path="url(#clip0_1039_80986)">
<path d="M12.9987 0.666626H4.9987C4.63051 0.666626 4.33203 0.965103 4.33203 1.33329V12C4.33203 12.3681 4.63051 12.6666 4.9987 12.6666H12.9987C13.3669 12.6666 13.6654 12.3681 13.6654 12V1.33329C13.6654 0.965103 13.3669 0.666626 12.9987 0.666626Z" stroke="black" stroke-width="1.33333"/>
<path d="M10.3333 2.66663H2.33333C1.59695 2.66663 1 3.26358 1 3.99996V14.6666C1 15.403 1.59695 16 2.33333 16H10.3333C11.0697 16 11.6667 15.403 11.6667 14.6666V3.99996C11.6667 3.26358 11.0697 2.66663 10.3333 2.66663Z" fill="black"/>
<path d="M4.33203 8.66663H8.33203" stroke="white" stroke-width="1.33333" stroke-linecap="round"/>
<path d="M4.33203 6H8.33203" stroke="white" stroke-width="1.33333" stroke-linecap="round"/>
<path d="M4.33203 11.3334H8.33203" stroke="white" stroke-width="1.33333" stroke-linecap="round"/>
</g>
<defs>
<clipPath id="clip0_1039_80986">
<rect width="13.3333" height="16" fill="white" transform="translate(1)"/>
</clipPath>
</defs>
</svg>
