<svg width="16" height="16" viewBox="0 0 16 16" fill="none" xmlns="http://www.w3.org/2000/svg">
<g clip-path="url(#clip0_1039_80994)">
<path fill-rule="evenodd" clip-rule="evenodd" d="M8 0C3.58 0 2.74923e-06 3.67064 2.74923e-06 8.20255C-0.00138995 9.92461 0.52638 11.6034 1.50837 13.0004C2.49036 14.3975 3.87665 15.4417 5.4704 15.9851C5.8704 16.0565 6.02 15.8104 6.02 15.5947C6.02 15.4003 6.0096 14.7548 6.0096 14.0673C4 14.4472 3.48 13.5653 3.32 13.1036C3.2296 12.8673 2.84 12.1398 2.5 11.9446C2.22 11.7912 1.82 11.4114 2.4896 11.4015C3.12 11.3909 3.5696 11.9962 3.72 12.2423C4.44 13.4825 5.5904 13.1339 6.0496 12.919C6.12 12.3859 6.3296 12.0274 6.56 11.8223C4.78 11.6173 2.92 10.9094 2.92 7.77192C2.92 6.87948 3.2296 6.14207 3.74 5.56789C3.66 5.36283 3.38 4.52207 3.82 3.39421C3.82 3.39421 4.4896 3.17849 6.02 4.23416C6.67133 4.04931 7.34419 3.95631 8.02 3.95773C8.7 3.95773 9.38 4.0496 10.02 4.23416C11.5496 3.16783 12.22 3.39421 12.22 3.39421C12.66 4.52207 12.38 5.36283 12.3 5.56789C12.8096 6.14207 13.12 6.86964 13.12 7.77192C13.12 10.9201 11.2504 11.6173 9.4704 11.8223C9.76 12.0783 10.0104 12.5704 10.0104 13.3399C10.0104 14.4365 10 15.3183 10 15.5955C10 15.8104 10.1504 16.0664 10.5504 15.9843C12.1382 15.4341 13.5179 14.3876 14.4953 12.9917C15.4728 11.5959 15.9991 9.92096 16 8.20255C16 3.67064 12.42 0 8 0Z" fill="#222222"/>
</g>
<defs>
<clipPath id="clip0_1039_80994">
<rect width="16" height="16" fill="white"/>
</clipPath>
</defs>
</svg>
