<svg width="24" height="21" viewBox="0 0 24 21" fill="none" xmlns="http://www.w3.org/2000/svg">
<path fill-rule="evenodd" clip-rule="evenodd" d="M1 4.14286H19.8571C20.6907 4.14286 21.4901 4.47398 22.0795 5.06338C22.6689 5.65278 23 6.45218 23 7.28571V16.7143C23 17.5478 22.6689 18.3472 22.0795 18.9366C21.4901 19.526 20.6907 19.8571 19.8571 19.8571H4.14286C3.30932 19.8571 2.50992 19.526 1.92052 18.9366C1.33112 18.3472 1 17.5478 1 16.7143V4.14286ZM2.57143 1H16.7143C17.1311 1 17.5308 1.16556 17.8255 1.46026C18.1202 1.75496 18.2857 2.15466 18.2857 2.57143V4.14286H1V2.57143C1 2.15466 1.16556 1.75496 1.46026 1.46026C1.75496 1.16556 2.15466 1 2.57143 1V1Z" stroke="white" stroke-linecap="round" stroke-linejoin="round"/>
<path d="M18.2863 12.5221C19.1541 12.5221 19.8577 11.8186 19.8577 10.9507C19.8577 10.0828 19.1541 9.37927 18.2863 9.37927C17.4184 9.37927 16.7148 10.0828 16.7148 10.9507C16.7148 11.8186 17.4184 12.5221 18.2863 12.5221Z"/>
</svg>
