<svg width="20" height="22" viewBox="0 0 20 22" fill="none" xmlns="http://www.w3.org/2000/svg">
<path d="M19 14.9979V6.99795C18.9996 6.64722 18.9071 6.30276 18.7315 5.99911C18.556 5.69546 18.3037 5.44331 18 5.26795L11 1.26795C10.696 1.09241 10.3511 1 10 1C9.64893 1 9.30404 1.09241 9 1.26795L2 5.26795C1.69626 5.44331 1.44398 5.69546 1.26846 5.99911C1.09294 6.30276 1.00036 6.64722 1 6.99795V14.9979C1.00036 15.3487 1.09294 15.6931 1.26846 15.9968C1.44398 16.3004 1.69626 16.5526 2 16.7279L9 20.7279C9.30404 20.9035 9.64893 20.9959 10 20.9959C10.3511 20.9959 10.696 20.9035 11 20.7279L18 16.7279C18.3037 16.5526 18.556 16.3004 18.7315 15.9968C18.9071 15.6931 18.9996 15.3487 19 14.9979Z" stroke="currentColor" stroke-linecap="round" stroke-linejoin="round"/>
<path d="M5.5 3.20801L10 5.80801L14.5 3.20801" stroke="currentColor" stroke-linecap="round" stroke-linejoin="round"/>
<path d="M5.5 18.788V13.598L1 10.998" stroke="currentColor" stroke-linecap="round" stroke-linejoin="round"/>
<path d="M19 10.998L14.5 13.598V18.788" stroke="currentColor" stroke-linecap="round" stroke-linejoin="round"/>
<path d="M1.27002 5.95801L10 11.008L18.73 5.95801" stroke="currentColor" stroke-linecap="round" stroke-linejoin="round"/>
<path d="M10 21.078V10.998" stroke="currentColor" stroke-linecap="round" stroke-linejoin="round"/>
</svg>
