<svg id="Layer_1" data-name="Layer 1" xmlns="http://www.w3.org/2000/svg" viewBox="0 0 1015 220.58"><circle class="cls-5" cx="694.31" cy="203.09" r="12.57"/><path class="cls-5" d="M48.72,51.69H190.27v11.2H61.69v84.34H182.6v11.21H61.69V251H191.74v11.21h-143Z" transform="translate(-48.72 -46.67)"/><path class="cls-5" d="M221.53,51.69h13V251h119.4v11.21H221.53Z" transform="translate(-48.72 -46.67)"/><path class="cls-5" d="M380.77,51.69V177.9q0,6.19.59,14.45a90.35,90.35,0,0,0,9.58,34.06,51.9,51.9,0,0,0,11.65,15A55.83,55.83,0,0,0,420.73,252q10.75,4,26.1,4,19.47,0,32.58-5.46A52.05,52.05,0,0,0,500.64,235a62.88,62.88,0,0,0,11.66-24.62,136.16,136.16,0,0,0,3.53-32.44V51.69h13V177.9a146,146,0,0,1-4,35.09,73.94,73.94,0,0,1-13.4,28.31q-9.45,12.1-25.22,19t-39.36,6.93q-18.59,0-31.85-4.72a68.57,68.57,0,0,1-22-12.23A57.38,57.38,0,0,1,379.29,233a99.1,99.1,0,0,1-10.93-38.78q-.57-9.3-.58-16.37V51.69Z" transform="translate(-48.72 -46.67)"/><path class="cls-5" d="M636.73,251h.6L710.12,51.69h13L644.41,262.24h-15L550.92,51.69h13.57Z" transform="translate(-48.72 -46.67)"/><path class="cls-5" d="M810.12,51.69h13V262.24h-13Z" transform="translate(-48.72 -46.67)"/><path class="cls-5" d="M1058.73,157a134.63,134.63,0,0,1-6.78,43.2,103.54,103.54,0,0,1-19.62,35.1,91,91,0,0,1-31.4,23.44q-18.58,8.55-42.17,8.55t-42.32-8.55a90.66,90.66,0,0,1-31.55-23.44,103.85,103.85,0,0,1-19.61-35.1A134.58,134.58,0,0,1,858.5,157a135.14,135.14,0,0,1,6.78-43.2,103.9,103.9,0,0,1,19.61-35.09,90.81,90.81,0,0,1,31.55-23.45q18.72-8.53,42.32-8.55t42.17,8.55a91.1,91.1,0,0,1,31.4,23.45A103.59,103.59,0,0,1,1052,113.76,134.63,134.63,0,0,1,1058.73,157Zm-187.26,0a122.56,122.56,0,0,0,5.9,38.34,94.34,94.34,0,0,0,17.1,31.41,82.76,82.76,0,0,0,27.43,21.37q16.23,8,36.86,8t36.71-8a83.09,83.09,0,0,0,27.28-21.37,94.29,94.29,0,0,0,17.11-31.41,122.31,122.31,0,0,0,5.89-38.34,122.2,122.2,0,0,0-5.89-38.33,94.29,94.29,0,0,0-17.11-31.41,83.12,83.12,0,0,0-27.28-21.38q-16.07-8-36.71-8t-36.86,8a82.92,82.92,0,0,0-27.43,21.38,94.34,94.34,0,0,0-17.1,31.41A122.5,122.5,0,0,0,871.47,157Z" transform="translate(-48.72 -46.67)"/></svg>
