<svg width="15" height="15" viewBox="0 0 15 15" fill="none" xmlns="http://www.w3.org/2000/svg">
<path d="M6.58169 11.363C9.22427 11.363 11.3665 9.22076 11.3665 6.57818C11.3665 3.9356 9.22427 1.79337 6.58169 1.79337C3.93911 1.79337 1.79688 3.9356 1.79688 6.57818C1.79688 9.22076 3.93911 11.363 6.58169 11.363Z" fill="black"/>
<path d="M12.5627 12.5597L9.96094 9.95795" stroke="black" stroke-width="1.27446" stroke-linecap="round" stroke-linejoin="round"/>
<g clip-path="url(#clip0_903_107669)">
<path d="M6.4711 6.04575C6.52109 5.89577 6.73287 5.89577 6.78287 6.04575L7.076 6.92606C7.14052 7.11958 7.24923 7.2954 7.39351 7.43961C7.53779 7.58381 7.71368 7.69242 7.90723 7.75684L8.78709 8.04997C8.93707 8.09997 8.93707 8.31175 8.78709 8.36174L7.90678 8.65488C7.71326 8.7194 7.53744 8.82811 7.39323 8.97239C7.24903 9.11667 7.14042 9.29256 7.076 9.48611L6.78287 10.366C6.77209 10.3988 6.75121 10.4274 6.72322 10.4477C6.69523 10.468 6.66155 10.4789 6.62698 10.4789C6.59242 10.4789 6.55874 10.468 6.53074 10.4477C6.50275 10.4274 6.48188 10.3988 6.4711 10.366L6.17796 9.48565C6.11349 9.29219 6.00484 9.11639 5.86065 8.97219C5.71645 8.828 5.54065 8.71935 5.34719 8.65488L4.46687 8.36174C4.43403 8.35097 4.40543 8.33009 4.38516 8.3021C4.36488 8.2741 4.35397 8.24042 4.35397 8.20586C4.35397 8.17129 4.36488 8.13761 4.38516 8.10962C4.40543 8.08163 4.43403 8.06075 4.46687 8.04997L5.34719 7.75684C5.54065 7.69236 5.71645 7.58372 5.86065 7.43952C6.00484 7.29532 6.11349 7.11953 6.17796 6.92606L6.4711 6.04575ZM4.71547 3.72839C4.72198 3.70871 4.73454 3.69158 4.75135 3.67944C4.76815 3.6673 4.78836 3.66077 4.80909 3.66077C4.82982 3.66077 4.85003 3.6673 4.86683 3.67944C4.88364 3.69158 4.89619 3.70871 4.90271 3.72839L5.07859 4.25649C5.15722 4.49191 5.34173 4.67642 5.57715 4.75505L6.10525 4.93093C6.12493 4.93744 6.14205 4.95 6.15419 4.9668C6.16633 4.98361 6.17287 5.00382 6.17287 5.02455C6.17287 5.04528 6.16633 5.06548 6.15419 5.08229C6.14205 5.0991 6.12493 5.11165 6.10525 5.11817L5.57715 5.29405C5.46097 5.33261 5.35541 5.39776 5.26885 5.48431C5.1823 5.57086 5.11715 5.67643 5.07859 5.79261L4.90271 6.3207C4.89619 6.34039 4.88364 6.35751 4.86683 6.36965C4.85003 6.38179 4.82982 6.38832 4.80909 6.38832C4.78836 6.38832 4.76815 6.38179 4.75135 6.36965C4.73454 6.35751 4.72198 6.34039 4.71547 6.3207L4.53959 5.79261C4.50103 5.67643 4.43588 5.57086 4.34933 5.48431C4.26277 5.39776 4.1572 5.33261 4.04103 5.29405L3.51293 5.11817C3.49325 5.11165 3.47612 5.0991 3.46399 5.08229C3.45185 5.06548 3.44531 5.04528 3.44531 5.02455C3.44531 5.00382 3.45185 4.98361 3.46399 4.9668C3.47612 4.95 3.49325 4.93744 3.51293 4.93093L4.04103 4.75505C4.1572 4.71649 4.26277 4.65134 4.34933 4.56479C4.43588 4.47823 4.50103 4.37266 4.53959 4.25649L4.71547 3.72839ZM7.92814 3.25165C7.93262 3.23871 7.94103 3.22749 7.95219 3.21955C7.96335 3.2116 7.9767 3.20734 7.9904 3.20734C8.0041 3.20734 8.01745 3.2116 8.02861 3.21955C8.03977 3.22749 8.04818 3.23871 8.05266 3.25165L8.16992 3.60341C8.22218 3.76066 8.34534 3.88382 8.50259 3.93608L8.85435 4.05334C8.86729 4.05783 8.87851 4.06623 8.88646 4.07739C8.8944 4.08855 8.89867 4.10191 8.89867 4.1156C8.89867 4.1293 8.8944 4.14265 8.88646 4.15381C8.87851 4.16497 8.86729 4.17338 8.85435 4.17786L8.50259 4.29512C8.42517 4.32102 8.35482 4.36456 8.29709 4.42229C8.23936 4.48002 8.19582 4.55037 8.16992 4.62779L8.05266 4.97956C8.04818 4.9925 8.03977 5.00372 8.02861 5.01166C8.01745 5.0196 8.0041 5.02387 7.9904 5.02387C7.9767 5.02387 7.96335 5.0196 7.95219 5.01166C7.94103 5.00372 7.93262 4.9925 7.92814 4.97956L7.81088 4.62779C7.78498 4.55037 7.74145 4.48002 7.68371 4.42229C7.62598 4.36456 7.55563 4.32102 7.47821 4.29512L7.1269 4.17786C7.11396 4.17338 7.10274 4.16497 7.0948 4.15381C7.08686 4.14265 7.08259 4.1293 7.08259 4.1156C7.08259 4.10191 7.08686 4.08855 7.0948 4.07739C7.10274 4.06623 7.11396 4.05783 7.1269 4.05334L7.47866 3.93608C7.63591 3.88382 7.75907 3.76066 7.81134 3.60341L7.92814 3.25165Z" fill="white"/>
</g>
<defs>
<clipPath id="clip0_903_107669">
<rect width="7.27157" height="7.27157" fill="white" transform="translate(2.98828 3.207)"/>
</clipPath>
</defs>
</svg>
