<svg width="12" height="12" viewBox="0 0 12 12" fill="none" xmlns="http://www.w3.org/2000/svg">
<g clip-path="url(#clip0_758_71476)">
<path d="M10.2107 7.84211V3.89475L6.92099 2.04449M5.07876 2.04449L1.78906 3.89475V7.84211M2.57859 9.07579L5.99988 11L8.10529 9.81579L9.42117 9.07553M5.99988 4.42107L6.78941 4.88159L7.57893 5.34212V7.18422L6.78941 7.64474L5.99988 8.10527L5.21035 7.64474L4.42082 7.18422V5.34212L5.21035 4.88159L5.99988 4.42107ZM5.99988 4.42107V2.57897M7.57893 7.05264L9.42117 8.10527M4.42082 7.05264L2.57859 8.10527" stroke="#222222" stroke-linecap="round" stroke-linejoin="round"/>
<path d="M6.00047 2.57894C6.43651 2.57894 6.78999 2.22548 6.78999 1.78947C6.78999 1.35346 6.43651 1 6.00047 1C5.56442 1 5.21094 1.35346 5.21094 1.78947C5.21094 2.22548 5.56442 2.57894 6.00047 2.57894Z" stroke="#222222" stroke-linecap="round" stroke-linejoin="round"/>
<path d="M1.78953 9.42105C2.22557 9.42105 2.57906 9.06759 2.57906 8.63157C2.57906 8.19556 2.22557 7.8421 1.78953 7.8421C1.35348 7.8421 1 8.19556 1 8.63157C1 9.06759 1.35348 9.42105 1.78953 9.42105Z" stroke="#222222" stroke-linecap="round" stroke-linejoin="round"/>
<path d="M10.2114 9.42105C10.6474 9.42105 11.0009 9.06759 11.0009 8.63157C11.0009 8.19556 10.6474 7.8421 10.2114 7.8421C9.77536 7.8421 9.42188 8.19556 9.42188 8.63157C9.42188 9.06759 9.77536 9.42105 10.2114 9.42105Z" stroke="#222222" stroke-linecap="round" stroke-linejoin="round"/>
</g>
<defs>
<clipPath id="clip0_758_71476">
<rect width="12" height="12" fill="white"/>
</clipPath>
</defs>
</svg>
