<svg width="11" height="12" viewBox="0 0 11 12" fill="none" xmlns="http://www.w3.org/2000/svg">
<path d="M6.34535 1.1538C6.44694 1.0522 6.56756 0.971611 6.7003 0.916627C6.83304 0.861643 6.97532 0.833344 7.119 0.833344C7.26268 0.833344 7.40495 0.861643 7.53769 0.916627C7.67044 0.971611 7.79105 1.0522 7.89265 1.1538C7.99425 1.2554 8.07484 1.37601 8.12982 1.50875C8.1848 1.6415 8.2131 1.78377 8.2131 1.92745C8.2131 2.07113 8.1848 2.2134 8.12982 2.34615C8.07484 2.47889 7.99425 2.5995 7.89265 2.7011L2.67051 7.92324L0.542969 8.50348L1.12321 6.37594L6.34535 1.1538Z" fill="black" stroke="black" stroke-width="0.708333" stroke-linecap="round" stroke-linejoin="round"/>
<path d="M8.68084 8.11227C8.72171 7.98966 8.89486 7.98966 8.93573 8.11227L9.17539 8.832C9.22814 8.99021 9.31702 9.13396 9.43498 9.25186C9.55294 9.36975 9.69674 9.45855 9.85499 9.51122L10.5743 9.75088C10.697 9.79175 10.697 9.9649 10.5743 10.0058L9.85462 10.2454C9.6964 10.2982 9.55265 10.3871 9.43475 10.505C9.31686 10.623 9.22806 10.7668 9.17539 10.925L8.93573 11.6444C8.92692 11.6712 8.90985 11.6946 8.88697 11.7112C8.86408 11.7278 8.83654 11.7367 8.80829 11.7367C8.78003 11.7367 8.75249 11.7278 8.7296 11.7112C8.70672 11.6946 8.68965 11.6712 8.68084 11.6444L8.44118 10.9247C8.38846 10.7665 8.29964 10.6228 8.18175 10.5049C8.06386 10.387 7.92013 10.2981 7.76196 10.2454L7.04223 10.0058C7.01538 9.99696 6.992 9.97989 6.97543 9.95701C6.95885 9.93412 6.94992 9.90658 6.94992 9.87833C6.94992 9.85007 6.95885 9.82253 6.97543 9.79964C6.992 9.77676 7.01538 9.75969 7.04223 9.75088L7.76196 9.51122C7.92013 9.4585 8.06386 9.36968 8.18175 9.25179C8.29964 9.1339 8.38846 8.99017 8.44118 8.832L8.68084 8.11227ZM7.24548 6.21766C7.25081 6.20157 7.26107 6.18756 7.27481 6.17764C7.28855 6.16772 7.30507 6.16237 7.32202 6.16237C7.33897 6.16237 7.35549 6.16772 7.36923 6.17764C7.38297 6.18756 7.39324 6.20157 7.39856 6.21766L7.54236 6.64942C7.60664 6.84189 7.7575 6.99274 7.94997 7.05703L8.38173 7.20082C8.39782 7.20615 8.41182 7.21641 8.42175 7.23015C8.43167 7.24389 8.43701 7.26041 8.43701 7.27736C8.43701 7.29431 8.43167 7.31083 8.42175 7.32457C8.41182 7.33831 8.39782 7.34858 8.38173 7.35391L7.94997 7.4977C7.85499 7.52923 7.76868 7.58249 7.69791 7.65325C7.62715 7.72402 7.57388 7.81033 7.54236 7.90531L7.39856 8.33707C7.39324 8.35316 7.38297 8.36716 7.36923 8.37709C7.35549 8.38701 7.33897 8.39235 7.32202 8.39235C7.30507 8.39235 7.28855 8.38701 7.27481 8.37709C7.26107 8.36716 7.25081 8.35316 7.24548 8.33707L7.10168 7.90531C7.07016 7.81033 7.0169 7.72402 6.94613 7.65325C6.87537 7.58249 6.78906 7.52923 6.69408 7.4977L6.26232 7.35391C6.24622 7.34858 6.23222 7.33831 6.2223 7.32457C6.21237 7.31083 6.20703 7.29431 6.20703 7.27736C6.20703 7.26041 6.21237 7.24389 6.2223 7.23015C6.23222 7.21641 6.24622 7.20615 6.26232 7.20082L6.69408 7.05703C6.78906 7.0255 6.87537 6.97224 6.94613 6.90147C7.0169 6.83071 7.07016 6.7444 7.10168 6.64942L7.24548 6.21766ZM9.87208 5.82789C9.87575 5.81731 9.88262 5.80813 9.89174 5.80164C9.90087 5.79515 9.91179 5.79166 9.92298 5.79166C9.93418 5.79166 9.9451 5.79515 9.95422 5.80164C9.96335 5.80813 9.97022 5.81731 9.97389 5.82789L10.0698 6.11548C10.1125 6.24404 10.2132 6.34473 10.3417 6.38746L10.6293 6.48333C10.6399 6.487 10.6491 6.49387 10.6556 6.50299C10.6621 6.51211 10.6656 6.52303 10.6656 6.53423C10.6656 6.54543 10.6621 6.55635 10.6556 6.56547C10.6491 6.5746 10.6399 6.58147 10.6293 6.58514L10.3417 6.681C10.2784 6.70218 10.2209 6.73777 10.1737 6.78497C10.1265 6.83217 10.0909 6.88969 10.0698 6.95299L9.97389 7.24058C9.97022 7.25116 9.96335 7.26033 9.95422 7.26683C9.9451 7.27332 9.93418 7.27681 9.92298 7.27681C9.91179 7.27681 9.90087 7.27332 9.89174 7.26683C9.88262 7.26033 9.87575 7.25116 9.87208 7.24058L9.77621 6.95299C9.75504 6.88969 9.71944 6.83217 9.67224 6.78497C9.62505 6.73777 9.56753 6.70218 9.50423 6.681L9.21701 6.58514C9.20643 6.58147 9.19725 6.5746 9.19076 6.56547C9.18427 6.55635 9.18078 6.54543 9.18078 6.53423C9.18078 6.52303 9.18427 6.51211 9.19076 6.50299C9.19725 6.49387 9.20643 6.487 9.21701 6.48333L9.5046 6.38746C9.63316 6.34473 9.73386 6.24404 9.77659 6.11548L9.87208 5.82789Z" fill="black"/>
</svg>
