<svg width="13" height="10" viewBox="0 0 13 10" fill="none" xmlns="http://www.w3.org/2000/svg">
<g clip-path="url(#clip0_758_71466)">
<path d="M9.76067 9.13193C9.69628 9.41572 9.66319 9.58855 9.52563 9.77926C9.43399 9.90644 9.2838 9.97947 9.13082 9.96106C8.9979 9.94516 8.86917 9.8866 8.73975 9.83542C7.24305 9.24357 6.0352 8.20147 4.81487 7.17855C4.52403 6.93475 3.91025 6.37029 3.56165 6.07372C4.41033 5.45731 4.76162 5.07608 4.76162 5.07608C6.12914 6.29588 7.72352 7.72388 9.38747 8.43814C9.65261 8.55198 9.90073 8.51506 9.76067 9.13198M8.06936 4.54737C7.68438 4.23475 7.011 3.71583 6.63086 3.41454C5.66489 2.64896 4.63464 2.01003 3.45279 1.64598C2.81265 1.4488 2.72855 0.787725 3.21251 0.203776C3.30051 0.097622 3.43802 0.027981 3.57089 0.0565451C5.77206 0.530032 7.43786 1.91578 9.29284 3.66475C8.66523 4.00542 8.06931 4.54731 8.06931 4.54731" fill="#222222"/>
<path d="M6.74442 6.18869C8.11888 4.75946 10.7875 3.03249 12.1332 2.969C12.2106 2.96535 12.2874 2.98299 12.3559 3.02011C12.4244 3.05723 12.4819 3.11248 12.5226 3.18013C12.6552 3.40105 12.698 3.66557 12.7376 3.92567C12.7758 4.17695 12.6483 4.39146 12.4163 4.45823C10.8085 4.92095 9.24702 6.04592 7.97962 7.12003C7.55331 6.91315 6.74442 6.18874 6.74442 6.18874M5.99422 3.48233C4.41532 4.83685 2.70215 6.4528 0.85002 7.03141C0.693692 7.08028 0.521092 7.03998 0.408588 6.91813C0.257301 6.75423 0.199352 6.58551 0.138058 6.42136C-0.0762689 5.84777 -0.0155245 5.67998 0.539261 5.46064C1.8415 4.94562 2.92501 4.08972 3.97334 3.17485C4.13206 3.03633 4.44696 2.77033 4.62061 2.62362C5.19491 2.78177 5.99422 3.48233 5.99422 3.48233M3.14972 8.48008C3.60248 8.24167 4.29957 7.96033 4.75393 7.69803C5.12104 8.03054 5.97096 8.693 5.97096 8.693C5.35469 9.11628 4.37174 9.74649 3.68749 9.92828C3.52207 9.97223 3.34643 9.90608 3.24191 9.76721C3.04186 9.50121 2.92616 9.21885 2.91623 8.88279C2.91124 8.71423 3.00367 8.55695 3.14972 8.48008M6.82089 1.05972C7.63008 0.556899 8.54054 0.179258 9.16441 0.0421297C9.33596 0.00443739 9.5153 0.0814117 9.60944 0.233514C9.78847 0.522745 9.8629 0.813309 9.84463 1.13121C9.83564 1.28803 9.75099 1.43033 9.61682 1.50557C9.22545 1.72521 8.52837 1.89644 8.12771 2.07608C8.12771 2.07608 7.42119 1.46377 6.82089 1.05972" fill="#222222"/>
<path d="M11.633 5.21399C12.7258 5.65009 13.1289 5.79794 12.3316 6.92942C12.2382 7.06204 12.0897 7.06291 11.9345 7.02527C11.4373 6.9046 10.5549 6.38219 10.0665 6.0903C10.9668 5.4504 11.633 5.21399 11.633 5.21399M1.27972 4.70707C1.00984 4.62778 0.496383 4.54414 0.261242 4.39701C0.154927 4.3305 0.083451 4.21471 0.0682275 4.08778C0.0295947 3.76696 0.109755 3.47804 0.26204 3.18727C0.302914 3.10947 0.36543 3.04596 0.441603 3.00483C0.517777 2.96371 0.604151 2.94685 0.689697 2.9564C1.21374 3.01619 2.16079 3.42307 2.6735 3.66394C1.93099 4.3664 1.27972 4.70707 1.27972 4.70707Z" fill="#222222"/>
</g>
<defs>
<clipPath id="clip0_758_71466">
<rect width="12.7778" height="10" fill="white"/>
</clipPath>
</defs>
</svg>
