<svg width="12" height="12" viewBox="0 0 12 12" fill="none" xmlns="http://www.w3.org/2000/svg">
<path fill-rule="evenodd" clip-rule="evenodd" d="M6 0C2.685 0 2.06194e-06 2.75298 2.06194e-06 6.15191C-0.00104246 7.44346 0.394785 8.70252 1.13128 9.7503C1.86777 10.7981 2.90749 11.5813 4.1028 11.9888C4.4028 12.0424 4.515 11.8578 4.515 11.696C4.515 11.5502 4.5072 11.0661 4.5072 10.5505C3 10.8354 2.61 10.174 2.49 9.82768C2.4222 9.65051 2.13 9.10483 1.875 8.95842C1.665 8.84338 1.365 8.55854 1.8672 8.55116C2.34 8.54316 2.6772 8.99717 2.79 9.18173C3.33 10.1119 4.1928 9.85044 4.5372 9.68926C4.59 9.28939 4.7472 9.02055 4.92 8.86675C3.585 8.71296 2.19 8.18205 2.19 5.82894C2.19 5.15961 2.4222 4.60655 2.805 4.17592C2.745 4.02212 2.535 3.39155 2.865 2.54566C2.865 2.54566 3.3672 2.38387 4.515 3.17562C5.0035 3.03698 5.50814 2.96723 6.015 2.9683C6.525 2.9683 7.035 3.0372 7.515 3.17562C8.6622 2.37587 9.165 2.54566 9.165 2.54566C9.495 3.39155 9.285 4.02212 9.225 4.17592C9.6072 4.60655 9.84 5.15223 9.84 5.82894C9.84 8.19004 8.4378 8.71296 7.1028 8.86675C7.32 9.05869 7.5078 9.42781 7.5078 10.0049C7.5078 10.8274 7.5 11.4887 7.5 11.6966C7.5 11.8578 7.6128 12.0498 7.9128 11.9882C9.10362 11.5756 10.1384 10.7907 10.8715 9.74378C11.6046 8.69689 11.9993 7.44072 12 6.15191C12 2.75298 9.315 0 6 0Z" fill="#222222"/>
</svg>
