<svg width="14" height="14" viewBox="0 0 14 14" fill="none" xmlns="http://www.w3.org/2000/svg">
<path fill-rule="evenodd" clip-rule="evenodd" d="M3.07698 0.311482C5.684 0.0226783 8.31495 0.0226783 10.922 0.311482C12.3462 0.470482 13.4945 1.59173 13.6617 3.02123C13.9707 5.66474 13.9707 8.33523 13.6617 10.9787C13.4945 12.4082 12.3462 13.5295 10.9227 13.6892C8.31546 13.9781 5.68425 13.9781 3.07698 13.6892C1.65273 13.5295 0.504479 12.4082 0.337229 10.9795C0.0282154 8.33573 0.0282154 5.66498 0.337229 3.02123C0.504479 1.59173 1.65273 0.470482 3.07698 0.311482ZM10.307 4.73498L10.937 4.13273V3.99998H8.76048L7.20873 7.86998L5.44473 3.99998H3.16173V4.13273L3.89673 5.01773C3.93273 5.0495 3.96058 5.08944 3.97793 5.13421C3.99529 5.17897 4.00165 5.22725 3.99648 5.27498V8.75573C4.00722 8.81756 4.00317 8.88106 3.98466 8.94102C3.96615 9.00099 3.9337 9.05572 3.88998 9.10073L3.06198 10.1057V10.237H5.40723V10.105L4.57998 9.10148C4.5359 9.05649 4.50271 9.00201 4.48295 8.94221C4.46319 8.88241 4.45738 8.81887 4.46598 8.75648V5.74598L6.52473 10.2377H6.76473L8.53248 5.74598V9.32573C8.53248 9.42098 8.53248 9.43898 8.46948 9.50198L7.83348 10.1192V10.2512H10.9212V10.1192L10.3077 9.51623C10.2814 9.49578 10.2609 9.46867 10.2485 9.43769C10.2361 9.4067 10.2322 9.37298 10.2372 9.33998V4.91123C10.2322 4.87824 10.2361 4.84451 10.2485 4.81353C10.2609 4.78254 10.2806 4.75543 10.307 4.73498Z" fill="black"/>
</svg>
