<svg width="14" height="14" viewBox="0 0 14 14" fill="none" xmlns="http://www.w3.org/2000/svg">
<path d="M8.57577 3.67501C8.46889 3.78405 8.40902 3.93065 8.40902 4.08334C8.40902 4.23603 8.46889 4.38263 8.57577 4.49168L9.5091 5.42501C9.61814 5.53189 9.76475 5.59176 9.91744 5.59176C10.0701 5.59176 10.2167 5.53189 10.3258 5.42501L12.5249 3.22584C12.8183 3.87404 12.9071 4.59623 12.7795 5.29618C12.652 5.99612 12.3142 6.64058 11.8111 7.14367C11.308 7.64676 10.6636 7.98458 9.9636 8.11211C9.26366 8.23964 8.54146 8.15083 7.89327 7.85751L3.86244 11.8883C3.63037 12.1204 3.31563 12.2508 2.98744 12.2508C2.65925 12.2508 2.3445 12.1204 2.11244 11.8883C1.88037 11.6563 1.75 11.3415 1.75 11.0133C1.75 10.6852 1.88037 10.3704 2.11244 10.1383L6.14327 6.10751C5.84995 5.45932 5.76114 4.73712 5.88867 4.03717C6.0162 3.33723 6.35402 2.69277 6.85711 2.18968C7.36019 1.68659 8.00465 1.34877 8.7046 1.22124C9.40455 1.09371 10.1267 1.18252 10.7749 1.47584L8.5816 3.66918L8.57577 3.67501Z" stroke="black" stroke-width="1.16667" stroke-linecap="round" stroke-linejoin="round"/>
</svg>
