<svg width="55" height="55" viewBox="0 0 55 55" fill="none" xmlns="http://www.w3.org/2000/svg">
<path d="M44.6875 37.8125C43.4736 37.8184 42.2846 38.1573 41.25 38.7922L35.9391 33.4641C37.1749 31.7209 37.8386 29.6368 37.8386 27.5C37.8386 25.3632 37.1749 23.2791 35.9391 21.5359L41.25 16.2078C42.2846 16.8427 43.4736 17.1816 44.6875 17.1875C46.0472 17.1875 47.3765 16.7843 48.507 16.0289C49.6376 15.2734 50.5188 14.1997 51.0392 12.9435C51.5595 11.6872 51.6957 10.3049 51.4304 8.97126C51.1651 7.63764 50.5103 6.41263 49.5489 5.45114C48.5874 4.48966 47.3624 3.83488 46.0287 3.5696C44.6951 3.30433 43.3128 3.44048 42.0566 3.96083C40.8003 4.48118 39.7266 5.36237 38.9712 6.49296C38.2157 7.62355 37.8125 8.95276 37.8125 10.3125C37.8184 11.5264 38.1573 12.7154 38.7922 13.75L33.4641 19.0609C31.7209 17.8252 29.6368 17.1614 27.5 17.1614C25.3632 17.1614 23.2791 17.8252 21.5359 19.0609L16.2078 13.75C16.8427 12.7154 17.1816 11.5264 17.1875 10.3125C17.1875 8.95276 16.7843 7.62355 16.0289 6.49296C15.2734 5.36237 14.1997 4.48118 12.9435 3.96083C11.6872 3.44048 10.3049 3.30433 8.97126 3.5696C7.63764 3.83488 6.41263 4.48966 5.45114 5.45114C4.48966 6.41263 3.83488 7.63764 3.5696 8.97126C3.30433 10.3049 3.44048 11.6872 3.96083 12.9435C4.48118 14.1997 5.36237 15.2734 6.49296 16.0289C7.62355 16.7843 8.95276 17.1875 10.3125 17.1875C11.5264 17.1816 12.7154 16.8427 13.75 16.2078L19.0609 21.5359C17.8252 23.2791 17.1614 25.3632 17.1614 27.5C17.1614 29.6368 17.8252 31.7209 19.0609 33.4641L13.75 38.7922C12.7154 38.1573 11.5264 37.8184 10.3125 37.8125C8.95276 37.8125 7.62355 38.2157 6.49296 38.9712C5.36237 39.7266 4.48118 40.8003 3.96083 42.0566C3.44048 43.3128 3.30433 44.6951 3.5696 46.0287C3.83488 47.3624 4.48966 48.5874 5.45114 49.5489C6.41263 50.5103 7.63764 51.1651 8.97126 51.4304C10.3049 51.6957 11.6872 51.5595 12.9435 51.0392C14.1997 50.5188 15.2734 49.6376 16.0289 48.507C16.7843 47.3765 17.1875 46.0472 17.1875 44.6875C17.1816 43.4736 16.8427 42.2846 16.2078 41.25L21.5359 35.9391C23.2791 37.1749 25.3632 37.8386 27.5 37.8386C29.6368 37.8386 31.7209 37.1749 33.4641 35.9391L38.7922 41.25C38.1573 42.2846 37.8184 43.4736 37.8125 44.6875C37.8125 46.0472 38.2157 47.3765 38.9712 48.507C39.7266 49.6376 40.8003 50.5188 42.0566 51.0392C43.3128 51.5595 44.6951 51.6957 46.0287 51.4304C47.3624 51.1651 48.5874 50.5103 49.5489 49.5489C50.5103 48.5874 51.1651 47.3624 51.4304 46.0287C51.6957 44.6951 51.5595 43.3128 51.0392 42.0566C50.5188 40.8003 49.6376 39.7266 48.507 38.9712C47.3765 38.2157 46.0472 37.8125 44.6875 37.8125ZM44.6875 6.875C45.3674 6.875 46.032 7.07661 46.5973 7.45433C47.1626 7.83204 47.6032 8.36891 47.8633 8.99703C48.1235 9.62515 48.1916 10.3163 48.059 10.9831C47.9263 11.6499 47.5989 12.2624 47.1182 12.7432C46.6374 13.2239 46.0249 13.5513 45.3581 13.684C44.6913 13.8166 44.0001 13.7485 43.372 13.4883C42.7439 13.2282 42.207 12.7876 41.8293 12.2223C41.4516 11.657 41.25 10.9924 41.25 10.3125C41.25 9.40082 41.6122 8.52648 42.2568 7.88182C42.9015 7.23717 43.7758 6.875 44.6875 6.875V6.875ZM6.875 10.3125C6.875 9.63263 7.07661 8.96802 7.45433 8.40273C7.83204 7.83744 8.36891 7.39684 8.99703 7.13667C9.62515 6.87649 10.3163 6.80842 10.9831 6.94105C11.6499 7.07369 12.2624 7.40108 12.7432 7.88182C13.2239 8.36257 13.5513 8.97507 13.684 9.64188C13.8166 10.3087 13.7485 10.9999 13.4883 11.628C13.2282 12.2561 12.7876 12.793 12.2223 13.1707C11.657 13.5484 10.9924 13.75 10.3125 13.75C9.40082 13.75 8.52648 13.3878 7.88182 12.7432C7.23717 12.0985 6.875 11.2242 6.875 10.3125V10.3125ZM10.3125 48.125C9.63263 48.125 8.96802 47.9234 8.40273 47.5457C7.83744 47.168 7.39684 46.6311 7.13667 46.003C6.87649 45.3749 6.80842 44.6837 6.94105 44.0169C7.07369 43.3501 7.40108 42.7376 7.88182 42.2568C8.36257 41.7761 8.97507 41.4487 9.64188 41.3161C10.3087 41.1834 10.9999 41.2515 11.628 41.5117C12.2561 41.7718 12.793 42.2124 13.1707 42.7777C13.5484 43.343 13.75 44.0076 13.75 44.6875C13.75 45.5992 13.3878 46.4735 12.7432 47.1182C12.0985 47.7628 11.2242 48.125 10.3125 48.125ZM27.5 34.375C26.1403 34.375 24.811 33.9718 23.6805 33.2164C22.5499 32.4609 21.6687 31.3872 21.1483 30.131C20.628 28.8747 20.4918 27.4924 20.7571 26.1588C21.0224 24.8251 21.6772 23.6001 22.6386 22.6386C23.6001 21.6772 24.8251 21.0224 26.1588 20.7571C27.4924 20.4918 28.8747 20.628 30.131 21.1483C31.3872 21.6687 32.4609 22.5499 33.2164 23.6805C33.9718 24.811 34.375 26.1403 34.375 27.5C34.375 29.3234 33.6507 31.072 32.3614 32.3614C31.072 33.6507 29.3234 34.375 27.5 34.375ZM44.6875 48.125C44.0076 48.125 43.343 47.9234 42.7777 47.5457C42.2124 47.168 41.7718 46.6311 41.5117 46.003C41.2515 45.3749 41.1834 44.6837 41.3161 44.0169C41.4487 43.3501 41.7761 42.7376 42.2568 42.2568C42.7376 41.7761 43.3501 41.4487 44.0169 41.3161C44.6837 41.1834 45.3749 41.2515 46.003 41.5117C46.6311 41.7718 47.168 42.2124 47.5457 42.7777C47.9234 43.343 48.125 44.0076 48.125 44.6875C48.125 45.5992 47.7628 46.4735 47.1182 47.1182C46.4735 47.7628 45.5992 48.125 44.6875 48.125Z" fill="#9B51E0"/>
<circle cx="10.5" cy="10.5" r="6" fill="white" stroke="#56CCF2" stroke-width="3"/>
<circle cx="10.5" cy="44.5" r="6" fill="white" stroke="#56CCF2" stroke-width="3"/>
<circle cx="44.5" cy="10.5" r="6" fill="white" stroke="#56CCF2" stroke-width="3"/>
<circle cx="44.5" cy="44.5" r="6" fill="white" stroke="#56CCF2" stroke-width="3"/>
</svg>
