<svg width="24" height="40" viewBox="0 0 24 40" fill="none" xmlns="http://www.w3.org/2000/svg">
<path d="M0.62498 39.5L0.083313 34.7333L6.25831 17.725C6.79998 18.2306 7.38715 18.6545 8.01981 18.9968C8.65104 19.3406 9.32776 19.6028 10.05 19.7833L4.09165 36.1417L0.62498 39.5ZM23.375 39.5L19.9083 36.1417L13.95 19.7833C14.6722 19.6028 15.3496 19.3406 15.9823 18.9968C16.6135 18.6545 17.2 18.2306 17.7416 17.725L23.9166 34.7333L23.375 39.5ZM12 17.8333C10.1944 17.8333 8.6597 17.2014 7.39581 15.9375C6.13192 14.6736 5.49998 13.1389 5.49998 11.3333C5.49998 9.925 5.90587 8.66978 6.71765 7.56767C7.53087 6.467 8.56942 5.7 9.83331 5.26667V0.5H14.1666V5.26667C15.4305 5.7 16.4691 6.467 17.2823 7.56767C18.0941 8.66978 18.5 9.925 18.5 11.3333C18.5 13.1389 17.868 14.6736 16.6041 15.9375C15.3403 17.2014 13.8055 17.8333 12 17.8333ZM12 13.5C12.6139 13.5 13.1288 13.292 13.5448 12.876C13.9594 12.4614 14.1666 11.9472 14.1666 11.3333C14.1666 10.7194 13.9594 10.2045 13.5448 9.7885C13.1288 9.37395 12.6139 9.16667 12 9.16667C11.3861 9.16667 10.8719 9.37395 10.4573 9.7885C10.0413 10.2045 9.83331 10.7194 9.83331 11.3333C9.83331 11.9472 10.0413 12.4614 10.4573 12.876C10.8719 13.292 11.3861 13.5 12 13.5Z" fill="#56CCF2"/>
</svg>
