<svg width="54" height="54" viewBox="0 0 54 54" fill="none" xmlns="http://www.w3.org/2000/svg">
<path d="M25.7063 31.5H9V9H31.5V19.755C34.1631 18.0353 37.3842 17.4024 40.5 17.9865V13.5H36V9C35.9964 7.80762 35.5212 6.6651 34.6781 5.82195C33.8349 4.97881 32.6924 4.50356 31.5 4.5H27V0H22.5V4.5H18V0H13.5V4.5H9C7.80762 4.50356 6.6651 4.97881 5.82195 5.82195C4.97881 6.6651 4.50356 7.80762 4.5 9V13.5H0V18H4.5V22.5H0V27H4.5V31.5C4.50356 32.6924 4.97881 33.8349 5.82195 34.6781C6.6651 35.5212 7.80762 35.9964 9 36H13.5V40.5H18V36H22.5V40.5H27V36.018C26.2865 34.6075 25.8475 33.0743 25.7063 31.5Z" fill="#9B51E0"/>
<path d="M29.0054 30.1794C29.0054 28.6219 29.4672 27.0994 30.3325 25.8043C31.1979 24.5093 32.4278 23.4999 33.8667 22.9039C35.3057 22.3079 36.8891 22.1519 38.4167 22.4558C39.9443 22.7596 41.3475 23.5096 42.4488 24.611C43.5502 25.7123 44.3002 27.1155 44.6041 28.6431C44.9079 30.1707 44.752 31.7541 44.1559 33.1931C43.5599 34.632 42.5505 35.862 41.2555 36.7273C39.9604 37.5926 38.4379 38.0544 36.8804 38.0544C35.8461 38.0547 34.822 37.8513 33.8664 37.4556C32.9108 37.06 32.0426 36.4799 31.3112 35.7486C30.5799 35.0173 29.9999 34.149 29.6042 33.1934C29.2086 32.2379 29.0051 31.2137 29.0054 30.1794ZM36.8804 42.5544C31.6244 42.5544 21.1304 45.1937 21.1304 50.4294V53.8044H52.6304V50.4294C52.6304 45.1914 42.1364 42.5544 36.8804 42.5544Z" fill="#56CCF2"/>
</svg>
