<svg width="61" height="67" viewBox="0 0 61 67" fill="none" xmlns="http://www.w3.org/2000/svg">
<path d="M54.1667 41.3746V19.1871L35.6771 8.78711M25.323 8.78711L6.83337 19.1871V41.3746M11.2709 48.309L30.5 59.1246L42.3334 52.4684L49.7292 48.3075M30.5 22.1455V11.7913M39.375 36.9371L49.7292 42.8538M21.625 36.9371L11.2709 42.8538M26.0625 24.734L21.625 27.3225V37.6767L26.0625 40.2653L30.5 42.8538L34.9375 40.2653L39.375 37.6767V27.3225L34.9375 24.734L30.5 22.1455L26.0625 24.734Z" stroke="#9B51E0" stroke-width="4" stroke-linecap="round" stroke-linejoin="round"/>
<path d="M30.5 11.7915C32.9508 11.7915 34.9375 9.80477 34.9375 7.354C34.9375 4.90324 32.9508 2.9165 30.5 2.9165C28.0492 2.9165 26.0625 4.90324 26.0625 7.354C26.0625 9.80477 28.0492 11.7915 30.5 11.7915Z" stroke="#56CCF2" stroke-width="4" stroke-linecap="round" stroke-linejoin="round"/>
<path d="M6.83337 50.25C9.28414 50.25 11.2709 48.2633 11.2709 45.8125C11.2709 43.3617 9.28414 41.375 6.83337 41.375C4.38261 41.375 2.39587 43.3617 2.39587 45.8125C2.39587 48.2633 4.38261 50.25 6.83337 50.25Z" stroke="#56CCF2" stroke-width="4" stroke-linecap="round" stroke-linejoin="round"/>
<path d="M54.1667 50.25C56.6175 50.25 58.6042 48.2633 58.6042 45.8125C58.6042 43.3617 56.6175 41.375 54.1667 41.375C51.716 41.375 49.7292 43.3617 49.7292 45.8125C49.7292 48.2633 51.716 50.25 54.1667 50.25Z" stroke="#56CCF2" stroke-width="4" stroke-linecap="round" stroke-linejoin="round"/>
</svg>
