<svg width="46" height="47" viewBox="0 0 46 47" fill="none" xmlns="http://www.w3.org/2000/svg">
<g clip-path="url(#clip0_348_3750)">
<path fill-rule="evenodd" clip-rule="evenodd" d="M45.4739 1.32485C45.6385 1.45979 45.771 1.6296 45.862 1.82201C45.953 2.01443 46.0001 2.22464 46 2.43748V42.6875C45.9998 43.0197 45.8846 43.3416 45.6739 43.5984C45.4631 43.8552 45.17 44.0311 44.8442 44.0962L30.4692 46.9712C30.2832 47.0083 30.0918 47.0083 29.9058 46.9712L15.8125 44.1537L1.71925 46.9712C1.51078 47.0129 1.29566 47.0078 1.0894 46.9563C0.883131 46.9049 0.690851 46.8083 0.526411 46.6735C0.36197 46.5388 0.229463 46.3692 0.138436 46.1771C0.0474093 45.985 0.000128377 45.7751 0 45.5625L0 5.31248C0.000200623 4.98028 0.115449 4.65841 0.32615 4.40159C0.536851 4.14476 0.829998 3.96884 1.15575 3.90373L15.5307 1.02873C15.7167 0.991554 15.9083 0.991554 16.0943 1.02873L30.1875 3.84623L44.2808 1.02873C44.4891 0.9868 44.7043 0.991612 44.9106 1.04282C45.1169 1.09402 45.3093 1.19035 45.4739 1.32485V1.32485ZM28.75 6.49123L17.25 4.19123V41.5087L28.75 43.8087V6.49123ZM31.625 43.8087L43.125 41.5087V4.19123L31.625 6.49123V43.8087ZM14.375 41.5087V4.19123L2.875 6.49123V43.8087L14.375 41.5087Z" fill="#56CCF2"/>
</g>
<path d="M16 42.5L15.5 2L30 5V45.5L16 42.5Z" stroke="#9B51E0" stroke-width="3" stroke-linejoin="round"/>
<defs>
<clipPath id="clip0_348_3750">
<rect width="46" height="46" fill="white" transform="translate(0 1)"/>
</clipPath>
</defs>
</svg>
