<svg width="34" height="33" viewBox="0 0 34 33" fill="none" xmlns="http://www.w3.org/2000/svg">
<path d="M26.25 18.125V29.5H3.5V6.75H11.6575C11.7388 5.59625 12.015 4.5075 12.4375 3.5H3.5C1.7125 3.5 0.25 4.9625 0.25 6.75V29.5C0.25 31.2875 1.7125 32.75 3.5 32.75H26.25C28.0375 32.75 29.5 31.2875 29.5 29.5V21.375L26.25 18.125ZM23.8125 26.25H5.9375L10.4063 20.5138L13.5913 24.3487L18.06 18.5963L23.8125 26.25ZM28.3625 11.4463C29.0775 10.3088 29.5 8.9925 29.5 7.5625C29.5 3.51625 26.2338 0.25 22.1875 0.25C18.1413 0.25 14.875 3.51625 14.875 7.5625C14.875 11.6088 18.1413 14.875 22.1713 14.875C23.6013 14.875 24.9338 14.4525 26.055 13.7375L31.125 18.8075L33.4325 16.5L28.3625 11.4463ZM22.1875 11.625C21.1101 11.625 20.0767 11.197 19.3149 10.4351C18.553 9.67325 18.125 8.63994 18.125 7.5625C18.125 6.48506 18.553 5.45175 19.3149 4.68988C20.0767 3.92801 21.1101 3.5 22.1875 3.5C23.2649 3.5 24.2983 3.92801 25.0601 4.68988C25.822 5.45175 26.25 6.48506 26.25 7.5625C26.25 8.63994 25.822 9.67325 25.0601 10.4351C24.2983 11.197 23.2649 11.625 22.1875 11.625Z" fill="#56CCF2"/>
</svg>
