<svg width="71" height="53" viewBox="0 0 71 53" fill="none" xmlns="http://www.w3.org/2000/svg">
<g clip-path="url(#clip0_347_3157)">
<path d="M53.7296 48.1595C53.3816 49.6471 53.2028 50.5531 52.4593 51.5528C51.964 52.2195 51.1522 52.6023 50.3254 52.5058C49.607 52.4224 48.9113 52.1154 48.2117 51.8472C40.1224 48.7447 33.5943 43.282 26.9987 37.9199C25.4267 36.6419 22.1094 33.683 20.2253 32.1284C24.8122 28.8972 26.7108 26.8988 26.7108 26.8988C34.102 33.293 42.7192 40.7785 51.7125 44.5226C53.1456 45.1194 54.4866 44.9259 53.7296 48.1598M44.5885 24.1273C42.5077 22.4886 38.8683 19.7684 36.8137 18.189C31.5928 14.1758 26.0245 10.8266 19.6369 8.91827C16.1771 7.88465 15.7226 4.4193 18.3382 1.35825C18.8138 0.801792 19.5571 0.436735 20.2752 0.586468C32.172 3.06848 41.1753 10.3325 51.2011 19.5006C47.809 21.2864 44.5882 24.127 44.5882 24.127" fill="#9B51E0"/>
<path d="M37.4216 32.7313C44.8503 25.2393 59.2735 16.1865 66.547 15.8537C66.965 15.8346 67.3804 15.9271 67.7504 16.1216C68.1205 16.3162 68.4315 16.6058 68.6515 16.9604C69.368 18.1185 69.5995 19.5051 69.8134 20.8685C70.0201 22.1858 69.3308 23.3102 68.0769 23.6602C59.3871 26.0858 50.9476 31.9829 44.0976 37.6133C41.7935 36.5289 37.4216 32.7316 37.4216 32.7316M33.367 18.5446C24.8333 25.6449 15.574 34.1157 5.56369 37.1488C4.71877 37.405 3.78591 37.1937 3.17784 36.555C2.36017 35.6958 2.04697 34.8114 1.71569 33.9509C0.5573 30.9442 0.885611 30.0646 3.8841 28.9149C10.9224 26.2151 16.7786 21.7285 22.4445 16.9328C23.3024 16.2067 25.0044 14.8123 25.9429 14.0432C29.0469 14.8723 33.367 18.5446 33.367 18.5446M17.9931 44.7427C20.4401 43.493 24.2077 42.0182 26.6635 40.6432C28.6476 42.3862 33.2413 45.8588 33.2413 45.8588C29.9104 48.0777 24.5978 51.3812 20.8996 52.3342C20.0055 52.5645 19.0562 52.2178 18.4913 51.4898C17.4101 50.0954 16.7848 48.6153 16.7311 46.8537C16.7041 45.9701 17.2037 45.1457 17.9931 44.7427M37.8349 5.84529C42.2084 3.20951 47.1293 1.22992 50.5011 0.511098C51.4283 0.313516 52.3976 0.717014 52.9064 1.51433C53.8741 3.03048 54.2763 4.55361 54.1776 6.22002C54.129 7.04207 53.6715 7.78805 52.9463 8.18241C50.8311 9.33376 47.0635 10.2314 44.898 11.173C44.898 11.173 41.0794 7.96332 37.8349 5.84529" fill="#56CCF2"/>
<path d="M63.8521 27.6218C69.7587 29.9079 71.9374 30.6829 67.6283 36.6141C67.123 37.3093 66.3205 37.3138 65.482 37.1165C62.7946 36.484 58.0256 33.7455 55.3856 32.2154C60.2517 28.8611 63.8521 27.6218 63.8521 27.6218M7.89509 24.9645C6.43644 24.5489 3.66132 24.1105 2.39043 23.3393C1.81582 22.9906 1.42951 22.3836 1.34723 21.7183C1.13843 20.0365 1.57168 18.522 2.39475 16.9978C2.61566 16.59 2.95355 16.257 3.36525 16.0415C3.77695 15.8259 4.24378 15.7375 4.70614 15.7876C7.53845 16.101 12.6571 18.2338 15.4281 19.4965C11.415 23.1788 7.89509 24.9645 7.89509 24.9645Z" fill="#9B51E0"/>
</g>
<defs>
<clipPath id="clip0_347_3157">
<rect width="69.0611" height="52.4198" fill="white" transform="translate(0.969482 0.290039)"/>
</clipPath>
</defs>
</svg>
