<svg width="66" height="66" viewBox="0 0 66 66" fill="none" xmlns="http://www.w3.org/2000/svg">
<path fill-rule="evenodd" clip-rule="evenodd" d="M33 0C14.7675 0 0 14.7675 0 33C0 47.6025 9.44625 59.9362 22.5637 64.3087C24.2137 64.5975 24.8325 63.6075 24.8325 62.7412C24.8325 61.9575 24.7913 59.3587 24.7913 56.595C16.5 58.1212 14.355 54.5737 13.695 52.7175C13.3238 51.7687 11.715 48.84 10.3125 48.0562C9.1575 47.4375 7.5075 45.9112 10.2712 45.87C12.87 45.8287 14.7262 48.2625 15.345 49.2525C18.315 54.2437 23.0588 52.8412 24.9562 51.975C25.245 49.83 26.1112 48.3862 27.06 47.5612C19.7175 46.7362 12.045 43.89 12.045 31.2675C12.045 27.6787 13.3238 24.7087 15.4275 22.3987C15.0975 21.5737 13.9425 18.1912 15.7575 13.6537C15.7575 13.6537 18.5212 12.7875 24.8325 17.0362C27.4725 16.2937 30.2775 15.9225 33.0825 15.9225C35.8875 15.9225 38.6925 16.2937 41.3325 17.0362C47.6437 12.7462 50.4075 13.6537 50.4075 13.6537C52.2225 18.1912 51.0675 21.5737 50.7375 22.3987C52.8413 24.7087 54.12 27.6375 54.12 31.2675C54.12 43.9312 46.4062 46.7362 39.0638 47.5612C40.26 48.5925 41.2913 50.5725 41.2913 53.6662C41.2913 58.08 41.25 61.6275 41.25 62.7412C41.25 63.6075 41.8687 64.6387 43.5187 64.3087C50.0697 62.097 55.7622 57.8866 59.7951 52.2703C63.8279 46.6539 65.998 39.9143 66 33C66 14.7675 51.2325 0 33 0Z" fill="#9B51E0"/>
</svg>
