<svg width="40" height="32" viewBox="0 0 40 32" fill="none" xmlns="http://www.w3.org/2000/svg">
<path d="M19.2813 8.45625C19.725 8.0625 19.9 7.44375 19.6688 6.89375C19.525 6.5625 19.3688 6.2375 19.1938 5.925L19 5.5875C18.8125 5.275 18.6063 4.96875 18.3875 4.675C18.0313 4.2 17.4063 4.04375 16.8438 4.23125L15.0813 4.8125C14.4125 4.2625 13.6438 3.8125 12.8188 3.50625L12.4375 1.69375C12.3188 1.1125 11.8688 0.65 11.2813 0.58125C10.8563 0.525 10.4313 0.5 10 0.5C9.56878 0.5 9.14378 0.525 8.72503 0.575C8.13753 0.64375 7.68753 1.1125 7.56878 1.6875L7.18753 3.50625C6.35628 3.81875 5.59378 4.2625 4.92503 4.8125L3.15628 4.2375C2.59378 4.05 1.96878 4.20625 1.61253 4.68125C1.39378 4.975 1.18753 5.28125 0.993776 5.59375L0.806276 5.925C0.631276 6.2375 0.475026 6.5625 0.331276 6.9C0.100026 7.44375 0.275026 8.0625 0.718776 8.4625L2.10628 9.7C2.03753 10.1187 2.00003 10.5562 2.00003 11C2.00003 11.4438 2.03753 11.8812 2.10628 12.3062L0.718776 13.5437C0.275026 13.9375 0.100026 14.5562 0.331276 15.1062C0.475026 15.4375 0.631276 15.7625 0.806276 16.0812L0.993776 16.4062C1.18128 16.725 1.38753 17.025 1.61253 17.3188C1.96878 17.7938 2.59378 17.95 3.15628 17.7625L4.91878 17.1812C5.58753 17.7312 6.35628 18.1812 7.18128 18.4875L7.56253 20.3062C7.68128 20.8875 8.13128 21.35 8.71878 21.4188C9.13753 21.4688 9.56253 21.4937 9.99378 21.4937C10.425 21.4937 10.85 21.4688 11.2688 21.4188C11.8563 21.35 12.3063 20.8813 12.425 20.3062L12.8063 18.4875C13.6375 18.175 14.4 17.7312 15.0688 17.1812L16.8313 17.7625C17.3938 17.95 18.0188 17.7938 18.375 17.3188C18.5938 17.025 18.8 16.725 18.9875 16.4062L19.1813 16.0688C19.3563 15.7563 19.5125 15.4313 19.6563 15.1C19.8875 14.5563 19.7125 13.9375 19.2688 13.5375L17.8813 12.3C17.95 11.875 17.9875 11.4375 17.9875 10.9937C17.9875 10.55 17.95 10.1125 17.8813 9.6875L19.2688 8.45L19.2813 8.45625ZM13 11C13 12.6562 11.6563 14 10 14C8.34378 14 7.00003 12.6562 7.00003 11C7.00003 9.34375 8.34378 8 10 8C11.6563 8 13 9.34375 13 11ZM31.5438 31.2812C31.9375 31.725 32.5563 31.9 33.1063 31.6688C33.4375 31.525 33.7625 31.3687 34.075 31.1938L34.4125 31C34.725 30.8125 35.0313 30.6063 35.325 30.3875C35.8 30.0312 35.9563 29.4062 35.7688 28.8438L35.1875 27.0812C35.7375 26.4125 36.1875 25.6438 36.4938 24.8188L38.3125 24.4375C38.8938 24.3188 39.3563 23.8687 39.425 23.2812C39.475 22.8625 39.5 22.4375 39.5 22.0063C39.5 21.575 39.475 21.15 39.425 20.7313C39.3563 20.1438 38.8875 19.6938 38.3125 19.575L36.4938 19.1875C36.1813 18.3563 35.7375 17.5938 35.1875 16.925L35.7688 15.1625C35.9563 14.6 35.8 13.975 35.325 13.6187C35.0313 13.4 34.725 13.1938 34.4125 13L34.0813 12.8125C33.7688 12.6375 33.4438 12.4812 33.1063 12.3375C32.5625 12.1062 31.9438 12.2812 31.5438 12.725L30.3063 14.1125C29.8813 14.0437 29.4438 14.0063 29 14.0063C28.5563 14.0063 28.1188 14.0437 27.6938 14.1125L26.4563 12.725C26.0625 12.2812 25.4438 12.1062 24.8938 12.3375C24.5625 12.4812 24.2375 12.6375 23.9188 12.8125L23.5938 13C23.275 13.1875 22.975 13.3937 22.6813 13.6187C22.2063 13.975 22.05 14.6 22.2375 15.1625L22.8188 16.925C22.2688 17.5938 21.8188 18.3625 21.5125 19.1875L19.6938 19.5625C19.1125 19.6812 18.65 20.1313 18.5813 20.7188C18.5313 21.1375 18.5063 21.5625 18.5063 21.9937C18.5063 22.425 18.5313 22.85 18.5813 23.2687C18.65 23.8562 19.1188 24.3062 19.6938 24.425L21.5125 24.8062C21.825 25.6375 22.2688 26.4 22.8188 27.0688L22.2375 28.8312C22.05 29.3937 22.2063 30.0187 22.6813 30.375C22.975 30.5938 23.275 30.8 23.5938 30.9875L23.9313 31.1812C24.2438 31.3562 24.5688 31.5125 24.9 31.6562C25.4438 31.8875 26.0625 31.7125 26.4625 31.2687L27.7 29.8813C28.125 29.95 28.5625 29.9875 29.0063 29.9875C29.45 29.9875 29.8875 29.95 30.3125 29.8813L31.55 31.2687L31.5438 31.2812ZM29 25C27.3438 25 26 23.6562 26 22C26 20.3438 27.3438 19 29 19C30.6563 19 32 20.3438 32 22C32 23.6562 30.6563 25 29 25Z" fill="#56CCF2"/>
</svg>
