<svg width="31" height="36" viewBox="0 0 31 36" fill="none" xmlns="http://www.w3.org/2000/svg">
<path d="M29.8301 30.9023C29.9941 31.1719 30.1172 31.4473 30.1992 31.7285C30.2812 32.0098 30.3223 32.3086 30.3223 32.625C30.3223 33.0937 30.2344 33.5332 30.0586 33.9434C29.8828 34.3535 29.6426 34.7109 29.3379 35.0156C29.0332 35.3203 28.6758 35.5605 28.2656 35.7363C27.8555 35.9121 27.416 36 26.9473 36H3.375C2.90625 36 2.4668 35.9121 2.05664 35.7363C1.64648 35.5605 1.28906 35.3203 0.984375 35.0156C0.679687 34.7109 0.439453 34.3535 0.263672 33.9434C0.0878906 33.5332 0 33.0937 0 32.625C0 32.3086 0.0351562 32.0098 0.105469 31.7285C0.175781 31.4473 0.298828 31.1719 0.474609 30.9023L10.4766 13.4648C10.5937 13.3008 10.6523 13.1016 10.6523 12.8672V2.25H8.40234V0H21.9023V2.25H19.6523V12.8672C19.6523 13.0898 19.7109 13.2949 19.8281 13.4824L29.8301 30.9023ZM12.9023 12.8672C12.9023 13.4883 12.7441 14.0684 12.4277 14.6074L6.60938 24.75H23.6953L17.877 14.6074C17.5605 14.0684 17.4023 13.4883 17.4023 12.8672V2.25H12.9023V12.8672Z" fill="#56CCF2"/>
</svg>
