<svg width="70" height="73" viewBox="0 0 70 73" fill="none" xmlns="http://www.w3.org/2000/svg">
<path d="M57.504 41.0718C58.0185 41.091 58.5317 41.0063 59.0127 40.8226C59.4937 40.639 59.9328 40.3602 60.3036 40.0029C60.6745 39.6457 60.9694 39.2174 61.1709 38.7435C61.3724 38.2697 61.4762 37.76 61.4762 37.2451C61.4762 36.7302 61.3724 36.2206 61.1709 35.7468C60.9694 35.2729 60.6745 34.8446 60.3036 34.4873C59.9328 34.1301 59.4937 33.8513 59.0127 33.6677C58.5317 33.484 58.0185 33.3993 57.504 33.4185C57.4213 33.4185 57.344 33.4345 57.2587 33.4398L55.9733 28.3731C56.3983 28.0542 56.7519 27.6499 57.0115 27.1862C57.2711 26.7226 57.4309 26.2098 57.4807 25.6808C57.5305 25.1517 57.4692 24.6181 57.3007 24.1142C57.1322 23.6102 56.8602 23.1471 56.5023 22.7544C56.1443 22.3617 55.7082 22.0481 55.222 21.8338C54.7357 21.6196 54.21 21.5093 53.6787 21.51C53.1473 21.5108 52.622 21.6226 52.1363 21.8383C51.6507 22.054 51.2155 22.3688 50.8587 22.7625L37.8187 16.7011C37.9549 16.3137 38.027 15.9065 38.032 15.4958C38.0455 14.9846 37.9565 14.4759 37.7701 13.9996C37.5838 13.5234 37.304 13.0893 36.9472 12.723C36.5904 12.3566 36.1639 12.0655 35.6927 11.8667C35.2216 11.6679 34.7154 11.5654 34.204 11.5654C33.6926 11.5654 33.1864 11.6679 32.7153 11.8667C32.2441 12.0655 31.8176 12.3566 31.4608 12.723C31.104 13.0893 30.8242 13.5234 30.6378 13.9996C30.4515 14.4759 30.3625 14.9846 30.376 15.4958C30.3825 15.6262 30.3959 15.7561 30.416 15.8851L22.112 18.4318C21.5386 17.7193 20.7281 17.2366 19.8285 17.0718C18.9289 16.907 17.9999 17.071 17.2112 17.5339C16.4224 17.9969 15.8262 18.7279 15.5314 19.5937C15.2367 20.4595 15.2629 21.4024 15.6053 22.2505L7.792 29.2265C7.20264 28.8656 6.52574 28.6728 5.83467 28.6691C4.9199 28.6647 4.034 28.9891 3.33833 29.5831C2.64267 30.1771 2.18354 31.0013 2.04459 31.9055C1.90563 32.8096 2.09611 33.7336 2.5813 34.5091C3.0665 35.2846 3.81413 35.86 4.688 36.1305L4.17067 41.1065C3.58752 41.1873 3.03097 41.4019 2.54449 41.7335C2.05801 42.0651 1.65479 42.5046 1.36631 43.0178C1.07784 43.531 0.911931 44.104 0.881552 44.6919C0.851174 45.2798 0.957147 45.8669 1.19119 46.4071C1.42524 46.9473 1.78101 47.426 2.23073 47.806C2.68044 48.1859 3.21192 48.4567 3.78362 48.5972C4.35533 48.7378 4.95178 48.7442 5.52639 48.616C6.10099 48.4879 6.63819 48.2286 7.096 47.8585L9.672 48.9918L9.664 49.0718C9.66781 50.0254 10.0278 50.9432 10.6733 51.6451C11.3188 52.347 12.2033 52.7824 13.1532 52.8658C14.1032 52.9493 15.05 52.6748 15.8081 52.0963C16.5661 51.5177 17.0806 50.6768 17.2507 49.7385H20.1947C20.4257 50.5705 20.9323 51.2995 21.6316 51.8061C22.3309 52.3127 23.1814 52.5671 24.044 52.5274C24.9066 52.4878 25.7302 52.1565 26.3801 51.5879C27.03 51.0192 27.4676 50.2469 27.6213 49.3971L35.9067 49.6691C36.5132 50.1924 37.2716 50.5072 38.0704 50.5672C38.8692 50.6272 39.6661 50.4293 40.344 50.0025C45.0212 52.5544 48.9663 56.2627 51.8027 60.7731C51.6157 61.2275 51.5188 61.7138 51.5173 62.2051C51.5137 62.8596 51.6778 63.504 51.9941 64.0769C52.3103 64.6498 52.7681 65.1322 53.3238 65.4779C53.8795 65.8235 54.5145 66.0211 55.1682 66.0516C55.8219 66.082 56.4725 65.9445 57.0579 65.652C57.6434 65.3596 58.1441 64.922 58.5123 64.3809C58.8805 63.8399 59.1039 63.2136 59.1612 62.5617C59.2185 61.9098 59.1078 61.2541 58.8396 60.6571C58.5715 60.0602 58.1548 59.5419 57.6293 59.1518C56.2897 57.2026 55.3489 55.0075 54.8613 52.6931C55.5178 52.4847 56.1052 52.1013 56.5603 51.5842C57.0153 51.0671 57.321 50.4358 57.4443 49.7581C57.5677 49.0804 57.5041 48.3819 57.2605 47.7377C57.0168 47.0934 56.6023 46.5276 56.0613 46.1011L57.5013 41.0718H57.504ZM59.0107 37.2451C59.0101 37.5424 58.9215 37.8328 58.7561 38.0797C58.5906 38.3266 58.3557 38.519 58.081 38.6325C57.8063 38.746 57.5041 38.7756 57.2126 38.7174C56.9211 38.6593 56.6534 38.5161 56.4432 38.306C56.233 38.0958 56.0898 37.828 56.0317 37.5365C55.9736 37.245 56.0031 36.9429 56.1166 36.6682C56.2301 36.3934 56.4225 36.1585 56.6694 35.9931C56.9163 35.8276 57.2068 35.739 57.504 35.7385C57.9036 35.7385 58.2868 35.8972 58.5694 36.1798C58.8519 36.4623 59.0107 36.8455 59.0107 37.2451ZM55.96 33.7465C55.3352 34.0257 54.7968 34.4674 54.401 35.0255C54.0051 35.5837 53.7662 36.2379 53.7093 36.9198H50.72C50.6762 36.3988 50.5255 35.8924 50.2772 35.4322C50.029 34.972 49.6886 34.5679 49.2773 34.2451L53.0293 29.0905C53.6039 29.2064 54.1988 29.1696 54.7547 28.9838L55.96 33.7465ZM49.896 48.5918L42.168 46.6131C42.1367 45.7507 41.8121 44.9248 41.248 44.2718L44.368 40.0718C44.8469 40.5227 45.4381 40.8366 46.0799 40.9806C46.7217 41.1246 47.3904 41.0935 48.016 40.8905L51.3547 46.0478C50.9555 46.3544 50.621 46.7371 50.3706 47.1738C50.1202 47.6104 49.9589 48.0924 49.896 48.5918V48.5918ZM22.0027 23.3598L32.8853 29.0558C32.6529 29.7319 32.637 30.4636 32.84 31.1491L25.8533 34.7411C25.4977 34.3272 25.0571 33.9946 24.5616 33.7659C24.066 33.5373 23.5271 33.4178 22.9813 33.4158C22.9493 33.4158 22.92 33.4238 22.888 33.4265L20.3733 24.4398C21.0011 24.2275 21.5626 23.8553 22.0027 23.3598V23.3598ZM51.7333 28.6105L48.088 33.6131C47.4732 33.4007 46.8128 33.356 46.1749 33.4835C45.537 33.6109 44.9446 33.9061 44.4587 34.3385L40.216 31.1385C40.3619 30.682 40.3939 30.1968 40.3093 29.7251L50.1947 26.8985C50.5213 27.6111 51.0583 28.2066 51.7333 28.6051V28.6105ZM46.9227 38.7491C46.6253 38.7486 46.3348 38.66 46.0878 38.4944C45.8408 38.3288 45.6485 38.0937 45.5351 37.8189C45.4216 37.544 45.3922 37.2417 45.4506 36.9501C45.5089 36.6585 45.6523 36.3908 45.8628 36.1807C46.0732 35.9706 46.3412 35.8277 46.6329 35.7698C46.9246 35.712 47.2268 35.742 47.5015 35.8559C47.7762 35.9698 48.0109 36.1626 48.176 36.4098C48.3412 36.6571 48.4293 36.9478 48.4293 37.2451C48.4286 37.6443 48.2696 38.0268 47.9871 38.3088C47.7046 38.5908 47.3218 38.7491 46.9227 38.7491V38.7491ZM36.5253 31.6825C36.2281 31.6819 35.9377 31.5934 35.6908 31.4279C35.4438 31.2624 35.2515 31.0275 35.138 30.7528C35.0245 30.4781 34.9949 30.1759 35.053 29.8844C35.1111 29.5929 35.2543 29.3252 35.4645 29.115C35.6747 28.9048 35.9424 28.7616 36.2339 28.7035C36.5254 28.6454 36.8276 28.6749 37.1023 28.7885C37.377 28.902 37.612 29.0943 37.7774 29.3412C37.9429 29.5882 38.0315 29.8786 38.032 30.1758C38.0313 30.5749 37.8722 30.9575 37.5898 31.2395C37.3073 31.5214 36.9245 31.6798 36.5253 31.6798V31.6825ZM22.9787 35.7385C23.276 35.7385 23.5667 35.8266 23.814 35.9918C24.0612 36.1569 24.254 36.3916 24.3679 36.6663C24.4818 36.941 24.5118 37.2432 24.454 37.5349C24.3961 37.8266 24.2532 38.0946 24.0431 38.305C23.833 38.5155 23.5653 38.6589 23.2737 38.7173C22.9821 38.7756 22.6798 38.7462 22.405 38.6328C22.1301 38.5193 21.895 38.327 21.7294 38.08C21.5638 37.833 21.4752 37.5425 21.4747 37.2451C21.4747 36.8455 21.6334 36.4623 21.916 36.1798C22.1985 35.8972 22.5817 35.7385 22.9813 35.7385H22.9787ZM26.808 37.2451C26.8056 36.7787 26.717 36.3167 26.5467 35.8825L33.3947 32.3625C33.7463 32.8679 34.2148 33.2809 34.7604 33.5665C35.3059 33.852 35.9123 34.0016 36.528 34.0025L36.592 33.9971L35.4347 43.7571L25.0187 45.0745C24.8099 45.008 24.5958 44.9598 24.3787 44.9305L23.5867 41.0105C24.483 40.8669 25.299 40.4094 25.8891 39.7196C26.4792 39.0299 26.8049 38.1528 26.808 37.2451V37.2451ZM23.8667 47.1998C24.1639 47.2003 24.4543 47.2889 24.7012 47.4544C24.9482 47.6199 25.1405 47.8548 25.254 48.1295C25.3675 48.4042 25.3971 48.7064 25.339 48.9979C25.2809 49.2894 25.1377 49.5571 24.9275 49.7673C24.7173 49.9775 24.4496 50.1207 24.1581 50.1788C23.8666 50.2369 23.5644 50.2073 23.2897 50.0938C23.015 49.9803 22.78 49.788 22.6146 49.541C22.4491 49.2941 22.3605 49.0037 22.36 48.7065C22.36 48.3069 22.5187 47.9237 22.8013 47.6411C23.0838 47.3585 23.4671 47.1998 23.8667 47.1998V47.1998ZM26.736 46.1998L34.8773 45.1731C34.6494 45.6626 34.5301 46.1957 34.5278 46.7357C34.5255 47.2757 34.6402 47.8097 34.864 48.3011L27.6293 48.0665C27.5102 47.3735 27.201 46.7272 26.736 46.1998V46.1998ZM37.9707 33.7145C38.6449 33.4381 39.2266 32.9756 39.648 32.3811L43.6107 35.3678C43.2895 35.9111 43.1135 36.5278 43.0995 37.1587C43.0855 37.7896 43.234 38.4135 43.5307 38.9705L40.216 43.4238C39.708 43.1297 39.1378 42.9595 38.5517 42.9271C37.9655 42.8946 37.38 43.0009 36.8427 43.2371L37.9707 33.7145ZM53.6773 23.8265C53.9748 23.8265 54.2656 23.9147 54.5129 24.0799C54.7602 24.2452 54.953 24.4801 55.0668 24.7549C55.1807 25.0297 55.2105 25.3321 55.1524 25.6239C55.0944 25.9156 54.9512 26.1836 54.7408 26.394C54.5305 26.6043 54.2625 26.7475 53.9707 26.8056C53.679 26.8636 53.3766 26.8338 53.1018 26.72C52.827 26.6062 52.5921 26.4134 52.4268 26.1661C52.2615 25.9187 52.1733 25.6279 52.1733 25.3305C52.174 24.9313 52.3331 24.5488 52.6156 24.2668C52.898 23.9848 53.2809 23.8265 53.68 23.8265H53.6773ZM50.136 23.8958C49.9487 24.351 49.8518 24.8383 49.8507 25.3305C49.8507 25.4238 49.872 25.5118 49.8773 25.6051L39.9253 28.4478C39.608 27.8182 39.1227 27.2887 38.5231 26.9179C37.9235 26.547 37.233 26.3492 36.528 26.3465C36.4133 26.3465 36.3013 26.3731 36.1893 26.3811L34.8 19.2611C35.739 19.1124 36.5885 18.6178 37.1813 17.8745L50.136 23.8958ZM34.2027 13.9865C34.5 13.9865 34.7907 14.0746 35.038 14.2398C35.2852 14.4049 35.478 14.6396 35.5919 14.9143C35.7058 15.189 35.7358 15.4912 35.678 15.7829C35.6201 16.0746 35.4772 16.3426 35.2671 16.553C35.057 16.7635 34.7893 16.9069 34.4977 16.9652C34.2061 17.0236 33.9038 16.9942 33.629 16.8808C33.3541 16.7673 33.119 16.575 32.9534 16.328C32.7878 16.081 32.6992 15.7905 32.6987 15.4931C32.6987 15.094 32.857 14.7112 33.139 14.4287C33.421 14.1462 33.8035 13.9872 34.2027 13.9865ZM30.7787 17.1651C31.0338 17.6909 31.4058 18.1514 31.8661 18.5114C32.3264 18.8714 32.8629 19.1215 33.4347 19.2425L34.896 26.7225C34.344 26.9866 33.8631 27.3788 33.4933 27.8665L22.7067 22.2238C23.0489 21.3947 23.0707 20.4681 22.768 19.6238L30.7787 17.1651ZM19.152 19.3198C19.4493 19.3198 19.74 19.4079 19.9873 19.5731C20.2346 19.7382 20.4273 19.973 20.5413 20.2476C20.6552 20.5223 20.6851 20.8246 20.6273 21.1162C20.5695 21.4079 20.4265 21.6759 20.2164 21.8864C20.0064 22.0968 19.7386 22.2402 19.447 22.2986C19.1555 22.3569 18.8532 22.3275 18.5783 22.2141C18.3034 22.1007 18.0683 21.9083 17.9028 21.6613C17.7372 21.4143 17.6485 21.1238 17.648 20.8265C17.648 20.4273 17.8064 20.0445 18.0883 19.762C18.3703 19.4796 18.7529 19.3205 19.152 19.3198V19.3198ZM19.0453 24.6425L21.5787 33.6878C20.8466 33.9774 20.2212 34.4847 19.7867 35.1411L9.656 32.5571L9.664 32.4958C9.65954 31.6237 9.35438 30.7798 8.8 30.1065L16.3307 23.3891C16.6747 23.7703 17.0923 24.0779 17.5584 24.2933C18.0245 24.5087 18.5294 24.6275 19.0427 24.6425H19.0453ZM6.22933 44.8745C6.22933 45.1719 6.14112 45.4627 5.97586 45.7101C5.8106 45.9574 5.57571 46.1502 5.30089 46.264C5.02607 46.3778 4.72366 46.4076 4.43192 46.3496C4.14017 46.2915 3.87218 46.1483 3.66184 45.938C3.45151 45.7276 3.30826 45.4596 3.25023 45.1679C3.1922 44.8761 3.22198 44.5737 3.33582 44.2989C3.44965 44.0241 3.64242 43.7892 3.88975 43.6239C4.13709 43.4587 4.42787 43.3705 4.72533 43.3705C5.124 43.3712 5.50614 43.5299 5.78804 43.8118C6.06994 44.0937 6.22863 44.4758 6.22933 44.8745V44.8745ZM5.50933 41.1278L6.01333 36.3065C6.75287 36.2717 7.46638 36.0228 8.06713 35.5901C8.66789 35.1574 9.13001 34.5596 9.39733 33.8691L19.2587 36.3838C19.1318 36.8866 19.1191 37.4114 19.2213 37.9198L7.64 42.4265C7.09428 41.7675 6.34296 41.3111 5.50667 41.1305L5.50933 41.1278ZM5.83467 30.9891C6.13201 30.9891 6.42269 31.0773 6.66996 31.2424C6.91724 31.4076 7.11001 31.6423 7.22392 31.917C7.33784 32.1916 7.36777 32.4939 7.30996 32.7856C7.25214 33.0773 7.10916 33.3452 6.89909 33.5557C6.68902 33.7661 6.42128 33.9096 6.12971 33.9679C5.83814 34.0262 5.53582 33.9968 5.26095 33.8834C4.98609 33.77 4.75101 33.5776 4.58543 33.3307C4.41985 33.0837 4.33119 32.7932 4.33067 32.4958C4.33066 32.0967 4.48904 31.7139 4.77101 31.4314C5.05299 31.1489 5.43553 30.9898 5.83467 30.9891ZM8.01333 46.8025C8.30529 46.3268 8.48449 45.7907 8.53718 45.2351C8.58987 44.6795 8.51467 44.1192 8.31733 43.5971L19.6933 39.1705C19.9508 39.6103 20.2937 39.9943 20.7017 40.2997C21.1098 40.6052 21.5747 40.826 22.0693 40.9491L17.096 47.8371C16.8468 47.0971 16.3764 46.4514 15.7482 45.9876C15.12 45.5237 14.3645 45.264 13.5839 45.2436C12.8033 45.2233 12.0353 45.4432 11.3838 45.8737C10.7323 46.3042 10.2287 46.9244 9.94133 47.6505L8.01333 46.8025ZM13.4907 50.5758C13.1934 50.5753 12.903 50.4867 12.6561 50.3212C12.4092 50.1558 12.2168 49.9208 12.1033 49.6461C11.9898 49.3714 11.9602 49.0692 12.0184 48.7777C12.0765 48.4862 12.2197 48.2185 12.4298 48.0083C12.64 47.7981 12.9078 47.655 13.1993 47.5968C13.4908 47.5387 13.7929 47.5683 14.0677 47.6818C14.3424 47.7953 14.5773 47.9876 14.7428 48.2346C14.9082 48.4815 14.9968 48.7719 14.9973 49.0691C14.9973 49.4687 14.8386 49.852 14.556 50.1345C14.2735 50.4171 13.8903 50.5758 13.4907 50.5758V50.5758ZM22.576 41.7598L23.0533 44.9651C22.2524 45.1423 21.5296 45.5724 20.9918 46.1918C20.454 46.8113 20.1297 47.5872 20.0667 48.4051H18.2L22.576 41.7598ZM38.352 48.2531C38.0548 48.2526 37.7643 48.164 37.5174 47.9986C37.2705 47.8331 37.0781 47.5982 36.9646 47.3235C36.8511 47.0488 36.8216 46.7466 36.8797 46.4551C36.9378 46.1636 37.081 45.8958 37.2912 45.6857C37.5014 45.4755 37.7691 45.3323 38.0606 45.2742C38.3521 45.2161 38.6543 45.2456 38.929 45.3591C39.2037 45.4726 39.4386 45.665 39.6041 45.9119C39.7695 46.1588 39.8581 46.4492 39.8587 46.7465C39.8587 47.1461 39.6999 47.5293 39.4174 47.8118C39.1348 48.0944 38.7516 48.2531 38.352 48.2531ZM55.3467 63.7065C55.0492 63.7065 54.7584 63.6183 54.5111 63.453C54.2638 63.2877 54.071 63.0529 53.9572 62.778C53.8433 62.5032 53.8135 62.2008 53.8716 61.9091C53.9296 61.6173 54.0728 61.3493 54.2832 61.139C54.4935 60.9287 54.7615 60.7854 55.0532 60.7274C55.345 60.6693 55.6474 60.6991 55.9222 60.813C56.197 60.9268 56.4319 61.1196 56.5972 61.3669C56.7625 61.6142 56.8507 61.905 56.8507 62.2025C56.85 62.6011 56.6913 62.9833 56.4094 63.2652C56.1275 63.5471 55.7453 63.7058 55.3467 63.7065ZM55.3467 58.3731C54.8383 58.3732 54.3351 58.4749 53.8666 58.6723C53.3981 58.8697 52.9738 59.1587 52.6187 59.5225C49.7796 55.1743 45.927 51.5806 41.392 49.0505C41.6139 48.7595 41.7927 48.4379 41.9227 48.0958L49.984 50.0238C50.1909 50.8248 50.6521 51.537 51.2984 52.0535C51.9447 52.5699 52.7411 52.8627 53.568 52.8878C53.8994 54.8409 54.6008 56.7127 55.6347 58.4025C55.536 58.3945 55.4453 58.3758 55.3467 58.3758V58.3731ZM53.6773 50.5758C53.38 50.5758 53.0893 50.4877 52.842 50.3225C52.5948 50.1574 52.402 49.9226 52.2881 49.648C52.1742 49.3733 52.1442 49.071 52.202 48.7794C52.2599 48.4877 52.4028 48.2197 52.6129 48.0093C52.823 47.7988 53.0907 47.6554 53.3823 47.597C53.6739 47.5387 53.9762 47.5681 54.251 47.6815C54.5259 47.795 54.761 47.9873 54.9266 48.2343C55.0921 48.4813 55.1808 48.7718 55.1813 49.0691C55.1813 49.4683 55.023 49.8511 54.741 50.1336C54.459 50.4161 54.0765 50.5751 53.6773 50.5758V50.5758ZM54.8613 45.4478C54.1127 45.1768 53.2937 45.1712 52.5413 45.4318L49.2107 40.2905C49.8847 39.7838 50.3723 39.0684 50.5973 38.2558H53.832C53.9936 38.8392 54.2913 39.3759 54.7006 39.8218C55.11 40.2678 55.6193 40.6103 56.1867 40.8211L54.8613 45.4478Z" fill="#56CCF2" fill-opacity="0.4"/>
<path d="M63.504 32.0718C64.0185 32.091 64.5317 32.0063 65.0127 31.8226C65.4937 31.639 65.9328 31.3602 66.3036 31.0029C66.6745 30.6457 66.9694 30.2174 67.1709 29.7435C67.3724 29.2697 67.4762 28.76 67.4762 28.2451C67.4762 27.7302 67.3724 27.2206 67.1709 26.7468C66.9694 26.2729 66.6745 25.8446 66.3036 25.4873C65.9328 25.1301 65.4937 24.8513 65.0127 24.6677C64.5317 24.484 64.0185 24.3993 63.504 24.4185C63.4213 24.4185 63.344 24.4345 63.2587 24.4398L61.9733 19.3731C62.3983 19.0542 62.7519 18.6499 63.0115 18.1862C63.2711 17.7226 63.4309 17.2098 63.4807 16.6808C63.5305 16.1517 63.4692 15.6181 63.3007 15.1142C63.1322 14.6102 62.8602 14.1471 62.5023 13.7544C62.1443 13.3617 61.7082 13.0481 61.222 12.8338C60.7357 12.6196 60.21 12.5093 59.6787 12.51C59.1473 12.5108 58.622 12.6226 58.1363 12.8383C57.6507 13.054 57.2155 13.3688 56.8587 13.7625L43.8187 7.70114C43.9549 7.31365 44.027 6.90652 44.032 6.49581C44.0455 5.98461 43.9565 5.47588 43.7701 4.99965C43.5838 4.52341 43.304 4.08932 42.9472 3.72298C42.5904 3.35664 42.1639 3.06547 41.6927 2.86667C41.2216 2.66786 40.7154 2.56543 40.204 2.56543C39.6926 2.56543 39.1864 2.66786 38.7153 2.86667C38.2441 3.06547 37.8176 3.35664 37.4608 3.72298C37.104 4.08932 36.8242 4.52341 36.6378 4.99965C36.4515 5.47588 36.3625 5.98461 36.376 6.49581C36.3825 6.62619 36.3959 6.75615 36.416 6.88514L28.112 9.43181C27.5386 8.7193 26.7281 8.23662 25.8285 8.0718C24.9289 7.90698 23.9999 8.07099 23.2112 8.53392C22.4224 8.99686 21.8262 9.72787 21.5314 10.5937C21.2367 11.4595 21.2629 12.4024 21.6053 13.2505L13.792 20.2265C13.2026 19.8656 12.5257 19.6728 11.8347 19.6691C10.9199 19.6647 10.034 19.9891 9.33833 20.5831C8.64267 21.1771 8.18354 22.0013 8.04459 22.9055C7.90563 23.8096 8.09611 24.7336 8.5813 25.5091C9.0665 26.2846 9.81413 26.86 10.688 27.1305L10.1707 32.1065C9.58752 32.1873 9.03097 32.4019 8.54449 32.7335C8.05801 33.0651 7.65479 33.5046 7.36631 34.0178C7.07784 34.531 6.91193 35.104 6.88155 35.6919C6.85117 36.2798 6.95715 36.8669 7.19119 37.4071C7.42524 37.9473 7.78101 38.426 8.23073 38.806C8.68044 39.1859 9.21192 39.4567 9.78362 39.5972C10.3553 39.7378 10.9518 39.7442 11.5264 39.616C12.101 39.4879 12.6382 39.2286 13.096 38.8585L15.672 39.9918L15.664 40.0718C15.6678 41.0254 16.0278 41.9432 16.6733 42.6451C17.3188 43.347 18.2033 43.7824 19.1532 43.8658C20.1032 43.9493 21.05 43.6748 21.8081 43.0963C22.5661 42.5177 23.0806 41.6768 23.2507 40.7385H26.1947C26.4257 41.5705 26.9323 42.2995 27.6316 42.8061C28.3309 43.3127 29.1814 43.5671 30.044 43.5274C30.9066 43.4878 31.7302 43.1565 32.3801 42.5879C33.03 42.0192 33.4676 41.2469 33.6213 40.3971L41.9067 40.6691C42.5132 41.1924 43.2716 41.5072 44.0704 41.5672C44.8692 41.6272 45.6661 41.4293 46.344 41.0025C51.0212 43.5544 54.9663 47.2627 57.8027 51.7731C57.6157 52.2275 57.5188 52.7138 57.5173 53.2051C57.5137 53.8596 57.6778 54.504 57.9941 55.0769C58.3103 55.6498 58.7681 56.1322 59.3238 56.4779C59.8795 56.8235 60.5145 57.0211 61.1682 57.0516C61.8219 57.082 62.4725 56.9445 63.0579 56.652C63.6434 56.3596 64.1441 55.922 64.5123 55.3809C64.8805 54.8399 65.1039 54.2136 65.1612 53.5617C65.2185 52.9098 65.1078 52.2541 64.8396 51.6571C64.5715 51.0602 64.1548 50.5419 63.6293 50.1518C62.2897 48.2026 61.3489 46.0075 60.8613 43.6931C61.5178 43.4847 62.1052 43.1013 62.5603 42.5842C63.0153 42.0671 63.321 41.4358 63.4443 40.7581C63.5677 40.0804 63.5041 39.3819 63.2605 38.7377C63.0168 38.0934 62.6023 37.5276 62.0613 37.1011L63.5013 32.0718H63.504ZM65.0107 28.2451C65.0101 28.5424 64.9215 28.8328 64.7561 29.0797C64.5906 29.3266 64.3557 29.519 64.081 29.6325C63.8063 29.746 63.5041 29.7756 63.2126 29.7174C62.9211 29.6593 62.6534 29.5161 62.4432 29.306C62.233 29.0958 62.0898 28.828 62.0317 28.5365C61.9736 28.245 62.0031 27.9429 62.1166 27.6682C62.2301 27.3934 62.4225 27.1585 62.6694 26.9931C62.9163 26.8276 63.2068 26.739 63.504 26.7385C63.9036 26.7385 64.2868 26.8972 64.5694 27.1798C64.8519 27.4623 65.0107 27.8455 65.0107 28.2451ZM61.96 24.7465C61.3352 25.0257 60.7968 25.4674 60.401 26.0255C60.0051 26.5837 59.7662 27.2379 59.7093 27.9198H56.72C56.6762 27.3988 56.5255 26.8924 56.2772 26.4322C56.029 25.972 55.6886 25.5679 55.2773 25.2451L59.0293 20.0905C59.6039 20.2064 60.1988 20.1696 60.7547 19.9838L61.96 24.7465ZM55.896 39.5918L48.168 37.6131C48.1367 36.7507 47.8121 35.9248 47.248 35.2718L50.368 31.0718C50.8469 31.5227 51.4381 31.8366 52.0799 31.9806C52.7217 32.1246 53.3904 32.0935 54.016 31.8905L57.3547 37.0478C56.9555 37.3544 56.621 37.7371 56.3706 38.1738C56.1202 38.6104 55.9589 39.0924 55.896 39.5918V39.5918ZM28.0027 14.3598L38.8853 20.0558C38.6529 20.7319 38.637 21.4636 38.84 22.1491L31.8533 25.7411C31.4977 25.3272 31.0571 24.9946 30.5616 24.7659C30.066 24.5373 29.5271 24.4178 28.9813 24.4158C28.9493 24.4158 28.92 24.4238 28.888 24.4265L26.3733 15.4398C27.0011 15.2275 27.5626 14.8553 28.0027 14.3598V14.3598ZM57.7333 19.6105L54.088 24.6131C53.4732 24.4007 52.8128 24.356 52.1749 24.4835C51.537 24.6109 50.9446 24.9061 50.4587 25.3385L46.216 22.1385C46.3619 21.682 46.3939 21.1968 46.3093 20.7251L56.1947 17.8985C56.5213 18.6111 57.0583 19.2066 57.7333 19.6051V19.6105ZM52.9227 29.7491C52.6253 29.7486 52.3348 29.66 52.0878 29.4944C51.8408 29.3288 51.6485 29.0937 51.5351 28.8189C51.4216 28.544 51.3922 28.2417 51.4506 27.9501C51.5089 27.6585 51.6523 27.3908 51.8628 27.1807C52.0732 26.9706 52.3412 26.8277 52.6329 26.7698C52.9246 26.712 53.2268 26.742 53.5015 26.8559C53.7762 26.9698 54.0109 27.1626 54.176 27.4098C54.3412 27.6571 54.4293 27.9478 54.4293 28.2451C54.4286 28.6443 54.2696 29.0268 53.9871 29.3088C53.7046 29.5908 53.3218 29.7491 52.9227 29.7491V29.7491ZM42.5253 22.6825C42.2281 22.6819 41.9377 22.5934 41.6908 22.4279C41.4438 22.2624 41.2515 22.0275 41.138 21.7528C41.0245 21.4781 40.9949 21.1759 41.053 20.8844C41.1111 20.5929 41.2543 20.3252 41.4645 20.115C41.6747 19.9048 41.9424 19.7616 42.2339 19.7035C42.5254 19.6454 42.8276 19.6749 43.1023 19.7885C43.377 19.902 43.612 20.0943 43.7774 20.3412C43.9429 20.5882 44.0315 20.8786 44.032 21.1758C44.0313 21.5749 43.8722 21.9575 43.5898 22.2395C43.3073 22.5214 42.9245 22.6798 42.5253 22.6798V22.6825ZM28.9787 26.7385C29.276 26.7385 29.5667 26.8266 29.814 26.9918C30.0612 27.1569 30.254 27.3916 30.3679 27.6663C30.4818 27.941 30.5118 28.2432 30.454 28.5349C30.3961 28.8266 30.2532 29.0946 30.0431 29.305C29.833 29.5155 29.5653 29.6589 29.2737 29.7173C28.9821 29.7756 28.6798 29.7462 28.405 29.6328C28.1301 29.5193 27.895 29.327 27.7294 29.08C27.5638 28.833 27.4752 28.5425 27.4747 28.2451C27.4747 27.8455 27.6334 27.4623 27.916 27.1798C28.1985 26.8972 28.5817 26.7385 28.9813 26.7385H28.9787ZM32.808 28.2451C32.8056 27.7787 32.717 27.3167 32.5467 26.8825L39.3947 23.3625C39.7463 23.8679 40.2148 24.2809 40.7604 24.5665C41.3059 24.852 41.9123 25.0016 42.528 25.0025L42.592 24.9971L41.4347 34.7571L31.0187 36.0745C30.8099 36.008 30.5958 35.9598 30.3787 35.9305L29.5867 32.0105C30.483 31.8669 31.299 31.4094 31.8891 30.7196C32.4792 30.0299 32.8049 29.1528 32.808 28.2451V28.2451ZM29.8667 38.1998C30.1639 38.2003 30.4543 38.2889 30.7012 38.4544C30.9482 38.6199 31.1405 38.8548 31.254 39.1295C31.3675 39.4042 31.3971 39.7064 31.339 39.9979C31.2809 40.2894 31.1377 40.5571 30.9275 40.7673C30.7173 40.9775 30.4496 41.1207 30.1581 41.1788C29.8666 41.2369 29.5644 41.2073 29.2897 41.0938C29.015 40.9803 28.78 40.788 28.6146 40.541C28.4491 40.2941 28.3605 40.0037 28.36 39.7065C28.36 39.3069 28.5187 38.9237 28.8013 38.6411C29.0838 38.3585 29.4671 38.1998 29.8667 38.1998V38.1998ZM32.736 37.1998L40.8773 36.1731C40.6494 36.6626 40.5301 37.1957 40.5278 37.7357C40.5255 38.2757 40.6402 38.8097 40.864 39.3011L33.6293 39.0665C33.5102 38.3735 33.201 37.7272 32.736 37.1998V37.1998ZM43.9707 24.7145C44.6449 24.4381 45.2266 23.9756 45.648 23.3811L49.6107 26.3678C49.2895 26.9111 49.1135 27.5278 49.0995 28.1587C49.0855 28.7896 49.234 29.4135 49.5307 29.9705L46.216 34.4238C45.708 34.1297 45.1378 33.9595 44.5517 33.9271C43.9655 33.8946 43.38 34.0009 42.8427 34.2371L43.9707 24.7145ZM59.6773 14.8265C59.9748 14.8265 60.2656 14.9147 60.5129 15.0799C60.7602 15.2452 60.953 15.4801 61.0668 15.7549C61.1807 16.0297 61.2105 16.3321 61.1524 16.6239C61.0944 16.9156 60.9512 17.1836 60.7408 17.394C60.5305 17.6043 60.2625 17.7475 59.9707 17.8056C59.679 17.8636 59.3766 17.8338 59.1018 17.72C58.827 17.6062 58.5921 17.4134 58.4268 17.1661C58.2615 16.9187 58.1733 16.6279 58.1733 16.3305C58.174 15.9313 58.3331 15.5488 58.6156 15.2668C58.898 14.9848 59.2809 14.8265 59.68 14.8265H59.6773ZM56.136 14.8958C55.9487 15.351 55.8518 15.8383 55.8507 16.3305C55.8507 16.4238 55.872 16.5118 55.8773 16.6051L45.9253 19.4478C45.608 18.8182 45.1227 18.2887 44.5231 17.9179C43.9235 17.547 43.233 17.3492 42.528 17.3465C42.4133 17.3465 42.3013 17.3731 42.1893 17.3811L40.8 10.2611C41.739 10.1124 42.5885 9.61777 43.1813 8.87447L56.136 14.8958ZM40.2027 4.98647C40.5 4.98647 40.7907 5.07461 41.038 5.23976C41.2852 5.4049 41.478 5.63964 41.5919 5.9143C41.7058 6.18897 41.7358 6.49124 41.678 6.78291C41.6201 7.07458 41.4772 7.34258 41.2671 7.55302C41.057 7.76346 40.7893 7.90692 40.4977 7.96525C40.2061 8.02358 39.9038 7.99418 39.629 7.88075C39.3541 7.76733 39.119 7.57497 38.9534 7.32799C38.7878 7.08101 38.6992 6.79049 38.6987 6.49314C38.6987 6.09401 38.857 5.71119 39.139 5.42871C39.421 5.14623 39.8035 4.98718 40.2027 4.98647ZM36.7787 8.16514C37.0338 8.69089 37.4058 9.15137 37.8661 9.5114C38.3264 9.87143 38.8629 10.1215 39.4347 10.2425L40.896 17.7225C40.344 17.9866 39.8631 18.3788 39.4933 18.8665L28.7067 13.2238C29.0489 12.3947 29.0707 11.4681 28.768 10.6238L36.7787 8.16514ZM25.152 10.3198C25.4493 10.3198 25.74 10.4079 25.9873 10.5731C26.2346 10.7382 26.4273 10.973 26.5413 11.2476C26.6552 11.5223 26.6851 11.8246 26.6273 12.1162C26.5695 12.4079 26.4265 12.6759 26.2164 12.8864C26.0064 13.0968 25.7386 13.2402 25.447 13.2986C25.1555 13.3569 24.8532 13.3275 24.5783 13.2141C24.3034 13.1007 24.0683 12.9083 23.9028 12.6613C23.7372 12.4143 23.6485 12.1238 23.648 11.8265C23.648 11.4273 23.8064 11.0445 24.0883 10.762C24.3703 10.4796 24.7529 10.3205 25.152 10.3198V10.3198ZM25.0453 15.6425L27.5787 24.6878C26.8466 24.9774 26.2212 25.4847 25.7867 26.1411L15.656 23.5571L15.664 23.4958C15.6595 22.6237 15.3544 21.7798 14.8 21.1065L22.3307 14.3891C22.6747 14.7703 23.0923 15.0779 23.5584 15.2933C24.0245 15.5087 24.5294 15.6275 25.0427 15.6425H25.0453ZM12.2293 35.8745C12.2293 36.1719 12.1411 36.4627 11.9759 36.7101C11.8106 36.9574 11.5757 37.1502 11.3009 37.264C11.0261 37.3778 10.7237 37.4076 10.4319 37.3496C10.1402 37.2915 9.87218 37.1483 9.66184 36.938C9.45151 36.7276 9.30826 36.4596 9.25023 36.1679C9.1922 35.8761 9.22198 35.5737 9.33582 35.2989C9.44965 35.0241 9.64242 34.7892 9.88975 34.6239C10.1371 34.4587 10.4279 34.3705 10.7253 34.3705C11.124 34.3712 11.5061 34.5299 11.788 34.8118C12.0699 35.0937 12.2286 35.4758 12.2293 35.8745V35.8745ZM11.5093 32.1278L12.0133 27.3065C12.7529 27.2717 13.4664 27.0228 14.0671 26.5901C14.6679 26.1574 15.13 25.5596 15.3973 24.8691L25.2587 27.3838C25.1318 27.8866 25.1191 28.4114 25.2213 28.9198L13.64 33.4265C13.0943 32.7675 12.343 32.3111 11.5067 32.1305L11.5093 32.1278ZM11.8347 21.9891C12.132 21.9891 12.4227 22.0773 12.67 22.2424C12.9172 22.4076 13.11 22.6423 13.2239 22.917C13.3378 23.1916 13.3678 23.4939 13.31 23.7856C13.2521 24.0773 13.1092 24.3452 12.8991 24.5557C12.689 24.7661 12.4213 24.9096 12.1297 24.9679C11.8381 25.0262 11.5358 24.9968 11.261 24.8834C10.9861 24.77 10.751 24.5776 10.5854 24.3307C10.4198 24.0837 10.3312 23.7932 10.3307 23.4958C10.3307 23.0967 10.489 22.7139 10.771 22.4314C11.053 22.1489 11.4355 21.9898 11.8347 21.9891ZM14.0133 37.8025C14.3053 37.3268 14.4845 36.7907 14.5372 36.2351C14.5899 35.6795 14.5147 35.1192 14.3173 34.5971L25.6933 30.1705C25.9508 30.6103 26.2937 30.9943 26.7017 31.2997C27.1098 31.6052 27.5747 31.826 28.0693 31.9491L23.096 38.8371C22.8468 38.0971 22.3764 37.4514 21.7482 36.9876C21.12 36.5237 20.3645 36.264 19.5839 36.2436C18.8033 36.2233 18.0353 36.4432 17.3838 36.8737C16.7323 37.3042 16.2287 37.9244 15.9413 38.6505L14.0133 37.8025ZM19.4907 41.5758C19.1934 41.5753 18.903 41.4867 18.6561 41.3212C18.4092 41.1558 18.2168 40.9208 18.1033 40.6461C17.9898 40.3714 17.9602 40.0692 18.0184 39.7777C18.0765 39.4862 18.2197 39.2185 18.4298 39.0083C18.64 38.7981 18.9078 38.655 19.1993 38.5968C19.4908 38.5387 19.7929 38.5683 20.0677 38.6818C20.3424 38.7953 20.5773 38.9876 20.7428 39.2346C20.9082 39.4815 20.9968 39.7719 20.9973 40.0691C20.9973 40.4687 20.8386 40.852 20.556 41.1345C20.2735 41.4171 19.8903 41.5758 19.4907 41.5758V41.5758ZM28.576 32.7598L29.0533 35.9651C28.2524 36.1423 27.5296 36.5724 26.9918 37.1918C26.454 37.8113 26.1297 38.5872 26.0667 39.4051H24.2L28.576 32.7598ZM44.352 39.2531C44.0548 39.2526 43.7643 39.164 43.5174 38.9986C43.2705 38.8331 43.0781 38.5982 42.9646 38.3235C42.8511 38.0488 42.8216 37.7466 42.8797 37.4551C42.9378 37.1636 43.081 36.8958 43.2912 36.6857C43.5014 36.4755 43.7691 36.3323 44.0606 36.2742C44.3521 36.2161 44.6543 36.2456 44.929 36.3591C45.2037 36.4726 45.4386 36.665 45.6041 36.9119C45.7695 37.1588 45.8581 37.4492 45.8587 37.7465C45.8587 38.1461 45.6999 38.5293 45.4174 38.8118C45.1348 39.0944 44.7516 39.2531 44.352 39.2531ZM61.3467 54.7065C61.0492 54.7065 60.7584 54.6183 60.5111 54.453C60.2638 54.2877 60.071 54.0529 59.9572 53.778C59.8433 53.5032 59.8135 53.2008 59.8716 52.9091C59.9296 52.6173 60.0728 52.3493 60.2832 52.139C60.4935 51.9287 60.7615 51.7854 61.0532 51.7274C61.345 51.6693 61.6474 51.6991 61.9222 51.813C62.197 51.9268 62.4319 52.1196 62.5972 52.3669C62.7625 52.6142 62.8507 52.905 62.8507 53.2025C62.85 53.6011 62.6913 53.9833 62.4094 54.2652C62.1275 54.5471 61.7453 54.7058 61.3467 54.7065ZM61.3467 49.3731C60.8383 49.3732 60.3351 49.4749 59.8666 49.6723C59.3981 49.8697 58.9738 50.1587 58.6187 50.5225C55.7796 46.1743 51.927 42.5806 47.392 40.0505C47.6139 39.7595 47.7927 39.4379 47.9227 39.0958L55.984 41.0238C56.1909 41.8248 56.6521 42.537 57.2984 43.0535C57.9447 43.5699 58.7411 43.8627 59.568 43.8878C59.8994 45.8409 60.6008 47.7127 61.6347 49.4025C61.536 49.3945 61.4453 49.3758 61.3467 49.3758V49.3731ZM59.6773 41.5758C59.38 41.5758 59.0893 41.4877 58.842 41.3225C58.5948 41.1574 58.402 40.9226 58.2881 40.648C58.1742 40.3733 58.1442 40.071 58.202 39.7794C58.2599 39.4877 58.4028 39.2197 58.6129 39.0093C58.823 38.7988 59.0907 38.6554 59.3823 38.597C59.6739 38.5387 59.9762 38.5681 60.251 38.6815C60.5259 38.795 60.761 38.9873 60.9266 39.2343C61.0921 39.4813 61.1808 39.7718 61.1813 40.0691C61.1813 40.4683 61.023 40.8511 60.741 41.1336C60.459 41.4161 60.0765 41.5751 59.6773 41.5758V41.5758ZM60.8613 36.4478C60.1127 36.1768 59.2937 36.1712 58.5413 36.4318L55.2107 31.2905C55.8847 30.7838 56.3723 30.0684 56.5973 29.2558H59.832C59.9936 29.8392 60.2913 30.3759 60.7006 30.8218C61.11 31.2678 61.6193 31.6103 62.1867 31.8211L60.8613 36.4478Z" fill="#9B51E0"/>
</svg>
