<svg width="61" height="61" viewBox="0 0 61 61" fill="none" xmlns="http://www.w3.org/2000/svg">
<g clip-path="url(#clip0_347_3051)">
<path d="M56.8148 36.5661L48.4443 31.7708V22.1802C48.4438 21.88 48.3635 21.5853 48.2116 21.3262C48.0598 21.0672 47.8419 20.8532 47.5801 20.7061L38.3623 15.4194C38.1048 15.2707 37.8126 15.1924 37.5151 15.1924C37.2177 15.1924 36.9255 15.2707 36.6679 15.4194L27.4501 20.7061C27.1884 20.8532 26.9704 21.0672 26.8186 21.3262C26.6668 21.5853 26.5865 21.88 26.586 22.1802V31.7708L18.2154 36.5661C17.9568 36.7153 17.7423 36.9303 17.5935 37.1892C17.4447 37.4481 17.367 37.7417 17.3682 38.0402V48.6136C17.37 48.9093 17.4491 49.1994 17.5977 49.455C17.7464 49.7106 17.9593 49.9229 18.2154 50.0708L27.4501 55.3574C27.7077 55.5062 27.9999 55.5845 28.2973 55.5845C28.5948 55.5845 28.887 55.5062 29.1446 55.3574L37.5321 50.5622L45.9196 55.3574C46.1762 55.5097 46.4684 55.5916 46.7668 55.5947C47.0594 55.5886 47.3454 55.5069 47.5971 55.3574L56.8318 50.0708C57.0879 49.9229 57.3008 49.7106 57.4495 49.455C57.5981 49.1994 57.6772 48.9093 57.679 48.6136V38.0402C57.6785 37.74 57.5982 37.4453 57.4464 37.1862C57.2945 36.9272 57.0766 36.7132 56.8148 36.5661ZM37.5151 18.8422L45.0554 23.163V32.1944L37.4982 36.5322L29.9748 32.1266V23.163L37.5151 18.8422ZM28.2804 51.9347L20.7571 47.6308V38.9722L28.6871 34.4311L36.1426 38.7858V47.4444L28.2804 51.9347ZM54.2223 47.6308L46.699 51.9347L38.8537 47.4444V38.8536L46.411 34.4988L54.2223 38.9722V47.6308Z" fill="#9B51E0"/>
<path d="M11.8612 46.4787C11.4118 46.4787 10.9808 46.3001 10.663 45.9824C10.3453 45.6646 10.1667 45.2336 10.1667 44.7842V33.7195C10.1564 33.4124 10.2298 33.1082 10.379 32.8396C10.5282 32.571 10.7477 32.348 11.014 32.1945L19.4015 27.3992V17.8595C19.4003 17.5609 19.478 17.2673 19.6268 17.0084C19.7756 16.7496 19.9901 16.5346 20.2487 16.3853L29.0767 11.302C29.2701 11.19 29.4838 11.1173 29.7054 11.0882C29.927 11.0591 30.1521 11.0741 30.3679 11.1323C30.5837 11.1906 30.7858 11.291 30.9626 11.4277C31.1394 11.5644 31.2874 11.7348 31.3981 11.9289C31.5095 12.1233 31.5812 12.3379 31.609 12.5602C31.6369 12.7825 31.6205 13.0081 31.5606 13.224C31.5007 13.4399 31.3986 13.6417 31.2602 13.8179C31.1218 13.9941 30.9498 14.1411 30.7542 14.2503L22.7903 18.7914V28.382C22.7898 28.6822 22.7095 28.977 22.5577 29.236C22.4059 29.495 22.1879 29.709 21.9262 29.8562L13.5556 34.7023V44.7842C13.5556 45.2336 13.3771 45.6646 13.0593 45.9824C12.7416 46.3001 12.3106 46.4787 11.8612 46.4787Z" fill="#56CCF2"/>
<path d="M5.08336 42.446C4.63397 42.446 4.20298 42.2675 3.88521 41.9498C3.56744 41.632 3.38892 41.201 3.38892 40.7516V29.7038C3.3907 29.4081 3.46984 29.118 3.61847 28.8624C3.7671 28.6067 3.98004 28.3944 4.23614 28.2466L12.7084 23.4344V13.8438C12.7101 13.5481 12.7893 13.258 12.9379 13.0024C13.0865 12.7467 13.2995 12.5344 13.5556 12.3866L22.4514 7.30327C22.8424 7.07857 23.3066 7.01839 23.742 7.13596C24.1773 7.25354 24.5481 7.53924 24.7728 7.93021C24.9975 8.32118 25.0577 8.7854 24.9401 9.22075C24.8225 9.65609 24.5368 10.0269 24.1459 10.2516L16.0125 14.8266V24.4172C16.012 24.7174 15.9317 25.0121 15.7799 25.2711C15.628 25.5302 15.4101 25.7442 15.1484 25.8913L6.7778 30.6866V40.7516C6.7778 41.201 6.59928 41.632 6.28151 41.9498C5.96374 42.2675 5.53276 42.446 5.08336 42.446Z" fill="#56CCF2"/>
</g>
<defs>
<clipPath id="clip0_347_3051">
<rect width="61" height="61" fill="white"/>
</clipPath>
</defs>
</svg>
