<svg width="45" height="45" viewBox="0 0 45 45" fill="none" xmlns="http://www.w3.org/2000/svg">
<path d="M39.5 29.8752V13.9377L26.2188 6.46729M18.7812 6.46729L5.5 13.9377V29.8752M8.6875 34.8562L22.5 42.6252L31 37.844L36.3125 34.8552M22.5 16.0627V8.62522M28.875 26.6877L36.3125 30.9377M16.125 26.6877L8.6875 30.9377M19.3125 17.9221L16.125 19.7815V27.219L19.3125 29.0783L22.5 30.9377L25.6875 29.0783L28.875 27.219V19.7815L25.6875 17.9221L22.5 16.0627L19.3125 17.9221Z" stroke="#9B51E0" stroke-width="3" stroke-linecap="round" stroke-linejoin="round"/>
<path d="M22.5 8.625C24.2604 8.625 25.6875 7.19791 25.6875 5.4375C25.6875 3.67709 24.2604 2.25 22.5 2.25C20.7396 2.25 19.3125 3.67709 19.3125 5.4375C19.3125 7.19791 20.7396 8.625 22.5 8.625Z" stroke="#56CCF2" stroke-width="3" stroke-linecap="round" stroke-linejoin="round"/>
<path d="M5.5 36.25C7.26041 36.25 8.6875 34.8229 8.6875 33.0625C8.6875 31.3021 7.26041 29.875 5.5 29.875C3.73959 29.875 2.3125 31.3021 2.3125 33.0625C2.3125 34.8229 3.73959 36.25 5.5 36.25Z" stroke="#56CCF2" stroke-width="3" stroke-linecap="round" stroke-linejoin="round"/>
<path d="M39.5 36.25C41.2604 36.25 42.6875 34.8229 42.6875 33.0625C42.6875 31.3021 41.2604 29.875 39.5 29.875C37.7396 29.875 36.3125 31.3021 36.3125 33.0625C36.3125 34.8229 37.7396 36.25 39.5 36.25Z" stroke="#56CCF2" stroke-width="3" stroke-linecap="round" stroke-linejoin="round"/>
</svg>
