<svg width="60" height="62" viewBox="0 0 60 62" fill="none" xmlns="http://www.w3.org/2000/svg">
<path d="M46.6667 40.9997V23.4997L32.0834 15.2969M23.9167 15.2969L9.33337 23.4997V40.9997M12.8334 46.469L28 54.9997L37.3334 49.7497L43.1667 46.4679M28 25.833L31.5 27.8747L35 29.9164V38.083L31.5 40.1247L28 42.1664L24.5 40.1247L21 38.083V29.9164L24.5 27.8747L28 25.833ZM28 25.833V17.6664M35 37.4997L43.1667 42.1664M21 37.4997L12.8334 42.1664" stroke="#56CCF2" stroke-opacity="0.4" stroke-width="2" stroke-linecap="round" stroke-linejoin="round"/>
<path d="M28 17.6665C29.933 17.6665 31.5 16.0995 31.5 14.1665C31.5 12.2335 29.933 10.6665 28 10.6665C26.067 10.6665 24.5 12.2335 24.5 14.1665C24.5 16.0995 26.067 17.6665 28 17.6665Z" stroke="#56CCF2" stroke-opacity="0.4" stroke-width="2" stroke-linecap="round" stroke-linejoin="round"/>
<path d="M9.33337 48C11.2664 48 12.8334 46.433 12.8334 44.5C12.8334 42.567 11.2664 41 9.33337 41C7.40038 41 5.83337 42.567 5.83337 44.5C5.83337 46.433 7.40038 48 9.33337 48Z" stroke="#56CCF2" stroke-opacity="0.4" stroke-width="2" stroke-linecap="round" stroke-linejoin="round"/>
<path d="M46.6667 48C48.5997 48 50.1667 46.433 50.1667 44.5C50.1667 42.567 48.5997 41 46.6667 41C44.7338 41 43.1667 42.567 43.1667 44.5C43.1667 46.433 44.7338 48 46.6667 48Z" stroke="#56CCF2" stroke-opacity="0.4" stroke-width="2" stroke-linecap="round" stroke-linejoin="round"/>
<path d="M50.6667 34.9997V17.4997L36.0834 9.29688M27.9167 9.29688L13.3334 17.4997V34.9997M16.8334 40.469L32 48.9997L41.3334 43.7497L47.1667 40.4679M32 19.833L35.5 21.8747L39 23.9164V32.083L35.5 34.1247L32 36.1664L28.5 34.1247L25 32.083V23.9164L28.5 21.8747L32 19.833ZM32 19.833V11.6664M39 31.4997L47.1667 36.1664M25 31.4997L16.8334 36.1664" stroke="#9B51E0" stroke-width="2" stroke-linecap="round" stroke-linejoin="round"/>
<path d="M32 11.6665C33.933 11.6665 35.5 10.0995 35.5 8.1665C35.5 6.23351 33.933 4.6665 32 4.6665C30.067 4.6665 28.5 6.23351 28.5 8.1665C28.5 10.0995 30.067 11.6665 32 11.6665Z" stroke="#9B51E0" stroke-width="2" stroke-linecap="round" stroke-linejoin="round"/>
<path d="M13.3334 42C15.2664 42 16.8334 40.433 16.8334 38.5C16.8334 36.567 15.2664 35 13.3334 35C11.4004 35 9.83337 36.567 9.83337 38.5C9.83337 40.433 11.4004 42 13.3334 42Z" stroke="#9B51E0" stroke-width="2" stroke-linecap="round" stroke-linejoin="round"/>
<path d="M50.6667 42C52.5997 42 54.1667 40.433 54.1667 38.5C54.1667 36.567 52.5997 35 50.6667 35C48.7338 35 47.1667 36.567 47.1667 38.5C47.1667 40.433 48.7338 42 50.6667 42Z" stroke="#9B51E0" stroke-width="2" stroke-linecap="round" stroke-linejoin="round"/>
</svg>
