<svg width="54" height="56" viewBox="0 0 54 56" fill="none" xmlns="http://www.w3.org/2000/svg">
<path d="M17.85 27.9501C17.85 23.8923 19.4619 20.0007 22.3312 17.1314C25.2005 14.2621 29.0922 12.6501 33.15 12.6501H34.425C34.7631 12.6501 35.0874 12.5158 35.3265 12.2767C35.5656 12.0375 35.7 11.7132 35.7 11.3751C35.7 11.0369 35.5656 10.7126 35.3265 10.4735C35.0874 10.2344 34.7631 10.1001 34.425 10.1001H33.15C28.4159 10.1001 23.8756 11.9807 20.5281 15.3282C17.1806 18.6758 15.3 23.216 15.3 27.9501V30.5001C15.3 31.1764 15.0313 31.825 14.5531 32.3032C14.0749 32.7814 13.4263 33.0501 12.75 33.0501H6.37498C6.03682 33.0501 5.71252 33.1844 5.47341 33.4235C5.23431 33.6626 5.09998 33.9869 5.09998 34.3251C5.09998 34.6632 5.23431 34.9876 5.47341 35.2267C5.71252 35.4658 6.03682 35.6001 6.37498 35.6001H12.75C14.1026 35.6001 15.3998 35.0628 16.3562 34.1063C17.3127 33.1499 17.85 31.8527 17.85 30.5001V27.9501ZM34.425 20.3001C32.0579 20.3001 29.7878 21.2404 28.114 22.9142C26.4403 24.5879 25.5 26.858 25.5 29.2251V31.7751C25.5 33.282 25.2032 34.7742 24.6265 36.1664C24.0498 37.5586 23.2046 38.8236 22.139 39.8891C21.0735 40.9547 19.8085 41.7999 18.4163 42.3766C17.0241 42.9533 15.5319 43.2501 14.025 43.2501H6.37498C6.03682 43.2501 5.71252 43.1158 5.47341 42.8767C5.23431 42.6376 5.09998 42.3132 5.09998 41.9751C5.09998 41.6369 5.23431 41.3126 5.47341 41.0735C5.71252 40.8344 6.03682 40.7001 6.37498 40.7001H14.025C16.392 40.7001 18.6621 39.7598 20.3359 38.086C22.0097 36.4123 22.95 34.1422 22.95 31.7751V29.2251C22.95 26.1817 24.1589 23.263 26.3109 21.111C28.4629 18.9591 31.3816 17.7501 34.425 17.7501H44.625C44.9631 17.7501 45.2874 17.8844 45.5265 18.1235C45.7656 18.3626 45.9 18.6869 45.9 19.0251C45.9 19.3632 45.7656 19.6875 45.5265 19.9267C45.2874 20.1658 44.9631 20.3001 44.625 20.3001H34.425ZM35.7 27.9501C35.0237 27.9501 34.3751 28.2188 33.8969 28.697C33.4186 29.1752 33.15 29.8238 33.15 30.5001V33.0501C33.15 37.7842 31.2694 42.3244 27.9218 45.672C24.5743 49.0195 20.0341 50.9001 15.3 50.9001H14.025C13.6868 50.9001 13.3625 50.7658 13.1234 50.5267C12.8843 50.2876 12.75 49.9632 12.75 49.6251C12.75 49.2869 12.8843 48.9626 13.1234 48.7235C13.3625 48.4844 13.6868 48.3501 14.025 48.3501H15.3C19.3578 48.3501 23.2494 46.7381 26.1187 43.8688C28.988 40.9995 30.6 37.1079 30.6 33.0501V30.5001C30.6 29.1475 31.1373 27.8503 32.0937 26.8939C33.0502 25.9374 34.3474 25.4001 35.7 25.4001H44.625C44.9631 25.4001 45.2874 25.5344 45.5265 25.7735C45.7656 26.0126 45.9 26.3369 45.9 26.6751C45.9 27.0132 45.7656 27.3376 45.5265 27.5767C45.2874 27.8158 44.9631 27.9501 44.625 27.9501H35.7Z" fill="#56CCF2" fill-opacity="0.4"/>
<path d="M20.85 22.9501C20.85 18.8923 22.4619 15.0007 25.3312 12.1314C28.2005 9.26206 32.0922 7.6501 36.15 7.6501H37.425C37.7631 7.6501 38.0874 7.51577 38.3265 7.27666C38.5656 7.03755 38.7 6.71325 38.7 6.3751C38.7 6.03695 38.5656 5.71265 38.3265 5.47354C38.0874 5.23443 37.7631 5.1001 37.425 5.1001H36.15C31.4159 5.1001 26.8756 6.98072 23.5281 10.3282C20.1806 13.6758 18.3 18.216 18.3 22.9501V25.5001C18.3 26.1764 18.0313 26.825 17.5531 27.3032C17.0749 27.7814 16.4263 28.0501 15.75 28.0501H9.37498C9.03682 28.0501 8.71252 28.1844 8.47341 28.4235C8.23431 28.6626 8.09998 28.9869 8.09998 29.3251C8.09998 29.6632 8.23431 29.9876 8.47341 30.2267C8.71252 30.4658 9.03682 30.6001 9.37498 30.6001H15.75C17.1026 30.6001 18.3998 30.0628 19.3562 29.1063C20.3127 28.1499 20.85 26.8527 20.85 25.5001V22.9501ZM37.425 15.3001C35.0579 15.3001 32.7878 16.2404 31.114 17.9142C29.4403 19.5879 28.5 21.858 28.5 24.2251V26.7751C28.5 28.282 28.2032 29.7742 27.6265 31.1664C27.0498 32.5586 26.2046 33.8236 25.139 34.8891C24.0735 35.9547 22.8085 36.7999 21.4163 37.3766C20.0241 37.9533 18.5319 38.2501 17.025 38.2501H9.37498C9.03682 38.2501 8.71252 38.1158 8.47341 37.8767C8.23431 37.6376 8.09998 37.3132 8.09998 36.9751C8.09998 36.6369 8.23431 36.3126 8.47341 36.0735C8.71252 35.8344 9.03682 35.7001 9.37498 35.7001H17.025C19.392 35.7001 21.6621 34.7598 23.3359 33.086C25.0097 31.4123 25.95 29.1422 25.95 26.7751V24.2251C25.95 21.1817 27.1589 18.263 29.3109 16.111C31.4629 13.9591 34.3816 12.7501 37.425 12.7501H47.625C47.9631 12.7501 48.2874 12.8844 48.5265 13.1235C48.7656 13.3626 48.9 13.6869 48.9 14.0251C48.9 14.3632 48.7656 14.6875 48.5265 14.9267C48.2874 15.1658 47.9631 15.3001 47.625 15.3001H37.425ZM38.7 22.9501C38.0237 22.9501 37.3751 23.2188 36.8969 23.697C36.4186 24.1752 36.15 24.8238 36.15 25.5001V28.0501C36.15 32.7842 34.2694 37.3244 30.9218 40.672C27.5743 44.0195 23.0341 45.9001 18.3 45.9001H17.025C16.6868 45.9001 16.3625 45.7658 16.1234 45.5267C15.8843 45.2876 15.75 44.9632 15.75 44.6251C15.75 44.2869 15.8843 43.9626 16.1234 43.7235C16.3625 43.4844 16.6868 43.3501 17.025 43.3501H18.3C22.3578 43.3501 26.2494 41.7381 29.1187 38.8688C31.988 35.9995 33.6 32.1079 33.6 28.0501V25.5001C33.6 24.1475 34.1373 22.8503 35.0937 21.8939C36.0502 20.9374 37.3474 20.4001 38.7 20.4001H47.625C47.9631 20.4001 48.2874 20.5344 48.5265 20.7735C48.7656 21.0126 48.9 21.3369 48.9 21.6751C48.9 22.0132 48.7656 22.3376 48.5265 22.5767C48.2874 22.8158 47.9631 22.9501 47.625 22.9501H38.7Z" fill="#9B51E0"/>
</svg>
