<svg width="16" height="16" viewBox="0 0 16 16" fill="none" xmlns="http://www.w3.org/2000/svg">
<g clip-path="url(#clip0_1039_81123)">
<path d="M1.77778 16C1.28889 16 0.870519 15.8261 0.522667 15.4782C0.174815 15.1304 0.000592593 14.7117 0 14.2222V1.77778C0 1.28889 0.174222 0.870518 0.522667 0.522667C0.871111 0.174815 1.28948 0.000592593 1.77778 0H11.5556L16 4.44444V14.2222C16 14.7111 15.8261 15.1298 15.4782 15.4782C15.1304 15.8267 14.7117 16.0006 14.2222 16H1.77778ZM3.55556 12.4444H12.4444V10.6667H3.55556V12.4444ZM3.55556 8.88889H12.4444V7.11111H3.55556V8.88889ZM10.6667 5.33333H14.2222L10.6667 1.77778V5.33333ZM3.55556 5.33333H8V3.55556H3.55556V5.33333Z" fill="black"/>
</g>
<defs>
<clipPath id="clip0_1039_81123">
<rect width="16" height="16" fill="white"/>
</clipPath>
</defs>
</svg>
