<svg width="16" height="16" viewBox="0 0 16 16" fill="none" xmlns="http://www.w3.org/2000/svg">
<path fill-rule="evenodd" clip-rule="evenodd" d="M4.0172 1.21957C6.66432 0.926811 9.33572 0.926811 11.9828 1.21957C13.429 1.38074 14.5949 2.51734 14.7647 3.9664C15.0784 6.64608 15.0784 9.35312 14.7647 12.0328C14.5949 13.4819 13.429 14.6185 11.9836 14.7804C9.33624 15.0732 6.66457 15.0732 4.0172 14.7804C2.57105 14.6185 1.40515 13.4819 1.23532 12.0336C0.921559 9.35363 0.921559 6.64633 1.23532 3.9664C1.40515 2.51734 2.57105 1.38074 4.0172 1.21957ZM11.3584 5.7036L11.9981 5.09311V4.95854H9.7881L8.21249 8.88151L6.42136 4.95854H4.10326V5.09311L4.84956 5.99022C4.88611 6.02243 4.91439 6.06292 4.93201 6.10829C4.94964 6.15367 4.95609 6.20261 4.95084 6.25099V9.77938C4.96175 9.84205 4.95764 9.90642 4.93884 9.9672C4.92005 10.028 4.8871 10.0835 4.84271 10.1291L4.00197 11.1479V11.2809H6.38329V11.1471L5.54332 10.1299C5.49856 10.0843 5.46486 10.029 5.44479 9.96841C5.42473 9.90779 5.41883 9.84338 5.42756 9.78014V6.72844L7.51797 11.2817H7.76166L9.5566 6.72844V10.3572C9.5566 10.4537 9.5566 10.472 9.49263 10.5358L8.84685 11.1615V11.2953H11.9821V11.1615L11.3591 10.5503C11.3324 10.5296 11.3116 10.5021 11.299 10.4707C11.2864 10.4393 11.2825 10.4051 11.2876 10.3716V5.88226C11.2825 5.84882 11.2864 5.81463 11.299 5.78322C11.3116 5.75181 11.3316 5.72433 11.3584 5.7036Z" fill="black"/>
</svg>
