<svg width="16" height="16" viewBox="0 0 16 16" fill="none" xmlns="http://www.w3.org/2000/svg">
<g clip-path="url(#clip0_1039_81010)">
<path d="M7.03854 12.1511C9.8644 12.1511 12.1552 9.86025 12.1552 7.03439C12.1552 4.20853 9.8644 1.91772 7.03854 1.91772C4.21268 1.91772 1.92188 4.20853 1.92188 7.03439C1.92188 9.86025 4.21268 12.1511 7.03854 12.1511Z" fill="black"/>
<path d="M13.4336 13.4308L10.6514 10.6486" stroke="black" stroke-width="1.27446" stroke-linecap="round" stroke-linejoin="round"/>
<g clip-path="url(#clip1_1039_81010)">
<path d="M6.91923 6.46496C6.97269 6.30458 7.19917 6.30458 7.25262 6.46496L7.56609 7.40633C7.63509 7.61326 7.75134 7.80129 7.90562 7.95549C8.05991 8.10969 8.248 8.22584 8.45497 8.29472L9.39585 8.60819C9.55623 8.66165 9.55623 8.88812 9.39585 8.94158L8.45449 9.25505C8.24755 9.32404 8.05953 9.44029 7.90532 9.59458C7.75112 9.74887 7.63497 9.93695 7.56609 10.1439L7.25262 11.0848C7.2411 11.1199 7.21878 11.1505 7.18884 11.1722C7.15891 11.1939 7.12289 11.2055 7.08593 11.2055C7.04897 11.2055 7.01295 11.1939 6.98302 11.1722C6.95308 11.1505 6.93076 11.1199 6.91923 11.0848L6.60577 10.1434C6.53682 9.93656 6.42064 9.74857 6.26644 9.59437C6.11224 9.44017 5.92426 9.32399 5.71737 9.25505L4.776 8.94158C4.74088 8.93006 4.7103 8.90773 4.68862 8.8778C4.66694 8.84786 4.65527 8.81185 4.65527 8.77488C4.65527 8.73792 4.66694 8.70191 4.68862 8.67197C4.7103 8.64204 4.74088 8.61971 4.776 8.60819L5.71737 8.29472C5.92426 8.22577 6.11224 8.1096 6.26644 7.9554C6.42064 7.8012 6.53682 7.61321 6.60577 7.40633L6.91923 6.46496ZM5.04184 3.98688C5.04881 3.96583 5.06223 3.94752 5.08021 3.93454C5.09818 3.92156 5.11979 3.91457 5.14196 3.91457C5.16413 3.91457 5.18573 3.92156 5.2037 3.93454C5.22168 3.94752 5.2351 3.96583 5.24207 3.98688L5.43015 4.5516C5.51423 4.80335 5.71154 5.00066 5.96328 5.08474L6.52801 5.27282C6.54905 5.27979 6.56737 5.29321 6.58035 5.31118C6.59333 5.32916 6.60032 5.35076 6.60032 5.37293C6.60032 5.3951 6.59333 5.41671 6.58035 5.43468C6.56737 5.45265 6.54905 5.46608 6.52801 5.47305L5.96328 5.66113C5.83905 5.70236 5.72616 5.77203 5.63361 5.86458C5.54105 5.95714 5.47138 6.07003 5.43015 6.19426L5.24207 6.75899C5.2351 6.78003 5.22168 6.79835 5.2037 6.81133C5.18573 6.82431 5.16413 6.83129 5.14196 6.83129C5.11979 6.83129 5.09818 6.82431 5.08021 6.81133C5.06223 6.79835 5.04881 6.78003 5.04184 6.75899L4.85376 6.19426C4.81253 6.07003 4.74286 5.95714 4.65031 5.86458C4.55775 5.77203 4.44486 5.70236 4.32063 5.66113L3.7559 5.47305C3.73486 5.46608 3.71654 5.45265 3.70356 5.43468C3.69058 5.41671 3.68359 5.3951 3.68359 5.37293C3.68359 5.35076 3.69058 5.32916 3.70356 5.31118C3.71654 5.29321 3.73486 5.27979 3.7559 5.27282L4.32063 5.08474C4.44486 5.04351 4.55775 4.97384 4.65031 4.88128C4.74286 4.78873 4.81253 4.67584 4.85376 4.5516L5.04184 3.98688ZM8.47733 3.47707C8.48212 3.46324 8.49111 3.45124 8.50305 3.44274C8.51498 3.43425 8.52926 3.42969 8.54391 3.42969C8.55855 3.42969 8.57284 3.43425 8.58477 3.44274C8.5967 3.45124 8.60569 3.46324 8.61049 3.47707L8.73588 3.85323C8.79176 4.02139 8.92347 4.15309 9.09162 4.20898L9.46778 4.33437C9.48162 4.33916 9.49362 4.34815 9.50211 4.36009C9.5106 4.37202 9.51517 4.3863 9.51517 4.40095C9.51517 4.41559 9.5106 4.42987 9.50211 4.44181C9.49362 4.45374 9.48162 4.46273 9.46778 4.46753L9.09162 4.59291C9.00883 4.62062 8.9336 4.66717 8.87186 4.7289C8.81013 4.79064 8.76358 4.86587 8.73588 4.94866L8.61049 5.32482C8.60569 5.33866 8.5967 5.35066 8.58477 5.35915C8.57284 5.36764 8.55855 5.3722 8.54391 5.3722C8.52926 5.3722 8.51498 5.36764 8.50305 5.35915C8.49111 5.35066 8.48212 5.33866 8.47733 5.32482L8.35194 4.94866C8.32424 4.86587 8.27769 4.79064 8.21595 4.7289C8.15422 4.66717 8.07899 4.62062 7.99619 4.59291L7.62052 4.46753C7.60668 4.46273 7.59468 4.45374 7.58619 4.44181C7.5777 4.42987 7.57314 4.41559 7.57314 4.40095C7.57314 4.3863 7.5777 4.37202 7.58619 4.36009C7.59468 4.34815 7.60668 4.33916 7.62052 4.33437L7.99668 4.20898C8.16483 4.15309 8.29654 4.02139 8.35243 3.85323L8.47733 3.47707Z" fill="white"/>
</g>
</g>
<defs>
<clipPath id="clip0_1039_81010">
<rect width="16" height="16" fill="white"/>
</clipPath>
<clipPath id="clip1_1039_81010">
<rect width="7.77589" height="7.77589" fill="white" transform="translate(3.19531 3.42938)"/>
</clipPath>
</defs>
</svg>
