<svg width="16" height="16" viewBox="0 0 16 16" fill="none" xmlns="http://www.w3.org/2000/svg">
<path d="M8.51997 1.41532C8.65165 1.28365 8.80796 1.1792 8.98 1.10794C9.15204 1.03668 9.33643 1 9.52264 1C9.70885 1 9.89324 1.03668 10.0653 1.10794C10.2373 1.1792 10.3936 1.28365 10.5253 1.41532C10.657 1.54699 10.7614 1.70331 10.8327 1.87534C10.9039 2.04738 10.9406 2.23177 10.9406 2.41798C10.9406 2.60419 10.9039 2.78858 10.8327 2.96062C10.7614 3.13265 10.657 3.28897 10.5253 3.42064L3.75732 10.1886L1 10.9406L1.752 8.18329L8.51997 1.41532Z" fill="black" stroke="black" stroke-width="0.918011" stroke-linecap="round" stroke-linejoin="round"/>
<path d="M11.5469 10.4336C11.5999 10.2747 11.8243 10.2747 11.8773 10.4336L12.1879 11.3664C12.2562 11.5715 12.3714 11.7578 12.5243 11.9106C12.6772 12.0634 12.8635 12.1784 13.0686 12.2467L14.0009 12.5573C14.1598 12.6103 14.1598 12.8347 14.0009 12.8876L13.0681 13.1983C12.8631 13.2666 12.6768 13.3818 12.524 13.5347C12.3712 13.6876 12.2561 13.8739 12.1879 14.079L11.8773 15.0113C11.8658 15.0461 11.8437 15.0764 11.8141 15.0979C11.7844 15.1194 11.7487 15.1309 11.7121 15.1309C11.6755 15.1309 11.6398 15.1194 11.6101 15.0979C11.5805 15.0764 11.5583 15.0461 11.5469 15.0113L11.2363 14.0785C11.168 13.8735 11.0529 13.6873 10.9001 13.5345C10.7473 13.3817 10.561 13.2666 10.356 13.1983L9.42325 12.8876C9.38846 12.8762 9.35815 12.8541 9.33667 12.8244C9.31519 12.7948 9.30362 12.7591 9.30362 12.7225C9.30362 12.6859 9.31519 12.6502 9.33667 12.6205C9.35815 12.5908 9.38846 12.5687 9.42325 12.5573L10.356 12.2467C10.561 12.1784 10.7473 12.0633 10.9001 11.9105C11.0529 11.7577 11.168 11.5714 11.2363 11.3664L11.5469 10.4336ZM9.68667 7.97819C9.69357 7.95734 9.70687 7.93919 9.72468 7.92633C9.74249 7.91346 9.7639 7.90654 9.78587 7.90654C9.80783 7.90654 9.82924 7.91346 9.84705 7.92633C9.86486 7.93919 9.87816 7.95734 9.88507 7.97819L10.0714 8.53776C10.1547 8.7872 10.3502 8.98272 10.5997 9.06602L11.1593 9.25239C11.1801 9.25929 11.1983 9.27259 11.2111 9.2904C11.224 9.30821 11.2309 9.32962 11.2309 9.35159C11.2309 9.37355 11.224 9.39496 11.2111 9.41277C11.1983 9.43058 11.1801 9.44388 11.1593 9.45079L10.5997 9.63715C10.4766 9.678 10.3647 9.74704 10.273 9.83875C10.1813 9.93046 10.1123 10.0423 10.0714 10.1654L9.88507 10.725C9.87816 10.7458 9.86486 10.764 9.84705 10.7768C9.82924 10.7897 9.80783 10.7966 9.78587 10.7966C9.7639 10.7966 9.74249 10.7897 9.72468 10.7768C9.70687 10.764 9.69357 10.7458 9.68667 10.725L9.5003 10.1654C9.45945 10.0423 9.39042 9.93046 9.29871 9.83875C9.20699 9.74704 9.09513 9.678 8.97204 9.63715L8.41247 9.45079C8.39162 9.44388 8.37347 9.43058 8.36061 9.41277C8.34774 9.39496 8.34082 9.37355 8.34082 9.35159C8.34082 9.32962 8.34774 9.30821 8.36061 9.2904C8.37347 9.27259 8.39162 9.25929 8.41247 9.25239L8.97204 9.06602C9.09513 9.02517 9.20699 8.95614 9.29871 8.86443C9.39042 8.77271 9.45945 8.66086 9.5003 8.53776L9.68667 7.97819ZM13.0908 7.47304C13.0955 7.45933 13.1044 7.44744 13.1163 7.43902C13.1281 7.43061 13.1422 7.42609 13.1568 7.42609C13.1713 7.42609 13.1854 7.43061 13.1972 7.43902C13.2091 7.44744 13.218 7.45933 13.2227 7.47304L13.347 7.84576C13.4023 8.01238 13.5328 8.14288 13.6995 8.19826L14.0722 8.3225C14.0859 8.32726 14.0978 8.33616 14.1062 8.34799C14.1146 8.35981 14.1191 8.37396 14.1191 8.38848C14.1191 8.40299 14.1146 8.41714 14.1062 8.42896C14.0978 8.44079 14.0859 8.4497 14.0722 8.45445L13.6995 8.57869C13.6174 8.60614 13.5429 8.65227 13.4817 8.71344C13.4205 8.77461 13.3744 8.84915 13.347 8.93119L13.2227 9.30391C13.218 9.31762 13.2091 9.32951 13.1972 9.33793C13.1854 9.34634 13.1713 9.35087 13.1568 9.35087C13.1422 9.35087 13.1281 9.34634 13.1163 9.33793C13.1044 9.32951 13.0955 9.31762 13.0908 9.30391L12.9665 8.93119C12.9391 8.84915 12.893 8.77461 12.8318 8.71344C12.7706 8.65227 12.6961 8.60614 12.614 8.57869L12.2418 8.45445C12.2281 8.4497 12.2162 8.44079 12.2078 8.42896C12.1994 8.41714 12.1948 8.40299 12.1948 8.38848C12.1948 8.37396 12.1994 8.35981 12.2078 8.34799C12.2162 8.33616 12.2281 8.32726 12.2418 8.3225L12.6145 8.19826C12.7811 8.14288 12.9116 8.01238 12.967 7.84576L13.0908 7.47304Z" fill="black"/>
</svg>
