<svg width="19" height="19" viewBox="0 0 19 19" fill="none" xmlns="http://www.w3.org/2000/svg">
<path d="M11.375 8C10.7525 8 10.25 7.4975 10.25 6.875V3.125C10.25 2.5025 10.7525 2 11.375 2C11.9975 2 12.5 2.5025 12.5 3.125V6.875C12.5 7.4975 11.9975 8 11.375 8Z" stroke="#465465" stroke-linecap="round" stroke-linejoin="round"/>
<path d="M15.875 8H14.75V6.875C14.75 6.2525 15.2525 5.75 15.875 5.75C16.4975 5.75 17 6.2525 17 6.875C17 7.4975 16.4975 8 15.875 8Z" stroke="#465465" stroke-linecap="round" stroke-linejoin="round"/>
<path d="M7.625 11C8.2475 11 8.75 11.5025 8.75 12.125V15.875C8.75 16.4975 8.2475 17 7.625 17C7.0025 17 6.5 16.4975 6.5 15.875V12.125C6.5 11.5025 7.0025 11 7.625 11Z" stroke="#465465" stroke-linecap="round" stroke-linejoin="round"/>
<path d="M3.125 11H4.25V12.125C4.25 12.7475 3.7475 13.25 3.125 13.25C2.5025 13.25 2 12.7475 2 12.125C2 11.5025 2.5025 11 3.125 11Z" stroke="#465465" stroke-linecap="round" stroke-linejoin="round"/>
<path d="M11 11.375C11 10.7525 11.5025 10.25 12.125 10.25H15.875C16.4975 10.25 17 10.7525 17 11.375C17 11.9975 16.4975 12.5 15.875 12.5H12.125C11.5025 12.5 11 11.9975 11 11.375Z" stroke="#465465" stroke-linecap="round" stroke-linejoin="round"/>
<path d="M12.125 14.75H11V15.875C11 16.4975 11.5025 17 12.125 17C12.7475 17 13.25 16.4975 13.25 15.875C13.25 15.2525 12.7475 14.75 12.125 14.75Z" stroke="#465465" stroke-linecap="round" stroke-linejoin="round"/>
<path d="M8 7.625C8 7.0025 7.4975 6.5 6.875 6.5H3.125C2.5025 6.5 2 7.0025 2 7.625C2 8.2475 2.5025 8.75 3.125 8.75H6.875C7.4975 8.75 8 8.2475 8 7.625Z" stroke="#465465" stroke-linecap="round" stroke-linejoin="round"/>
<path d="M6.875 4.25H8V3.125C8 2.5025 7.4975 2 6.875 2C6.2525 2 5.75 2.5025 5.75 3.125C5.75 3.7475 6.2525 4.25 6.875 4.25Z" stroke="#465465" stroke-linecap="round" stroke-linejoin="round"/>
</svg>
