<svg width="63" height="63" viewBox="0 0 63 63" fill="none" xmlns="http://www.w3.org/2000/svg">
<g clip-path="url(#clip0_266_45719)">
<path d="M31.4141 2.66602C47.4762 2.66607 60.4971 15.6869 60.4971 31.749C60.497 47.8111 47.4761 60.832 31.4141 60.832C15.352 60.832 2.33111 47.8111 2.33105 31.749C2.33105 15.6869 15.3519 2.66602 31.4141 2.66602Z" fill="white" stroke="url(#paint0_linear_266_45719)" stroke-width="4.16567"/>
<path d="M40.6461 21.0382L17.1035 21.0382M39.7696 32.7187H17.1106M28.8871 15.1465V21.0172M28.8871 32.8094L28.8871 38.6801M34.7587 15.152L34.7587 21.0376M22.9863 15.152V21.0376M22.9863 32.8094V38.6951M34.6406 32.8532L34.6406 37.8436M41.8545 30.7252L43.4562 29.1236C43.6854 28.8528 43.9688 28.6323 44.2885 28.4763C44.6082 28.3203 44.9571 28.2322 45.313 28.2175C45.6689 28.2028 46.0239 28.2619 46.3556 28.3911C46.6872 28.5202 46.9881 28.7165 47.2391 28.9675C47.49 29.2184 47.6856 29.5186 47.8133 29.8488C47.941 30.179 47.998 30.532 47.9807 30.8853C47.9634 31.2385 47.8722 31.5844 47.7129 31.9007C47.5535 32.217 47.3295 32.4969 47.0552 32.7226L45.5046 34.2732M41.8545 30.7252L45.5046 34.2732M41.8545 30.7252L31.3095 41.2702L29.9599 46.2189L34.9086 44.8692L45.5046 34.2732M40.6461 31.9087L33.8355 38.6946H19.6697C18.2524 38.6946 17.1035 37.5457 17.1035 36.1284L17.1035 17.7181C17.1035 16.3009 18.2524 15.152 19.6697 15.152L38.08 15.152C39.4972 15.152 40.6461 16.3009 40.6461 17.7181L40.6461 31.9087Z" stroke="#382188" stroke-width="2.07773" stroke-linecap="round" stroke-linejoin="round"/>
<path d="M21.7634 29.5972V24.2775H25.0986V24.9684H22.566V26.5893H24.9245V27.2776H22.566V28.9062H25.1297V29.5972H21.7634ZM26.6356 24.2775L28.1162 28.6101H28.176L29.6565 24.2775H30.5241L28.6097 29.5972H27.6824L25.7681 24.2775H26.6356ZM32.0949 24.2775V29.5972H31.2923V24.2775H32.0949ZM33.2638 29.5972V24.2775H36.599V24.9684H34.0665V26.5893H36.425V27.2776H34.0665V28.9062H36.6302V29.5972H33.2638Z" fill="#5D4E9C"/>
<g clip-path="url(#clip1_266_45719)">
<path d="M25.2861 47.7881C25.4054 48.1457 25.6064 48.4708 25.873 48.7373C26.1396 49.0037 26.4647 49.2042 26.8223 49.3232L27.6533 49.5996L26.8213 49.8779C26.4637 49.9972 26.1385 50.1982 25.8721 50.4648C25.6057 50.7314 25.4051 51.0565 25.2861 51.4141L25.0088 52.2451L24.7314 51.4131C24.6123 51.0556 24.412 50.7303 24.1455 50.4639C23.9123 50.2307 23.6344 50.0477 23.3291 49.9258L23.1963 49.8779L22.3633 49.6006L23.1963 49.3232C23.5538 49.2041 23.879 49.0038 24.1455 48.7373C24.412 48.4708 24.6123 48.1456 24.7314 47.7881L25.0088 46.9551L25.2861 47.7881ZM22.2461 43.7246C22.3882 44.1501 22.6976 44.4953 23.0986 44.6836L23.2754 44.7539L23.2861 44.7578L23.2754 44.7617C23.0355 44.8414 22.8174 44.9765 22.6387 45.1553C22.5044 45.2895 22.3953 45.446 22.3154 45.6172L22.2461 45.792L22.2422 45.8037L22.2383 45.792C22.1586 45.552 22.0235 45.3341 21.8447 45.1553C21.7107 45.0212 21.5547 44.9119 21.3838 44.832L21.208 44.7617L21.1963 44.7578L21.208 44.7539V44.7549C21.448 44.6752 21.6659 44.5401 21.8447 44.3613C22.0235 44.1826 22.1586 43.9645 22.2383 43.7246L22.2422 43.7119L22.2461 43.7246ZM27.084 43.0059C27.1789 43.1537 27.3044 43.2789 27.4521 43.374C27.3787 43.4213 27.3102 43.4769 27.248 43.5391C27.1858 43.6014 27.1313 43.6705 27.084 43.7441C27.0366 43.6705 26.9823 43.6014 26.9199 43.5391C26.8578 43.4769 26.7892 43.4223 26.7158 43.375C26.8639 43.2799 26.9888 43.1539 27.084 43.0059Z" stroke="url(#paint1_linear_266_45719)" stroke-width="0.856514"/>
</g>
</g>
<defs>
<linearGradient id="paint0_linear_266_45719" x1="31.414" y1="0.583008" x2="31.414" y2="62.9148" gradientUnits="userSpaceOnUse">
<stop stop-color="#9E52FF"/>
<stop offset="1" stop-color="#6981FF"/>
</linearGradient>
<linearGradient id="paint1_linear_266_45719" x1="24.3171" y1="41.9922" x2="24.3171" y2="53.0604" gradientUnits="userSpaceOnUse">
<stop stop-color="#9E52FF"/>
<stop offset="1" stop-color="#6981FF"/>
</linearGradient>
<clipPath id="clip0_266_45719">
<rect width="62.3318" height="62.3318" fill="white" transform="translate(0.251953 0.583008)"/>
</clipPath>
<clipPath id="clip1_266_45719">
<rect width="11.0683" height="11.0683" fill="white" transform="translate(19.4746 41.9912)"/>
</clipPath>
</defs>
</svg>
