<svg width="64" height="63" viewBox="0 0 64 63" fill="none" xmlns="http://www.w3.org/2000/svg">
<g clip-path="url(#clip0_266_45739)">
<rect x="0.886719" y="0.0615234" width="62.3318" height="62.3318" rx="31.1659" fill="white"/>
<path d="M32.0527 1.79688C48.3066 1.79693 61.4824 14.9737 61.4824 31.2275C61.4824 47.4813 48.3065 60.6572 32.0527 60.6572C15.7989 60.6572 2.62212 47.4814 2.62207 31.2275C2.62207 14.9737 15.7989 1.79688 32.0527 1.79688Z" fill="white" stroke="url(#paint0_linear_266_45739)" stroke-width="3.47139"/>
<path d="M25.269 53.1797V48.4274H26.2575V50.2142H26.2877C26.331 50.1182 26.3936 50.0208 26.4756 49.9218C26.5592 49.8212 26.6674 49.7377 26.8005 49.6712C26.9351 49.6031 27.1021 49.5691 27.3017 49.5691C27.5616 49.5691 27.8014 49.6371 28.021 49.7733C28.2407 49.9079 28.4163 50.1113 28.5478 50.3835C28.6793 50.6543 28.745 50.9938 28.745 51.4022C28.745 51.7998 28.6808 52.1355 28.5524 52.4093C28.4256 52.6816 28.2523 52.8881 28.0326 53.0289C27.8145 53.1681 27.5701 53.2377 27.2994 53.2377C27.1076 53.2377 26.9443 53.206 26.8098 53.1426C26.6767 53.0791 26.5677 52.9995 26.4826 52.9036C26.3975 52.8061 26.3325 52.7079 26.2877 52.6089H26.2436V53.1797H25.269ZM26.2366 51.3976C26.2366 51.6095 26.266 51.7944 26.3248 51.9522C26.3836 52.11 26.4687 52.2329 26.58 52.3211C26.6914 52.4078 26.8268 52.4511 26.9861 52.4511C27.147 52.4511 27.2831 52.407 27.3945 52.3188C27.5059 52.2291 27.5902 52.1053 27.6474 51.9475C27.7062 51.7882 27.7356 51.6049 27.7356 51.3976C27.7356 51.1918 27.707 51.0108 27.6498 50.8546C27.5925 50.6984 27.5082 50.5761 27.3968 50.488C27.2855 50.3998 27.1485 50.3557 26.9861 50.3557C26.8252 50.3557 26.6891 50.3982 26.5777 50.4833C26.4679 50.5684 26.3836 50.6891 26.3248 50.8453C26.266 51.0016 26.2366 51.1857 26.2366 51.3976ZM31.0289 53.2493C30.6623 53.2493 30.3467 53.175 30.0822 53.0265C29.8192 52.8765 29.6165 52.6645 29.4742 52.3907C29.3319 52.1154 29.2607 51.7897 29.2607 51.4138C29.2607 51.0472 29.3319 50.7254 29.4742 50.4485C29.6165 50.1716 29.8169 49.9558 30.0752 49.8011C30.3351 49.6464 30.6399 49.5691 30.9895 49.5691C31.2246 49.5691 31.4435 49.607 31.6462 49.6828C31.8504 49.757 32.0283 49.8692 32.1799 50.0192C32.333 50.1693 32.4521 50.358 32.5372 50.5854C32.6223 50.8113 32.6648 51.0758 32.6648 51.379V51.6505H29.6552V51.0379H31.7343C31.7343 50.8956 31.7034 50.7695 31.6415 50.6597C31.5796 50.5498 31.4938 50.464 31.3839 50.4021C31.2757 50.3387 31.1496 50.307 31.0057 50.307C30.8557 50.307 30.7226 50.3418 30.6066 50.4114C30.4921 50.4795 30.4024 50.5715 30.3374 50.6875C30.2724 50.802 30.2392 50.9296 30.2376 51.0704V51.6528C30.2376 51.8292 30.2701 51.9816 30.3351 52.11C30.4016 52.2384 30.4952 52.3374 30.6159 52.407C30.7365 52.4766 30.8796 52.5114 31.0452 52.5114C31.155 52.5114 31.2555 52.4959 31.3468 52.465C31.4381 52.4341 31.5162 52.3876 31.5812 52.3258C31.6462 52.2639 31.6957 52.1881 31.7297 52.0984L32.6439 52.1587C32.5975 52.3784 32.5024 52.5702 32.3585 52.7342C32.2162 52.8966 32.0321 53.0234 31.8063 53.1147C31.582 53.2044 31.3228 53.2493 31.0289 53.2493ZM35.2057 49.6155V50.358H33.0593V49.6155H35.2057ZM33.5466 48.7616H34.5351V52.0844C34.5351 52.1757 34.549 52.2469 34.5769 52.2979C34.6047 52.3474 34.6434 52.3822 34.6929 52.4023C34.7439 52.4224 34.8027 52.4325 34.8693 52.4325C34.9157 52.4325 34.9621 52.4286 35.0085 52.4209C35.0549 52.4116 35.0905 52.4047 35.1152 52.4L35.2707 53.1356C35.2212 53.1511 35.1516 53.1689 35.0619 53.189C34.9721 53.2106 34.8631 53.2238 34.7347 53.2284C34.4964 53.2377 34.2876 53.206 34.1081 53.1333C33.9302 53.0606 33.7918 52.9476 33.6928 52.7945C33.5938 52.6413 33.5451 52.448 33.5466 52.2144V48.7616ZM36.866 53.247C36.6386 53.247 36.4359 53.2075 36.258 53.1286C36.0801 53.0482 35.9394 52.9299 35.8357 52.7736C35.7336 52.6158 35.6826 52.4194 35.6826 52.1842C35.6826 51.9862 35.7189 51.8199 35.7916 51.6853C35.8643 51.5507 35.9633 51.4424 36.0886 51.3605C36.214 51.2785 36.3563 51.2166 36.5156 51.1748C36.6765 51.1331 36.8451 51.1037 37.0215 51.0866C37.2288 51.065 37.3958 51.0449 37.5227 51.0263C37.6495 51.0062 37.7416 50.9768 37.7988 50.9381C37.8561 50.8995 37.8847 50.8422 37.8847 50.7664V50.7525C37.8847 50.6055 37.8383 50.4918 37.7454 50.4114C37.6542 50.331 37.5242 50.2907 37.3556 50.2907C37.1777 50.2907 37.0362 50.3302 36.931 50.4091C36.8258 50.4864 36.7562 50.5839 36.7221 50.7015L35.8079 50.6272C35.8543 50.4106 35.9456 50.2234 36.0817 50.0656C36.2178 49.9063 36.3934 49.7841 36.6084 49.699C36.825 49.6124 37.0756 49.5691 37.3603 49.5691C37.5583 49.5691 37.7478 49.5923 37.9288 49.6387C38.1113 49.6851 38.273 49.757 38.4137 49.8545C38.5561 49.9519 38.6682 50.0773 38.7502 50.2304C38.8322 50.382 38.8732 50.5638 38.8732 50.7757V53.1797H37.9357V52.6854H37.9079C37.8506 52.7968 37.7741 52.895 37.6782 52.9801C37.5822 53.0637 37.467 53.1294 37.3324 53.1774C37.1978 53.2238 37.0424 53.247 36.866 53.247ZM37.1491 52.5648C37.2945 52.5648 37.4229 52.5362 37.5343 52.4789C37.6457 52.4201 37.7331 52.3412 37.7965 52.2422C37.8599 52.1432 37.8916 52.0311 37.8916 51.9058V51.5275C37.8607 51.5476 37.8182 51.5662 37.764 51.5832C37.7114 51.5987 37.6519 51.6134 37.5853 51.6273C37.5188 51.6397 37.4523 51.6513 37.3858 51.6621C37.3193 51.6714 37.2589 51.6799 37.2048 51.6876C37.0888 51.7047 36.9874 51.7317 36.9008 51.7689C36.8142 51.806 36.7469 51.8563 36.6989 51.9197C36.651 51.9816 36.627 52.0589 36.627 52.1517C36.627 52.2863 36.6757 52.3892 36.7732 52.4603C36.8722 52.53 36.9975 52.5648 37.1491 52.5648Z" fill="#382188"/>
</g>
<path d="M38.3582 16.1162H20.5934C19.2258 16.1162 18.1172 17.2248 18.1172 18.5924V36.3572C18.1172 37.7248 19.2258 38.8334 20.5934 38.8334H38.3582C39.7257 38.8334 40.8344 37.7248 40.8344 36.3572V18.5924C40.8344 17.2248 39.7257 16.1162 38.3582 16.1162Z" stroke="#382188" stroke-width="1.93989" stroke-linecap="round" stroke-linejoin="round"/>
<path d="M23.7967 16.1162V38.8334" stroke="#382188" stroke-width="1.93989" stroke-linecap="round" stroke-linejoin="round"/>
<path d="M35.1562 16.1162V38.8334" stroke="#382188" stroke-width="1.93989" stroke-linecap="round" stroke-linejoin="round"/>
<path d="M18.1172 27.4746H40.8344" stroke="#382188" stroke-width="1.93989" stroke-linecap="round" stroke-linejoin="round"/>
<path d="M18.1172 21.7949H23.7965" stroke="#382188" stroke-width="1.93989" stroke-linecap="round" stroke-linejoin="round"/>
<path d="M18.1172 33.1533H23.7965" stroke="#382188" stroke-width="1.93989" stroke-linecap="round" stroke-linejoin="round"/>
<path d="M35.1562 33.1533H40.8355" stroke="#382188" stroke-width="1.93989" stroke-linecap="round" stroke-linejoin="round"/>
<path d="M35.1562 21.7949H40.8355" stroke="#382188" stroke-width="1.93989" stroke-linecap="round" stroke-linejoin="round"/>
<path d="M39.494 44.5164C43.5164 44.5164 46.7772 41.2557 46.7772 37.2333C46.7772 33.211 43.5164 29.9502 39.494 29.9502C35.4717 29.9502 32.2109 33.211 32.2109 37.2333C32.2109 41.2557 35.4717 44.5164 39.494 44.5164Z" fill="white" stroke="#382188" stroke-width="1.88884" stroke-linecap="round" stroke-linejoin="round"/>
<path d="M48.593 46.3376L44.6328 42.3774" stroke="#382188" stroke-width="1.93989" stroke-linecap="round" stroke-linejoin="round"/>
<g clip-path="url(#clip1_266_45739)">
<path d="M39.835 37.8979C39.9542 38.2556 40.1552 38.5807 40.4219 38.8472C40.6885 39.1136 41.0135 39.3141 41.3711 39.4331L42.2021 39.7095L41.3701 39.9878C41.0126 40.1071 40.6874 40.3081 40.4209 40.5747C40.1545 40.8413 39.954 41.1663 39.835 41.5239L39.5576 42.355L39.2803 41.5229C39.1611 41.1655 38.9608 40.8402 38.6943 40.5737C38.4612 40.3406 38.1832 40.1575 37.8779 40.0356L37.7451 39.9878L36.9121 39.7104L37.7451 39.4331C38.1026 39.3139 38.4278 39.1136 38.6943 38.8472C38.9608 38.5807 39.1611 38.2554 39.2803 37.8979L39.5576 37.0649L39.835 37.8979ZM36.7949 33.8345C36.937 34.2599 37.2465 34.6052 37.6475 34.7935L37.8242 34.8638L37.835 34.8677L37.8242 34.8716C37.5843 34.9513 37.3663 35.0864 37.1875 35.2651C37.0533 35.3994 36.9441 35.5559 36.8643 35.7271L36.7949 35.9019L36.791 35.9136L36.7871 35.9019C36.7074 35.6619 36.5724 35.4439 36.3936 35.2651C36.2595 35.1311 36.1035 35.0217 35.9326 34.9419L35.7568 34.8716L35.7451 34.8677L35.7568 34.8638V34.8647C35.9968 34.7851 36.2147 34.65 36.3936 34.4712C36.5723 34.2924 36.7074 34.0744 36.7871 33.8345L36.791 33.8218L36.7949 33.8345ZM41.6328 33.1157C41.7278 33.2636 41.8532 33.3888 42.001 33.4839C41.9276 33.5312 41.859 33.5868 41.7969 33.6489C41.7346 33.7113 41.6801 33.7804 41.6328 33.854C41.5855 33.7803 41.5311 33.7113 41.4688 33.6489C41.4066 33.5868 41.338 33.5321 41.2646 33.4849C41.4128 33.3898 41.5376 33.2638 41.6328 33.1157Z" stroke="url(#paint1_linear_266_45739)" stroke-width="0.856514"/>
</g>
<defs>
<linearGradient id="paint0_linear_266_45739" x1="32.0526" y1="0.0615234" x2="32.0526" y2="62.3934" gradientUnits="userSpaceOnUse">
<stop stop-color="#9E52FF"/>
<stop offset="1" stop-color="#6981FF"/>
</linearGradient>
<linearGradient id="paint1_linear_266_45739" x1="38.8659" y1="32.1021" x2="38.8659" y2="43.1703" gradientUnits="userSpaceOnUse">
<stop stop-color="#9E52FF"/>
<stop offset="1" stop-color="#6981FF"/>
</linearGradient>
<clipPath id="clip0_266_45739">
<rect x="0.886719" y="0.0615234" width="62.3318" height="62.3318" rx="31.1659" fill="white"/>
</clipPath>
<clipPath id="clip1_266_45739">
<rect width="11.0683" height="11.0683" fill="white" transform="translate(34.0234 32.1016)"/>
</clipPath>
</defs>
</svg>
