<svg width="71" height="71" viewBox="0 0 71 71" fill="none" xmlns="http://www.w3.org/2000/svg">
<g filter="url(#filter0_d_266_45760)" transform="translate(0, 4)">
<path d="M66.5428 31.4213C66.5428 48.6338 52.5893 62.5872 35.3769 62.5872C18.1644 62.5872 4.21094 48.6338 4.21094 31.4213C4.21094 14.2088 18.1644 0.255371 35.3769 0.255371C52.5893 0.255371 66.5428 14.2088 66.5428 31.4213Z" fill="white"/>
<path d="M35.377 1.99072C51.6308 1.99078 64.8066 15.1676 64.8066 31.4214C64.8066 47.6752 51.6307 60.851 35.377 60.8511C19.1231 60.8511 5.94634 47.6752 5.94629 31.4214C5.94629 15.1675 19.1231 1.99072 35.377 1.99072Z" stroke="url(#paint0_linear_266_45760)" stroke-width="3.47139"/>
</g>
<path d="M22.7907 15.8394H20.7109V37.9698C20.7109 38.4213 20.9301 38.8543 21.3201 39.1735C21.7101 39.4928 22.2391 39.6721 22.7907 39.6721H37.2105V37.4157H22.7907V15.8394Z" fill="#382188"/>
<path d="M44.9684 15.8384L37.3786 23.6645L33.0887 23.357C33.0887 23.357 32.2731 23.297 32.1411 23.297C32.0091 23.297 31.8784 23.324 31.7565 23.3763C31.6346 23.4287 31.524 23.5054 31.4311 23.602L24.3789 30.8841L25.7889 32.338L32.3787 25.543C32.3787 25.543 35.5309 25.8585 37.2021 26.0282C37.3706 26.0453 37.5442 26.0253 37.7292 25.9311C37.9142 25.837 38.1433 25.543 38.1433 25.543L46.3784 17.2922L44.9684 15.8384Z" fill="#382188"/>
<path d="M51.7626 43.866L47.8024 39.9058M49.9412 34.7621C49.9412 38.7845 46.6805 42.0452 42.6581 42.0452C38.6358 42.0452 35.375 38.7845 35.375 34.7621C35.375 30.7398 38.6358 27.479 42.6581 27.479C46.6805 27.479 49.9412 30.7398 49.9412 34.7621Z" stroke="#382188" stroke-width="2.5666" stroke-linecap="round" stroke-linejoin="round"/>
<path fill-rule="evenodd" clip-rule="evenodd" d="M28.1016 46.3325V51.0848H29.0762V50.514H29.1202C29.1651 50.613 29.2301 50.7112 29.3152 50.8087C29.4002 50.9046 29.5093 50.9842 29.6423 51.0477C29.7769 51.1111 29.9401 51.1428 30.132 51.1428C30.4027 51.1428 30.6471 51.0732 30.8652 50.934C31.0849 50.7932 31.2581 50.5867 31.385 50.3144C31.5134 50.0406 31.5776 49.7049 31.5776 49.3073C31.5776 48.8989 31.5118 48.5594 31.3804 48.2887C31.2489 48.0164 31.0733 47.813 30.8536 47.6784C30.6339 47.5422 30.3942 47.4742 30.1343 47.4742C29.9347 47.4742 29.7676 47.5082 29.6331 47.5763C29.5 47.6428 29.3917 47.7263 29.3082 47.8269C29.2262 47.9259 29.1636 48.0234 29.1202 48.1193H29.0901V46.3325H28.1016ZM29.1574 49.8573C29.0986 49.6995 29.0692 49.5146 29.0692 49.3027C29.0692 49.0908 29.0986 48.9067 29.1574 48.7504C29.2162 48.5942 29.3005 48.4735 29.4103 48.3884C29.5217 48.3034 29.6578 48.2608 29.8187 48.2608C29.9811 48.2608 30.118 48.3049 30.2294 48.3931C30.3408 48.4813 30.4251 48.6035 30.4823 48.7597C30.5396 48.9159 30.5682 49.0969 30.5682 49.3027C30.5682 49.51 30.5388 49.6933 30.48 49.8526C30.4228 50.0104 30.3385 50.1342 30.2271 50.2239C30.1157 50.3121 29.9796 50.3562 29.8187 50.3562C29.6594 50.3562 29.524 50.3129 29.4126 50.2262C29.3012 50.1381 29.2162 50.0151 29.1574 49.8573Z" fill="#382188"/>
<path fill-rule="evenodd" clip-rule="evenodd" d="M32.9147 50.9316C33.1793 51.0802 33.4949 51.1544 33.8615 51.1544C34.1554 51.1544 34.4145 51.1095 34.6388 51.0198C34.8647 50.9286 35.0488 50.8017 35.1911 50.6393C35.335 50.4753 35.4301 50.2835 35.4765 50.0638L34.5623 50.0035C34.5282 50.0932 34.4787 50.169 34.4138 50.2309C34.3488 50.2927 34.2707 50.3392 34.1794 50.3701C34.0881 50.401 33.9876 50.4165 33.8777 50.4165C33.7122 50.4165 33.5691 50.3817 33.4484 50.3121C33.3278 50.2425 33.2342 50.1435 33.1677 50.0151C33.1027 49.8867 33.0702 49.7343 33.0702 49.5579L35.4974 49.5556V49.2841C35.4974 48.9809 35.4549 48.7164 35.3698 48.4905C35.2847 48.2631 35.1656 48.0744 35.0124 47.9243C34.8608 47.7743 34.6829 47.6621 34.4787 47.5879C34.2761 47.5121 34.0572 47.4742 33.822 47.4742C33.4724 47.4742 33.1677 47.5515 32.9078 47.7062C32.6494 47.8609 32.4491 48.0767 32.3068 48.3536C32.1645 48.6305 32.0933 48.9523 32.0933 49.3189C32.0933 49.6948 32.1645 50.0205 32.3068 50.2958C32.4491 50.5697 32.6518 50.7816 32.9147 50.9316ZM33.0711 48.943C33.0771 48.815 33.1101 48.6982 33.17 48.5926C33.235 48.4766 33.3247 48.3846 33.4392 48.3165C33.5552 48.2469 33.6882 48.2121 33.8383 48.2121C33.9822 48.2121 34.1082 48.2438 34.2165 48.3072C34.3264 48.3691 34.4122 48.455 34.4741 48.5648C34.536 48.6746 34.5669 48.8007 34.5669 48.943H33.0711Z" fill="#382188"/>
<path d="M38.0383 47.5206V48.2631H37.3677V49.9895C37.3677 50.0808 37.3816 50.152 37.4095 50.203C37.4373 50.2525 37.476 50.2873 37.5255 50.3074C37.5765 50.3276 37.6353 50.3376 37.7018 50.3376C37.7482 50.3376 37.7946 50.3337 37.8411 50.326L37.9478 50.3051L38.1033 51.0407C38.0538 51.0562 37.9841 51.074 37.8944 51.0941C37.8047 51.1157 37.6956 51.1289 37.5672 51.1335C37.329 51.1428 37.1202 51.1111 36.9407 51.0384C36.7628 50.9657 36.6244 50.8527 36.5254 50.6996C36.4264 50.5465 36.3776 50.3531 36.3792 50.1195V48.2631H35.8919V47.5206H36.3792V46.6667H37.3677V47.5206H38.0383Z" fill="#382188"/>
<path fill-rule="evenodd" clip-rule="evenodd" d="M39.0906 51.0337C39.2685 51.1126 39.4712 51.1521 39.6986 51.1521C39.8749 51.1521 40.0304 51.1289 40.165 51.0825C40.2996 51.0345 40.4148 50.9688 40.5107 50.8852C40.6066 50.8001 40.6832 50.7019 40.7405 50.5905H40.7683V51.0848H41.7058V48.6808C41.7058 48.4689 41.6648 48.2871 41.5828 48.1355C41.5008 47.9824 41.3886 47.8571 41.2463 47.7596C41.1055 47.6621 40.9439 47.5902 40.7613 47.5438C40.5803 47.4974 40.3908 47.4742 40.1928 47.4742C39.9082 47.4742 39.6576 47.5175 39.441 47.6041C39.226 47.6892 39.0504 47.8114 38.9143 47.9708C38.7781 48.1285 38.6869 48.3157 38.6404 48.5323L39.5547 48.6066C39.5887 48.489 39.6583 48.3915 39.7635 48.3142C39.8687 48.2353 40.0103 48.1958 40.1882 48.1958C40.3568 48.1958 40.4867 48.2361 40.578 48.3165C40.6708 48.3969 40.7172 48.5106 40.7172 48.6576V48.6715C40.7172 48.7473 40.6886 48.8046 40.6314 48.8432C40.5742 48.8819 40.4821 48.9113 40.3553 48.9314C40.2284 48.95 40.0613 48.9701 39.854 48.9918C39.6777 49.0088 39.5091 49.0382 39.3482 49.0799C39.1888 49.1217 39.0465 49.1836 38.9212 49.2656C38.7959 49.3476 38.6969 49.4558 38.6242 49.5904C38.5515 49.725 38.5151 49.8913 38.5151 50.0893C38.5151 50.3245 38.5662 50.5209 38.6683 50.6787C38.7719 50.835 38.9127 50.9533 39.0906 51.0337ZM40.3669 50.384C40.2555 50.4413 40.1271 50.4699 39.9817 50.4699C39.8301 50.4699 39.7048 50.4351 39.6058 50.3655C39.5083 50.2943 39.4596 50.1914 39.4596 50.0568C39.4596 49.964 39.4835 49.8867 39.5315 49.8248C39.5795 49.7614 39.6467 49.7111 39.7334 49.674C39.82 49.6368 39.9213 49.6098 40.0374 49.5927L40.2184 49.5672C40.2849 49.5564 40.3514 49.5448 40.4179 49.5324C40.4844 49.5185 40.544 49.5038 40.5966 49.4883C40.6507 49.4713 40.6933 49.4527 40.7242 49.4326V49.8109C40.7242 49.9362 40.6925 50.0483 40.6291 50.1473C40.5656 50.2463 40.4782 50.3252 40.3669 50.384Z" fill="#382188"/>
<defs>
<filter id="filter0_d_266_45760" x="0.210938" y="0.255371" width="70.3318" height="70.3318" filterUnits="userSpaceOnUse" color-interpolation-filters="sRGB">
<feFlood flood-opacity="0" result="BackgroundImageFix"/>
<feColorMatrix in="SourceAlpha" type="matrix" values="0 0 0 0 0 0 0 0 0 0 0 0 0 0 0 0 0 0 127 0" result="hardAlpha"/>
<feOffset />
<feGaussianBlur stdDeviation="2"/>
<feComposite in2="hardAlpha" operator="out"/>
<feColorMatrix type="matrix" values="0 0 0 0 0 0 0 0 0 0 0 0 0 0 0 0 0 0 0.25 0"/>
<feBlend mode="normal" in2="BackgroundImageFix" result="effect1_dropShadow_266_45760"/>
<feBlend mode="normal" in="SourceGraphic" in2="effect1_dropShadow_266_45760" result="shape"/>
</filter>
<linearGradient id="paint0_linear_266_45760" x1="35.3769" y1="0.255371" x2="35.3769" y2="62.5872" gradientUnits="userSpaceOnUse">
<stop stop-color="#9262FF"/>
<stop offset="1" stop-color="#5A28CB"/>
</linearGradient>
</defs>
</svg>
